<svg width="877" height="2480" fill="none" xmlns="http://www.w3.org/2000/svg"><path fill="#F1F1E6" d="M0 0h877v2480H0z"/><path d="M439 1940V540" stroke="#445B89" stroke-width="5"/><path d="M590.941 1776.46v-17.58h-5.882v17.58c-20.965.62-47.059 7.54-47.059 14.63v41.42c0 4.86 3.959 8.82 8.824 8.82h10.529l11.741-23.12c3.335.61 10.077 1.61 18.665 1.61 8.7 0 15.847-1.03 19.341-1.63l11.224 23.14h10.852c4.865 0 8.824-3.96 8.824-8.82v-41.42c0-7.09-26.1-14.02-47.059-14.63Zm41.177 56.05c0 1.61-1.324 2.94-2.942 2.94h-7.164l-11.624-23.94-2.27.5c-.089.01-8.912 1.93-20.365 1.93-11.418 0-19.5-1.9-19.582-1.92l-2.259-.55-12.165 23.97h-6.923a2.948 2.948 0 0 1-2.942-2.94v-40.68c2.953-2.57 19.883-8.93 41.177-9.47v.06h5.882v-.07c21.288.55 38.224 6.91 41.177 9.48v40.69Zm-64.706-38.22h5.87v5.89h-5.87v6h-5.883v-6h-5.882v-5.89h5.882v-6h5.883v6Zm44.117 11.77c4.865 0 8.824-3.96 8.824-8.82 0-4.87-3.959-8.83-8.824-8.83-4.864 0-8.823 3.95-8.823 8.83 0 4.87 3.959 8.82 8.823 8.82Zm0-11.77a2.956 2.956 0 0 1 2.942 2.95c0 1.61-1.324 2.94-2.942 2.94a2.954 2.954 0 0 1-2.941-2.94c0-1.62 1.324-2.95 2.941-2.95ZM224.412 1815c-.347 0-.64-.11-.88-.32-.24-.24-.36-.53-.36-.88 0-.32.12-.61.36-.88l12.64-15.04c.56-.59 1.027-1.33 1.4-2.24.4-.93.6-1.8.6-2.6 0-1.31-.293-2.48-.88-3.52a6.215 6.215 0 0 0-2.32-2.44c-.96-.61-2.053-.92-3.28-.92-1.227 0-2.333.31-3.32.92-.96.59-1.733 1.4-2.32 2.44-.56 1.04-.84 2.21-.84 3.52 0 .35-.12.64-.36.88-.213.21-.493.32-.84.32s-.64-.11-.88-.32c-.24-.24-.36-.53-.36-.88 0-1.79.387-3.37 1.16-4.76.8-1.41 1.867-2.52 3.2-3.32 1.36-.83 2.88-1.24 4.56-1.24 1.707 0 3.227.41 4.56 1.24 1.333.8 2.387 1.91 3.16 3.32.8 1.39 1.2 2.97 1.2 4.76 0 .85-.12 1.67-.36 2.44-.24.75-.573 1.47-1 2.16-.427.67-.92 1.33-1.48 2l-11 12.92h13.44c.347 0 .627.12.84.36.24.24.36.53.36.88s-.12.64-.36.88c-.213.21-.493.32-.84.32h-15.8Zm34.127 0c-1.974 0-3.654-.63-5.04-1.88-1.387-1.25-2.454-3.05-3.2-5.4-.72-2.35-1.08-5.15-1.08-8.4 0-3.23.36-6.01 1.08-8.36.746-2.35 1.813-4.15 3.2-5.4 1.386-1.28 3.066-1.92 5.04-1.92 2 0 3.693.64 5.08 1.92 1.386 1.28 2.44 3.09 3.16 5.44.72 2.32 1.08 5.09 1.08 8.32 0 3.23-.36 6.01-1.08 8.36-.72 2.35-1.774 4.16-3.16 5.44-1.387 1.25-3.08 1.88-5.08 1.88Zm0-2.4c1.573 0 2.866-.57 3.88-1.72 1.013-1.15 1.76-2.72 2.24-4.72.506-2 .76-4.28.76-6.84 0-2.56-.254-4.84-.76-6.84-.507-2-1.267-3.56-2.28-4.68-1.014-1.15-2.294-1.72-3.84-1.72-1.547 0-2.827.57-3.84 1.72-1.014 1.12-1.774 2.68-2.28 4.68-.507 1.97-.76 4.25-.76 6.84 0 2.56.24 4.84.72 6.84.506 2 1.266 3.57 2.28 4.72 1.04 1.15 2.333 1.72 3.88 1.72Zm18.856-15c-.56 0-1.04-.19-1.44-.56-.4-.4-.6-.89-.6-1.48 0-.56.187-1.03.56-1.4.4-.4.893-.6 1.48-.6s1.067.2 1.44.6c.373.4.56.87.56 1.4 0 .59-.2 1.08-.6 1.48-.373.37-.84.56-1.4.56Zm-.12 18.04c-.587 0-1.08-.2-1.48-.6-.373-.37-.56-.85-.56-1.44s.2-1.07.6-1.44c.4-.37.88-.56 1.44-.56.56 0 1.027.2 1.4.6.4.37.6.84.6 1.4 0 .56-.2 1.04-.6 1.44-.373.4-.84.6-1.4.6Zm19.733-.64c-1.974 0-3.654-.63-5.04-1.88-1.387-1.25-2.454-3.05-3.2-5.4-.72-2.35-1.08-5.15-1.08-8.4 0-3.23.36-6.01 1.08-8.36.746-2.35 1.813-4.15 3.2-5.4 1.386-1.28 3.066-1.92 5.04-1.92 2 0 3.693.64 5.08 1.92 1.386 1.28 2.44 3.09 3.16 5.44.72 2.32 1.08 5.09 1.08 8.32 0 3.23-.36 6.01-1.08 8.36-.72 2.35-1.774 4.16-3.16 5.44-1.387 1.25-3.08 1.88-5.08 1.88Zm0-2.4c1.573 0 2.866-.57 3.88-1.72 1.013-1.15 1.76-2.72 2.24-4.72.506-2 .76-4.28.76-6.84 0-2.56-.254-4.84-.76-6.84-.507-2-1.267-3.56-2.28-4.68-1.014-1.15-2.294-1.72-3.84-1.72-1.547 0-2.827.57-3.84 1.72-1.014 1.12-1.774 2.68-2.28 4.68-.507 1.97-.76 4.25-.76 6.84 0 2.56.24 4.84.72 6.84.506 2 1.266 3.57 2.28 4.72 1.04 1.15 2.333 1.72 3.88 1.72Zm26.656 2.4c-1.974 0-3.654-.63-5.04-1.88-1.387-1.25-2.454-3.05-3.2-5.4-.72-2.35-1.08-5.15-1.08-8.4 0-3.23.36-6.01 1.08-8.36.746-2.35 1.813-4.15 3.2-5.4 1.386-1.28 3.066-1.92 5.04-1.92 2 0 3.693.64 5.08 1.92 1.386 1.28 2.44 3.09 3.16 5.44.72 2.32 1.08 5.09 1.08 8.32 0 3.23-.36 6.01-1.08 8.36-.72 2.35-1.774 4.16-3.16 5.44-1.387 1.25-3.08 1.88-5.08 1.88Zm0-2.4c1.573 0 2.866-.57 3.88-1.72 1.013-1.15 1.76-2.72 2.24-4.72.506-2 .76-4.28.76-6.84 0-2.56-.254-4.84-.76-6.84-.507-2-1.267-3.56-2.28-4.68-1.014-1.15-2.294-1.72-3.84-1.72-1.547 0-2.827.57-3.84 1.72-1.014 1.12-1.774 2.68-2.28 4.68-.507 1.97-.76 4.25-.76 6.84 0 2.56.24 4.84.72 6.84.506 2 1.266 3.57 2.28 4.72 1.04 1.15 2.333 1.72 3.88 1.72ZM569.933 1599.23c-2.308-1.69-4.683-2.44-6.964-2.45-.048-3.71-.135-7.42-.192-11.14 1.226-.91 2.416-1.83 3.522-2.8 6.007-5.26 9.964-12.91 9.362-21.02-.436-5.88-7.398-11.96-12.67-6.98-2.212 2.09-2.554 5.91-2.889 8.72-.774 6.52-.596 13.19-.564 19.73.002.27.001.53.002.8-3.858 2.91-7.951 5.6-11.455 8.91-5.974 5.65-9.65 14.37-6.64 22.41 2.58 6.89 9.902 10.45 16.894 10.54.022 0 .045-.01.068-.01-.011.16-.019.31-.03.46-.331 4.62-.46 9.29.088 13.89-1.873-3.42-5.395-6.06-9.158-6.47-5.939-.65-9.074 6.88-8.06 11.73.602 2.88 2.818 4.88 5.443 5.97 6.587 3.64 18.154.39 15.327-7.76-.03-.09-.084-.15-.125-.22-.655-5.97-.513-11.94-.145-17.9 6.172-1.14 12.026-5.44 14.175-11.29 2.119-5.76-1.449-11.79-5.989-15.12Zm-10.435-1.89c-3.94 1.31-7.263 4.79-8.935 9.2-.626 1.65 2.124 2.81 2.851 1.2 1.357-2.99 3.151-5.83 6.039-7.06-.121 7.33-.377 14.66-.836 22.03-.092.01-.186.02-.277.02-11.541.5-17.413-10.75-12.962-20.6 2.797-6.19 8.575-10.21 14.172-14.16.001 3.13-.016 6.25-.052 9.37Zm3.9-33.78c.209-2.12.627-4.26 1.709-6.11 2.015-3.46 6.235.78 6.959 2.92 1.44 4.26-.369 10.01-2.637 13.66-1.816 2.93-4.146 5.33-6.699 7.51-.037-6.01.082-12.01.668-17.98Zm-1.415 58.56c.411-5.72.915-11.43.997-17.15.023-1.64.027-3.29.019-4.93 3.405.16 6.547 2.52 8.436 5.21 5.406 7.69-2.002 14.78-9.452 16.87ZM634.718 1591.75c.038-3.02 1.707-11.41-1.059-14.06.04-.41-.452-.85-.88-.58-.008 0-.015.01-.023.01a.225.225 0 0 0-.077-.02c-.027-.76-.538-1.48-1.564-1.51-5.952-.16-12.609 2.31-18.251 3.91-3.471.98-6.935 2.04-10.288 3.38-1.278.51-3.675 1.23-4.504 2.62-.212.1-.396.26-.508.48-1.17 2.31-.594 5.46-.593 8 .003 3.9.069 7.8.215 11.7.139 3.69.408 7.4.905 11.06.064.48.12.99.18 1.53-2.99-1.89-7.756-1.47-11.458.71-3.057 1.79-5.443 4.93-5.358 8.58.104 4.44 4.148 8.25 8.465 8.54 4.899.34 9.849-2.4 11.25-7.27.264-.92.355-1.87.295-2.8a.686.686 0 0 0 .606-.49c.767-2.42-.411-5.51-.705-7.97-.473-3.95-.719-7.91-.89-11.89-.128-2.99-.167-5.98-.186-8.97.95-.29 1.892-.77 2.645-1.07 3.59-1.41 7.169-2.85 10.771-4.23 5.084-1.95 11.833-5.38 17.41-5.17.212.01.42-.06.603-.17-.084 2.73-.355 5.49-.148 8.13.576 7.32.682 14.7 1.12 22.03-1.854-2.58-4.976-4.46-7.917-4.67-2.148-.16-4.102.77-5.687 2.17-5.957 2.03-7.493 12.24-1.751 16.19 1.338.92 2.862 1.41 4.436 1.54 2.37.5 4.956.3 7.041-.38 3.506-1.14 6.09-4.63 6.111-8.03.228-.18.4-.45.433-.83.907-10.2-.766-20.31-.639-30.47Zm-41.135 36.55-.057.06c.821-1.37.997-2.93-.187-3.76-.035-.1-.079-.2-.13-.29.021-.01.042-.01.062-.02.04.03.082.06.12.09.579.51.828 1.21.873 1.95-.093.8-.395 1.61-.681 1.97ZM237.583 1615c-.347 0-.64-.11-.88-.32-.24-.24-.36-.53-.36-.88v-27.16l-4.76 1.56a1.293 1.293 0 0 1-1.4-.2c-.214-.24-.32-.53-.32-.88 0-.24.053-.47.16-.68.133-.21.333-.37.6-.48l6.12-2.04c.133-.05.28-.09.44-.12.16-.05.293-.08.4-.08.346 0 .626.12.84.36.24.21.36.49.36.84v28.88c0 .35-.12.64-.36.88-.214.21-.494.32-.84.32Zm20.326-31.28c1.787 0 3.373.41 4.76 1.24a8.952 8.952 0 0 1 3.36 3.32c.827 1.39 1.24 2.97 1.24 4.76 0 1.76-.413 3.35-1.24 4.76a9.283 9.283 0 0 1-3.36 3.36c-1.387.83-2.973 1.24-4.76 1.24-1.76 0-3.347-.41-4.76-1.24a9.283 9.283 0 0 1-3.36-3.36c-.8-1.41-1.2-3-1.2-4.76 0-1.79.4-3.37 1.2-4.76a8.952 8.952 0 0 1 3.36-3.32c1.413-.83 3-1.24 4.76-1.24Zm0 2.36c-1.307 0-2.493.31-3.56.92a6.88 6.88 0 0 0-2.48 2.48c-.613 1.04-.92 2.23-.92 3.56 0 1.31.307 2.49.92 3.56a6.763 6.763 0 0 0 2.48 2.52c1.067.61 2.253.92 3.56.92 1.333 0 2.52-.31 3.56-.92a6.672 6.672 0 0 0 2.52-2.52c.613-1.07.92-2.27.92-3.6 0-1.31-.307-2.48-.92-3.52a6.785 6.785 0 0 0-2.52-2.48c-1.04-.61-2.227-.92-3.56-.92Zm8.28 11.48-10.24 16.76c-.293.45-.667.68-1.12.68-.32 0-.587-.09-.8-.28a1.235 1.235 0 0 1-.4-.72c-.053-.29 0-.59.16-.88l7.2-11.64 5.2-3.92Zm11.206.04c-.56 0-1.04-.19-1.44-.56-.4-.4-.6-.89-.6-1.48 0-.56.187-1.03.56-1.4.4-.4.893-.6 1.48-.6s1.067.2 1.44.6c.373.4.56.87.56 1.4 0 .59-.2 1.08-.6 1.48-.373.37-.84.56-1.4.56Zm-.12 18.04c-.587 0-1.08-.2-1.48-.6-.373-.37-.56-.85-.56-1.44s.2-1.07.6-1.44c.4-.37.88-.56 1.44-.56.56 0 1.027.2 1.4.6.4.37.6.84.6 1.4 0 .56-.2 1.04-.6 1.44-.373.4-.84.6-1.4.6Zm19.733-.64c-1.974 0-3.654-.63-5.04-1.88-1.387-1.25-2.454-3.05-3.2-5.4-.72-2.35-1.08-5.15-1.08-8.4 0-3.23.36-6.01 1.08-8.36.746-2.35 1.813-4.15 3.2-5.4 1.386-1.28 3.066-1.92 5.04-1.92 2 0 3.693.64 5.08 1.92 1.386 1.28 2.44 3.09 3.16 5.44.72 2.32 1.08 5.09 1.08 8.32 0 3.23-.36 6.01-1.08 8.36-.72 2.35-1.774 4.16-3.16 5.44-1.387 1.25-3.08 1.88-5.08 1.88Zm0-2.4c1.573 0 2.866-.57 3.88-1.72 1.013-1.15 1.76-2.72 2.24-4.72.506-2 .76-4.28.76-6.84 0-2.56-.254-4.84-.76-6.84-.507-2-1.267-3.56-2.28-4.68-1.014-1.15-2.294-1.72-3.84-1.72-1.547 0-2.827.57-3.84 1.72-1.014 1.12-1.774 2.68-2.28 4.68-.507 1.97-.76 4.25-.76 6.84 0 2.56.24 4.84.72 6.84.506 2 1.266 3.57 2.28 4.72 1.04 1.15 2.333 1.72 3.88 1.72Zm26.656 2.4c-1.974 0-3.654-.63-5.04-1.88-1.387-1.25-2.454-3.05-3.2-5.4-.72-2.35-1.08-5.15-1.08-8.4 0-3.23.36-6.01 1.08-8.36.746-2.35 1.813-4.15 3.2-5.4 1.386-1.28 3.066-1.92 5.04-1.92 2 0 3.693.64 5.08 1.92 1.386 1.28 2.44 3.09 3.16 5.44.72 2.32 1.08 5.09 1.08 8.32 0 3.23-.36 6.01-1.08 8.36-.72 2.35-1.774 4.16-3.16 5.44-1.387 1.25-3.08 1.88-5.08 1.88Zm0-2.4c1.573 0 2.866-.57 3.88-1.72 1.013-1.15 1.76-2.72 2.24-4.72.506-2 .76-4.28.76-6.84 0-2.56-.254-4.84-.76-6.84-.507-2-1.267-3.56-2.28-4.68-1.014-1.15-2.294-1.72-3.84-1.72-1.547 0-2.827.57-3.84 1.72-1.014 1.12-1.774 2.68-2.28 4.68-.507 1.97-.76 4.25-.76 6.84 0 2.56.24 4.84.72 6.84.506 2 1.266 3.57 2.28 4.72 1.04 1.15 2.333 1.72 3.88 1.72ZM568.583 1387.68c.325.32.752.48 1.179.48.426 0 .853-.16 1.178-.48.652-.66.652-1.71 0-2.36a4.348 4.348 0 0 1 0-6.14 7.633 7.633 0 0 0 2.25-5.43c0-2.05-.798-3.97-2.25-5.42a1.65 1.65 0 0 0-2.357 0c-.651.65-.651 1.7 0 2.35.82.82 1.274 1.91 1.274 3.07s-.452 2.25-1.274 3.07c-2.991 2.99-2.991 7.86 0 10.86ZM605.25 1387.68c.325.32.752.48 1.178.48.427 0 .854-.16 1.179-.48a1.67 1.67 0 0 0 0-2.36 4.348 4.348 0 0 1 0-6.14 7.633 7.633 0 0 0 2.25-5.43c0-2.05-.799-3.97-2.25-5.42a1.65 1.65 0 0 0-2.357 0c-.652.65-.652 1.7 0 2.35.82.82 1.273 1.91 1.273 3.07s-.451 2.25-1.273 3.07c-2.992 2.99-2.992 7.86 0 10.86ZM586.917 1377.68c.325.32.751.48 1.178.48.427 0 .853-.16 1.178-.48.652-.66.652-1.71 0-2.36a4.35 4.35 0 0 1 0-6.14 7.633 7.633 0 0 0 2.25-5.43c0-2.05-.798-3.97-2.25-5.42a1.65 1.65 0 0 0-2.356 0c-.652.65-.652 1.7 0 2.35.82.82 1.273 1.91 1.273 3.07a4.31 4.31 0 0 1-1.273 3.07c-2.992 2.99-2.992 7.86 0 10.86ZM580.242 1400.68c.121 0 .245-.01.368-.04 2.397-.54 4.875-.81 7.368-.81H588c.92 0 1.667-.74 1.667-1.66 0-.93-.745-1.67-1.667-1.67h-.023c-2.739 0-5.464.3-8.1.89-.899.2-1.462 1.1-1.26 1.99.176.78.863 1.3 1.625 1.3ZM554.368 1428.14c.102.02.202.02.3.02.79 0 1.492-.56 1.639-1.36 1.731-9.5 7.455-17.95 15.31-22.6a1.675 1.675 0 0 0 .585-2.29 1.667 1.667 0 0 0-2.284-.58c-8.673 5.14-14.986 14.43-16.89 24.87-.166.9.434 1.77 1.34 1.94Z" fill="#445B89"/><path d="M630.707 1425.87c-3.02-17.74-16.845-31.83-34.445-35.24.028-.27.071-.54.071-.8 0-4.6-3.738-8.33-8.333-8.33-4.595 0-8.333 3.73-8.333 8.33 0 .26.041.53.071.8-17.6 3.41-31.425 17.5-34.445 35.24-3.483 1.97-7.293 4.87-7.293 8.13 0 8.47 25.853 14.16 50 14.16s50-5.69 50-14.16c0-3.26-3.81-6.16-7.293-8.13Zm-47.697-35.75a5.004 5.004 0 0 1 4.99-5.29 5.004 5.004 0 0 1 4.99 5.29c-.078-.01-.157-.01-.233-.02-.574-.07-1.15-.11-1.73-.15-.214-.02-.425-.04-.639-.05a47.13 47.13 0 0 0-2.386-.07c-.802 0-1.597.03-2.387.07-.213.01-.425.03-.638.05-.58.04-1.157.09-1.73.15-.08.01-.159.01-.237.02Zm-1.012 3.49c.895-.13 1.795-.23 2.699-.3.185-.01.37-.03.555-.04 1.83-.12 3.668-.12 5.498 0 .185.01.37.03.555.04.903.07 1.803.17 2.698.3 17.364 2.63 31.095 16.46 33.587 33.86.077.54.138 1.08.193 1.61.019.19.044.37.06.56.065.73.114 1.47.137 2.21-26.183 6.07-53.773 6.07-79.957 0 .025-.74.072-1.48.137-2.21.017-.19.04-.37.06-.56.055-.54.117-1.07.193-1.61 2.49-17.4 16.222-31.23 33.585-33.86Zm6.002 51.22c-28.493 0-46.667-7.11-46.667-10.83 0-.64.79-2.05 3.44-3.88-.006.09-.003.19-.01.28-.056.91-.096 1.83-.096 2.76v1.32l1.278.31a180.489 180.489 0 0 0 42.055 4.95c14.148 0 28.298-1.65 42.055-4.95l1.278-.31v-1.32c0-.93-.04-1.84-.096-2.76-.007-.09-.004-.19-.01-.28 2.65 1.83 3.44 3.24 3.44 3.88 0 3.72-18.174 10.83-46.667 10.83ZM236.645 1415c-.347 0-.64-.11-.88-.32-.24-.24-.36-.53-.36-.88v-27.16l-4.76 1.56a1.293 1.293 0 0 1-1.4-.2c-.213-.24-.32-.53-.32-.88 0-.24.053-.47.16-.68.133-.21.333-.37.6-.48l6.12-2.04c.133-.05.28-.09.44-.12.16-.05.293-.08.4-.08.347 0 .627.12.84.36.24.21.36.49.36.84v28.88c0 .35-.12.64-.36.88-.213.21-.493.32-.84.32Zm21.247.28c-1.787 0-3.4-.41-4.84-1.24a9.151 9.151 0 0 1-3.36-3.4c-.827-1.44-1.24-3.07-1.24-4.88 0-1.76.413-3.32 1.24-4.68a8.98 8.98 0 0 1 3.36-3.28c1.44-.8 3.053-1.2 4.84-1.2 1.813 0 3.426.4 4.84 1.2a8.994 8.994 0 0 1 3.36 3.28c.826 1.36 1.226 2.92 1.2 4.68 0 1.81-.414 3.44-1.24 4.88a9.166 9.166 0 0 1-3.36 3.4c-1.414.83-3.014 1.24-4.8 1.24Zm0-2.16c1.306 0 2.48-.32 3.52-.96 1.04-.64 1.853-1.52 2.44-2.64.613-1.12.92-2.37.92-3.76.026-1.33-.267-2.52-.88-3.56a6.475 6.475 0 0 0-2.44-2.52c-1.04-.61-2.227-.92-3.56-.92-1.307 0-2.494.31-3.56.92a6.763 6.763 0 0 0-2.48 2.52c-.587 1.04-.88 2.23-.88 3.56 0 1.39.293 2.64.88 3.76.586 1.12 1.4 2 2.44 2.64 1.066.64 2.266.96 3.6.96Zm0-14.36c-1.44 0-2.734-.33-3.88-1a7.386 7.386 0 0 1-2.72-2.72c-.667-1.17-1-2.49-1-3.96 0-1.39.333-2.63 1-3.72a7.3 7.3 0 0 1 2.72-2.6c1.146-.67 2.44-1 3.88-1 1.466-.03 2.76.28 3.88.92a7.19 7.19 0 0 1 2.72 2.64c.666 1.09.986 2.35.96 3.76 0 1.47-.334 2.79-1 3.96a7.4 7.4 0 0 1-2.72 2.72c-1.12.67-2.4 1-3.84 1Zm0-2.24c.986 0 1.866-.24 2.64-.72.8-.48 1.44-1.12 1.92-1.92.48-.83.72-1.76.72-2.8.026-.96-.2-1.83-.68-2.6a4.748 4.748 0 0 0-1.88-1.8c-.8-.45-1.707-.68-2.72-.68-1.494 0-2.747.49-3.76 1.48-1.014.96-1.534 2.16-1.56 3.6-.027 1.55.466 2.84 1.48 3.88 1.013 1.04 2.293 1.56 3.84 1.56Zm19.503 1.08c-.56 0-1.04-.19-1.44-.56-.4-.4-.6-.89-.6-1.48 0-.56.187-1.03.56-1.4.4-.4.893-.6 1.48-.6s1.067.2 1.44.6c.373.4.56.87.56 1.4 0 .59-.2 1.08-.6 1.48-.373.37-.84.56-1.4.56Zm-.12 18.04c-.587 0-1.08-.2-1.48-.6-.373-.37-.56-.85-.56-1.44s.2-1.07.6-1.44c.4-.37.88-.56 1.44-.56.56 0 1.027.2 1.4.6.4.37.6.84.6 1.4 0 .56-.2 1.04-.6 1.44-.373.4-.84.6-1.4.6Zm19.733-.64c-1.974 0-3.654-.63-5.04-1.88-1.387-1.25-2.454-3.05-3.2-5.4-.72-2.35-1.08-5.15-1.08-8.4 0-3.23.36-6.01 1.08-8.36.746-2.35 1.813-4.15 3.2-5.4 1.386-1.28 3.066-1.92 5.04-1.92 2 0 3.693.64 5.08 1.92 1.386 1.28 2.44 3.09 3.16 5.44.72 2.32 1.08 5.09 1.08 8.32 0 3.23-.36 6.01-1.08 8.36-.72 2.35-1.774 4.16-3.16 5.44-1.387 1.25-3.08 1.88-5.08 1.88Zm0-2.4c1.573 0 2.866-.57 3.88-1.72 1.013-1.15 1.76-2.72 2.24-4.72.506-2 .76-4.28.76-6.84 0-2.56-.254-4.84-.76-6.84-.507-2-1.267-3.56-2.28-4.68-1.014-1.15-2.294-1.72-3.84-1.72-1.547 0-2.827.57-3.84 1.72-1.014 1.12-1.774 2.68-2.28 4.68-.507 1.97-.76 4.25-.76 6.84 0 2.56.24 4.84.72 6.84.506 2 1.266 3.57 2.28 4.72 1.04 1.15 2.333 1.72 3.88 1.72Zm26.656 2.4c-1.974 0-3.654-.63-5.04-1.88-1.387-1.25-2.454-3.05-3.2-5.4-.72-2.35-1.08-5.15-1.08-8.4 0-3.23.36-6.01 1.08-8.36.746-2.35 1.813-4.15 3.2-5.4 1.386-1.28 3.066-1.92 5.04-1.92 2 0 3.693.64 5.08 1.92 1.386 1.28 2.44 3.09 3.16 5.44.72 2.32 1.08 5.09 1.08 8.32 0 3.23-.36 6.01-1.08 8.36-.72 2.35-1.774 4.16-3.16 5.44-1.387 1.25-3.08 1.88-5.08 1.88Zm0-2.4c1.573 0 2.866-.57 3.88-1.72 1.013-1.15 1.76-2.72 2.24-4.72.506-2 .76-4.28.76-6.84 0-2.56-.254-4.84-.76-6.84-.507-2-1.267-3.56-2.28-4.68-1.014-1.15-2.294-1.72-3.84-1.72-1.547 0-2.827.57-3.84 1.72-1.014 1.12-1.774 2.68-2.28 4.68-.507 1.97-.76 4.25-.76 6.84 0 2.56.24 4.84.72 6.84.506 2 1.266 3.57 2.28 4.72 1.04 1.15 2.333 1.72 3.88 1.72Z" fill="#445B89"/><g clip-path="url(#a)" fill="#445B89"><path d="M602.68 1174.41a1.775 1.775 0 0 0-.826-1.08l-24.584-14.19c-.853-.5-1.934-.2-2.424.65-6.246 10.82-10.828 21.76-12.901 30.81-1.967 8.59-1.485 14.59 1.369 17.55l-10.802 18.71c-5.751-2.89-12.137-3.81-14.274-.12-.49.85-.199 1.94.649 2.43l21.511 12.42c.28.16.584.23.885.23.613 0 1.209-.31 1.538-.88.63-1.1 1.289-3.46-1.384-7.03-1.386-1.86-3.446-3.68-5.86-5.26l10.808-18.73c.561.15 1.146.22 1.752.22 9.459 0 24.095-16.6 34.367-34.39.234-.4.299-.89.176-1.34Zm-44.084 61.62c.178.24.335.47.471.69l-15.296-8.83c1.973.08 4.938.85 8.286 2.74.074.06.129.14.215.19.109.06.225.1.34.14 2.497 1.49 4.671 3.32 5.984 5.07Zm7.901-29.85c-2.477-1.43-2.886-6.96-1.094-14.78 1.295-5.66 3.641-12.11 6.773-18.81l20.583 11.88c-11.084 15.88-22.026 24.16-26.262 21.71Zm28.258-24.66-21.031-12.14c1.04-2.08 2.137-4.18 3.317-6.28l21.493 12.41c-1.249 2.11-2.513 4.1-3.779 6.01ZM637.939 1240.28c-.527-1.97-2.244-3.51-4.709-4.21-1.695-.49-3.661-.56-5.669-.25l-4.253-15.87c2.598-1.82 4.076-6.18 4.274-12.84.213-7.17-1.045-16.24-3.542-25.56a1.765 1.765 0 0 0-2.173-1.25l-20.564 5.51a1.767 1.767 0 0 0-1.254 2.17c2.496 9.32 5.943 17.81 9.709 23.9 3.505 5.68 6.965 8.72 10.125 8.99l4.251 15.87c-1.895.73-3.56 1.78-4.786 3.05-1.782 1.84-2.501 4.03-1.973 6 .121.45.419.84.826 1.08.272.15.579.23.887.23.154 0 .309-.02.459-.06l17.138-4.59a1.772 1.772 0 0 0 1.254-2.17Zm-33.991-51.51 17.111-4.58a112.14 112.14 0 0 1 1.515 6.94l-16.467 4.41c-.77-2.18-1.497-4.44-2.159-6.77Zm16.82 28.56c-1.371.36-4.294-1.32-7.991-7.31-1.922-3.11-3.757-6.92-5.422-11.14l15.807-4.24c.671 4.5.982 8.7.874 12.36-.209 7.03-1.89 9.96-3.268 10.33Zm.604 25.55c.15-.21.326-.42.527-.63 1.122-1.16 2.885-2.12 4.84-2.64 1.064-.29 2.144-.43 3.157-.43.849 0 1.651.1 2.358.3.278.08.536.17.77.28l-11.652 3.12Z"/></g><path d="M237.348 1215c-.347 0-.64-.11-.88-.32-.24-.24-.36-.53-.36-.88v-27.16l-4.76 1.56a1.293 1.293 0 0 1-1.4-.2c-.213-.24-.32-.53-.32-.88 0-.24.053-.47.16-.68.133-.21.333-.37.6-.48l6.12-2.04c.133-.05.28-.09.44-.12.16-.05.293-.08.4-.08.347 0 .627.12.84.36.24.21.36.49.36.84v28.88c0 .35-.12.64-.36.88-.213.21-.493.32-.84.32Zm16.247 0c-.347 0-.64-.11-.88-.32-.24-.24-.36-.53-.36-.88 0-.13.026-.25.08-.36.053-.13.12-.29.2-.48l12.28-26.8h-14.92c-.347 0-.64-.12-.88-.36s-.36-.53-.36-.88.12-.63.36-.84c.24-.24.533-.36.88-.36h17c.346 0 .626.12.84.36.24.21.36.49.36.84 0 .11-.027.23-.08.36-.027.11-.067.21-.12.32l-13.28 28.68c-.214.48-.587.72-1.12.72Zm23.8-17.4c-.56 0-1.04-.19-1.44-.56-.4-.4-.6-.89-.6-1.48 0-.56.187-1.03.56-1.4.4-.4.893-.6 1.48-.6s1.067.2 1.44.6c.373.4.56.87.56 1.4 0 .59-.2 1.08-.6 1.48-.373.37-.84.56-1.4.56Zm-.12 18.04c-.587 0-1.08-.2-1.48-.6-.373-.37-.56-.85-.56-1.44s.2-1.07.6-1.44c.4-.37.88-.56 1.44-.56.56 0 1.027.2 1.4.6.4.37.6.84.6 1.4 0 .56-.2 1.04-.6 1.44-.373.4-.84.6-1.4.6Zm19.733-.64c-1.974 0-3.654-.63-5.04-1.88-1.387-1.25-2.454-3.05-3.2-5.4-.72-2.35-1.08-5.15-1.08-8.4 0-3.23.36-6.01 1.08-8.36.746-2.35 1.813-4.15 3.2-5.4 1.386-1.28 3.066-1.92 5.04-1.92 2 0 3.693.64 5.08 1.92 1.386 1.28 2.44 3.09 3.16 5.44.72 2.32 1.08 5.09 1.08 8.32 0 3.23-.36 6.01-1.08 8.36-.72 2.35-1.774 4.16-3.16 5.44-1.387 1.25-3.08 1.88-5.08 1.88Zm0-2.4c1.573 0 2.866-.57 3.88-1.72 1.013-1.15 1.76-2.72 2.24-4.72.506-2 .76-4.28.76-6.84 0-2.56-.254-4.84-.76-6.84-.507-2-1.267-3.56-2.28-4.68-1.014-1.15-2.294-1.72-3.84-1.72-1.547 0-2.827.57-3.84 1.72-1.014 1.12-1.774 2.68-2.28 4.68-.507 1.97-.76 4.25-.76 6.84 0 2.56.24 4.84.72 6.84.506 2 1.266 3.57 2.28 4.72 1.04 1.15 2.333 1.72 3.88 1.72Zm26.656 2.4c-1.974 0-3.654-.63-5.04-1.88-1.387-1.25-2.454-3.05-3.2-5.4-.72-2.35-1.08-5.15-1.08-8.4 0-3.23.36-6.01 1.08-8.36.746-2.35 1.813-4.15 3.2-5.4 1.386-1.28 3.066-1.92 5.04-1.92 2 0 3.693.64 5.08 1.92 1.386 1.28 2.44 3.09 3.16 5.44.72 2.32 1.08 5.09 1.08 8.32 0 3.23-.36 6.01-1.08 8.36-.72 2.35-1.774 4.16-3.16 5.44-1.387 1.25-3.08 1.88-5.08 1.88Zm0-2.4c1.573 0 2.866-.57 3.88-1.72 1.013-1.15 1.76-2.72 2.24-4.72.506-2 .76-4.28.76-6.84 0-2.56-.254-4.84-.76-6.84-.507-2-1.267-3.56-2.28-4.68-1.014-1.15-2.294-1.72-3.84-1.72-1.547 0-2.827.57-3.84 1.72-1.014 1.12-1.774 2.68-2.28 4.68-.507 1.97-.76 4.25-.76 6.84 0 2.56.24 4.84.72 6.84.506 2 1.266 3.57 2.28 4.72 1.04 1.15 2.333 1.72 3.88 1.72ZM582.134 971.25v-11.761h-30.413v11.761H538v75.26h100v-75.26h-55.866Zm-27.442-8.791h24.472v8.791h-24.472v-8.791Zm80.338 32.72h-21.556v2.97h21.556v45.391h-94.06v-45.391h13.779a23.353 23.353 0 0 0-2.6 10.731c0 12.95 10.534 23.48 23.482 23.48 12.948 0 23.482-10.53 23.482-23.48 0-3.86-.939-7.51-2.6-10.731h13v-2.97h-14.824c-4.268-5.919-11.22-9.78-19.058-9.78-7.838 0-14.79 3.861-19.058 9.78H540.97V974.22h94.06v20.959Zm-79.91 13.701c0-11.309 9.201-20.511 20.511-20.511 11.31 0 20.511 9.202 20.511 20.511 0 11.31-9.201 20.51-20.511 20.51-11.31 0-20.511-9.2-20.511-20.51Z" fill="#445B89"/><path d="M603.667 979.294v10.811h22.572v-10.811h-22.572Zm19.602 7.841h-16.632v-4.871h16.632v4.871ZM575.631 991.078c-9.816 0-17.803 7.986-17.803 17.802 0 9.82 7.987 17.8 17.803 17.8s17.803-7.98 17.803-17.8c0-9.816-7.987-17.802-17.803-17.802Zm0 32.632c-8.179 0-14.832-6.65-14.832-14.83s6.654-14.832 14.832-14.832c8.179 0 14.832 6.652 14.832 14.832s-6.653 14.83-14.832 14.83Z" fill="#445B89"/><path d="M563.769 1008.88h2.97c0-4.9 3.989-8.891 8.892-8.891v-2.97c-6.541 0-11.862 5.321-11.862 11.861ZM237.583 1015c-.347 0-.64-.11-.88-.32-.24-.24-.36-.53-.36-.88v-27.16l-4.76 1.56c-.187.08-.36.12-.52.12-.347 0-.64-.107-.88-.32a1.274 1.274 0 0 1-.32-.88c0-.24.053-.467.16-.68.133-.213.333-.373.6-.48l6.12-2.04c.133-.053.28-.093.44-.12.16-.053.293-.08.4-.08.346 0 .626.12.84.36.24.213.36.493.36.84v28.88c0 .35-.12.64-.36.88-.214.21-.494.32-.84.32Zm21.166 0c-1.76 0-3.347-.4-4.76-1.2a9.283 9.283 0 0 1-3.36-3.36c-.827-1.41-1.24-3-1.24-4.76 0-1.79.413-3.37 1.24-4.76a9.237 9.237 0 0 1 3.36-3.36c1.413-.827 3-1.24 4.76-1.24 1.787 0 3.373.413 4.76 1.24a8.93 8.93 0 0 1 3.32 3.36c.827 1.39 1.24 2.97 1.24 4.76 0 1.76-.413 3.35-1.24 4.76a8.973 8.973 0 0 1-3.32 3.36c-1.387.8-2.973 1.2-4.76 1.2Zm0-2.36c1.333 0 2.52-.31 3.56-.92a6.88 6.88 0 0 0 2.48-2.48c.613-1.07.92-2.25.92-3.56 0-1.33-.307-2.52-.92-3.56a6.763 6.763 0 0 0-2.48-2.52c-1.04-.613-2.227-.92-3.56-.92-1.307 0-2.493.307-3.56.92a6.672 6.672 0 0 0-2.52 2.52c-.613 1.04-.92 2.23-.92 3.56 0 1.31.307 2.49.92 3.56a6.785 6.785 0 0 0 2.52 2.48c1.067.61 2.253.92 3.56.92Zm-8.28-11.48 10.24-16.76c.293-.453.667-.68 1.12-.68.32 0 .587.093.8.28.213.187.347.427.4.72.08.293.027.587-.16.88l-7.2 11.64-5.2 3.92Zm26.926-3.56c-.56 0-1.04-.187-1.44-.56-.4-.4-.6-.893-.6-1.48 0-.56.187-1.027.56-1.4.4-.4.893-.6 1.48-.6s1.067.2 1.44.6c.373.4.56.867.56 1.4 0 .587-.2 1.08-.6 1.48-.373.373-.84.56-1.4.56Zm-.12 18.04c-.587 0-1.08-.2-1.48-.6-.373-.37-.56-.85-.56-1.44s.2-1.07.6-1.44c.4-.37.88-.56 1.44-.56.56 0 1.027.2 1.4.6.4.37.6.84.6 1.4 0 .56-.2 1.04-.6 1.44-.373.4-.84.6-1.4.6Zm19.733-.64c-1.974 0-3.654-.63-5.04-1.88-1.387-1.25-2.454-3.05-3.2-5.4-.72-2.35-1.08-5.15-1.08-8.4 0-3.227.36-6.013 1.08-8.36.746-2.347 1.813-4.147 3.2-5.4 1.386-1.28 3.066-1.92 5.04-1.92 2 0 3.693.64 5.08 1.92 1.386 1.28 2.44 3.093 3.16 5.44.72 2.32 1.08 5.093 1.08 8.32 0 3.23-.36 6.01-1.08 8.36-.72 2.35-1.774 4.16-3.16 5.44-1.387 1.25-3.08 1.88-5.08 1.88Zm0-2.4c1.573 0 2.866-.57 3.88-1.72 1.013-1.15 1.76-2.72 2.24-4.72.506-2 .76-4.28.76-6.84 0-2.56-.254-4.84-.76-6.84-.507-2-1.267-3.56-2.28-4.68-1.014-1.147-2.294-1.72-3.84-1.72-1.547 0-2.827.573-3.84 1.72-1.014 1.12-1.774 2.68-2.28 4.68-.507 1.973-.76 4.253-.76 6.84 0 2.56.24 4.84.72 6.84.506 2 1.266 3.57 2.28 4.72 1.04 1.15 2.333 1.72 3.88 1.72Zm26.656 2.4c-1.974 0-3.654-.63-5.04-1.88-1.387-1.25-2.454-3.05-3.2-5.4-.72-2.35-1.08-5.15-1.08-8.4 0-3.227.36-6.013 1.08-8.36.746-2.347 1.813-4.147 3.2-5.4 1.386-1.28 3.066-1.92 5.04-1.92 2 0 3.693.64 5.08 1.92 1.386 1.28 2.44 3.093 3.16 5.44.72 2.32 1.08 5.093 1.08 8.32 0 3.23-.36 6.01-1.08 8.36-.72 2.35-1.774 4.16-3.16 5.44-1.387 1.25-3.08 1.88-5.08 1.88Zm0-2.4c1.573 0 2.866-.57 3.88-1.72 1.013-1.15 1.76-2.72 2.24-4.72.506-2 .76-4.28.76-6.84 0-2.56-.254-4.84-.76-6.84-.507-2-1.267-3.56-2.28-4.68-1.014-1.147-2.294-1.72-3.84-1.72-1.547 0-2.827.573-3.84 1.72-1.014 1.12-1.774 2.68-2.28 4.68-.507 1.973-.76 4.253-.76 6.84 0 2.56.24 4.84.72 6.84.506 2 1.266 3.57 2.28 4.72 1.04 1.15 2.333 1.72 3.88 1.72Z" fill="#445B89"/><g clip-path="url(#b)"><path d="M604.816 840.078c-6.88 0-13.431-2.069-19.023-5.994a29.707 29.707 0 0 1-17.927 5.994c-16.468 0-29.866-13.398-29.866-29.866 0-14.078 9.79-25.912 22.919-29.05l-6.574-7.457a1.53 1.53 0 0 1-.385-1.101v-.003a1.53 1.53 0 0 1 .261-.774l3.435-5.216c.284-.43.764-.689 1.28-.689h17.86c.515 0 .996.259 1.28.689l3.434 5.216c.158.231.253.508.263.806v.004l.001.064v.003c-.004.384-.15.734-.387 1l-6.576 7.458a29.684 29.684 0 0 1 6.453 2.362c6.209-6.251 14.726-9.815 23.552-9.815 18.298 0 33.184 14.887 33.184 33.185 0 18.297-14.886 33.184-33.184 33.184Zm-16.578-8.034c4.921 3.258 10.613 4.97 16.578 4.97 16.608 0 30.121-13.512 30.121-30.12 0-16.609-13.513-30.121-30.121-30.121-7.734 0-15.206 3.014-20.785 8.328a30.186 30.186 0 0 1 2.478 1.786c5.012-4.599 11.459-7.116 18.307-7.116 14.955 0 27.122 12.167 27.122 27.122s-12.167 27.122-27.122 27.122a26.932 26.932 0 0 1-14.451-4.174 29.907 29.907 0 0 1-2.127 2.203Zm-24.231-48.358c-12.957 1.876-22.944 13.057-22.944 26.526 0 14.779 12.024 26.802 26.803 26.802 14.778 0 26.802-12.023 26.802-26.802 0-13.469-9.986-24.65-22.943-26.525l-3.859-.274-3.859.273Zm28.259 43.73a23.882 23.882 0 0 0 12.55 3.536c13.265 0 24.058-10.793 24.058-24.058 0-13.266-10.793-24.059-24.058-24.059-5.969 0-11.596 2.156-16.009 6.103 5.506 5.42 8.924 12.955 8.924 21.274 0 6.4-2.024 12.337-5.465 17.204Zm-33.385-53.198 5.574 6.322a30.017 30.017 0 0 1 6.821 0l5.574-6.322h-17.969Zm-.55-3.063H577.4l-1.429-2.169H559.76l-1.429 2.169Zm9.535 63.496c-13.476 0-24.439-10.964-24.439-24.439s10.963-24.439 24.439-24.439c3.946 0 7.676.94 10.98 2.608l.047.023a24.514 24.514 0 0 1 5.336 3.658c.043.039.084.08.122.123 4.885 4.471 7.953 10.897 7.953 18.027a24.31 24.31 0 0 1-5.036 14.843 1.36 1.36 0 0 1-.07.099 24.56 24.56 0 0 1-4.595 4.55 1.448 1.448 0 0 1-.131.09 24.31 24.31 0 0 1-14.606 4.857Zm0-45.815c-11.787 0-21.376 9.589-21.376 21.376 0 11.786 9.589 21.376 21.376 21.376a21.25 21.25 0 0 0 11.524-3.38 33.051 33.051 0 0 1-7.758-21.314 33.06 33.06 0 0 1 4.368-16.45 21.264 21.264 0 0 0-8.134-1.608Zm10.878 2.981a30.004 30.004 0 0 0-4.049 15.077 29.997 29.997 0 0 0 7.151 19.475 21.549 21.549 0 0 0 2.13-2.122 27.034 27.034 0 0 1-6.282-17.353c0-4.703 1.215-9.296 3.523-13.363a21.385 21.385 0 0 0-2.473-1.714Zm4.787 3.866a23.983 23.983 0 0 0-2.774 11.211 23.974 23.974 0 0 0 5.115 14.827 21.254 21.254 0 0 0 3.37-11.509 21.3 21.3 0 0 0-5.711-14.529Z" fill="#445B89"/></g><path d="M235.629 815a1.28 1.28 0 0 1-.88-.32c-.24-.24-.36-.533-.36-.88v-27.16l-4.76 1.56c-.186.08-.36.12-.52.12a1.28 1.28 0 0 1-.88-.32 1.278 1.278 0 0 1-.32-.88c0-.24.054-.467.16-.68a1.22 1.22 0 0 1 .6-.48l6.12-2.04c.134-.053.28-.093.44-.12.16-.053.294-.08.4-.08.347 0 .627.12.84.36.24.213.36.493.36.84v28.88c0 .347-.12.64-.36.88-.213.213-.493.32-.84.32Zm21.927 0c-1.92 0-3.64-.44-5.16-1.32a10.352 10.352 0 0 1-3.64-3.64c-.88-1.52-1.32-3.24-1.32-5.16 0-.373.107-.667.32-.88.24-.24.533-.36.88-.36s.64.12.88.36c.24.213.36.507.36.88 0 1.44.333 2.747 1 3.92a8.03 8.03 0 0 0 2.76 2.76c1.173.667 2.48 1 3.92 1 1.467 0 2.773-.333 3.92-1a7.701 7.701 0 0 0 2.72-2.76c.693-1.173 1.04-2.48 1.04-3.92 0-1.467-.347-2.773-1.04-3.92a7.311 7.311 0 0 0-2.72-2.76c-1.147-.693-2.453-1.04-3.92-1.04h-7.28c-.347 0-.64-.107-.88-.32a1.278 1.278 0 0 1-.32-.88v-11.04c0-.347.107-.627.32-.84.24-.24.533-.36.88-.36h14.56c.347 0 .64.12.88.36.24.213.36.493.36.84s-.12.64-.36.88-.533.36-.88.36h-13.36v8.6h6.08c1.92 0 3.64.44 5.16 1.32a9.628 9.628 0 0 1 3.6 3.64c.907 1.52 1.36 3.24 1.36 5.16s-.453 3.64-1.36 5.16a10.026 10.026 0 0 1-3.6 3.64c-1.52.88-3.24 1.32-5.16 1.32Zm19.839-17.4c-.56 0-1.04-.187-1.44-.56-.4-.4-.6-.893-.6-1.48 0-.56.187-1.027.56-1.4.4-.4.893-.6 1.48-.6s1.067.2 1.44.6c.373.4.56.867.56 1.4 0 .587-.2 1.08-.6 1.48-.373.373-.84.56-1.4.56Zm-.12 18.04c-.587 0-1.08-.2-1.48-.6-.373-.373-.56-.853-.56-1.44s.2-1.067.6-1.44c.4-.373.88-.56 1.44-.56.56 0 1.027.2 1.4.6.4.373.6.84.6 1.4 0 .56-.2 1.04-.6 1.44-.373.4-.84.6-1.4.6Zm19.733-.64c-1.974 0-3.654-.627-5.04-1.88-1.387-1.253-2.454-3.053-3.2-5.4-.72-2.347-1.08-5.147-1.08-8.4 0-3.227.36-6.013 1.08-8.36.746-2.347 1.813-4.147 3.2-5.4 1.386-1.28 3.066-1.92 5.04-1.92 2 0 3.693.64 5.08 1.92 1.386 1.28 2.44 3.093 3.16 5.44.72 2.32 1.08 5.093 1.08 8.32 0 3.227-.36 6.013-1.08 8.36-.72 2.347-1.774 4.16-3.16 5.44-1.387 1.253-3.08 1.88-5.08 1.88Zm0-2.4c1.573 0 2.866-.573 3.88-1.72 1.013-1.147 1.76-2.72 2.24-4.72.506-2 .76-4.28.76-6.84 0-2.56-.254-4.84-.76-6.84-.507-2-1.267-3.56-2.28-4.68-1.014-1.147-2.294-1.72-3.84-1.72-1.547 0-2.827.573-3.84 1.72-1.014 1.12-1.774 2.68-2.28 4.68-.507 1.973-.76 4.253-.76 6.84 0 2.56.24 4.84.72 6.84.506 2 1.266 3.573 2.28 4.72 1.04 1.147 2.333 1.72 3.88 1.72Zm26.656 2.4c-1.974 0-3.654-.627-5.04-1.88-1.387-1.253-2.454-3.053-3.2-5.4-.72-2.347-1.08-5.147-1.08-8.4 0-3.227.36-6.013 1.08-8.36.746-2.347 1.813-4.147 3.2-5.4 1.386-1.28 3.066-1.92 5.04-1.92 2 0 3.693.64 5.08 1.92 1.386 1.28 2.44 3.093 3.16 5.44.72 2.32 1.08 5.093 1.08 8.32 0 3.227-.36 6.013-1.08 8.36-.72 2.347-1.774 4.16-3.16 5.44-1.387 1.253-3.08 1.88-5.08 1.88Zm0-2.4c1.573 0 2.866-.573 3.88-1.72 1.013-1.147 1.76-2.72 2.24-4.72.506-2 .76-4.28.76-6.84 0-2.56-.254-4.84-.76-6.84-.507-2-1.267-3.56-2.28-4.68-1.014-1.147-2.294-1.72-3.84-1.72-1.547 0-2.827.573-3.84 1.72-1.014 1.12-1.774 2.68-2.28 4.68-.507 1.973-.76 4.253-.76 6.84 0 2.56.24 4.84.72 6.84.506 2 1.266 3.573 2.28 4.72 1.04 1.147 2.333 1.72 3.88 1.72Z" fill="#445B89"/><g clip-path="url(#c)" fill="#445B89"><path d="M609.885 620.218h-43.77v3.082h43.77v-3.082ZM595.817 612.401h-15.632v3.082h15.632v-3.082ZM595.817 606.148h-15.632v3.082h15.632v-3.082ZM595.817 599.895h-15.632v3.082h15.632v-3.082ZM619.265 557.689h-62.528v3.083h62.528v-3.083ZM605.195 581.137c-5.159 0-9.357 4.198-9.357 9.358h3.082a6.282 6.282 0 0 1 6.275-6.275 6.282 6.282 0 0 1 6.275 6.275h3.082c0-5.16-4.197-9.358-9.357-9.358ZM541.082 623.3h18.781v-3.083H538v12.462h4.689v15.632h17.151v-15.632h15.654v-3.083h-34.412V623.3Zm4.69 9.379h10.986v12.549h-10.986v-12.549ZM616.137 620.217v3.083h18.781v6.296h-34.413v3.083h15.654v15.632h17.151v-15.632H638v-12.462h-21.863Zm14.091 25.011h-10.986v-12.549h10.986v12.549ZM577.036 599.896h-28.094v15.587h28.094v-15.587Zm-20.278 12.505h-4.733v-9.423h4.733v9.423Zm17.195 0H559.84v-9.423h14.113v9.423ZM627.058 599.896h-28.094v15.587h28.094v-15.587Zm-10.898 12.505h-14.113v-9.423h14.113v9.423Zm7.816 0h-4.734v-9.423h4.734v9.423Z"/><path d="M544.231 587.346c1.826 0 3.472-.79 4.612-2.046l2.543 6.78h-8.697v26.552h3.083v-23.47h84.456v23.47h3.083V592.08h-8.697l2.543-6.781a6.213 6.213 0 0 0 4.613 2.047 6.238 6.238 0 0 0 6.23-6.231 6.237 6.237 0 0 0-6.23-6.23 6.238 6.238 0 0 0-5.772 3.887l-.001-.001-.008.025c-.069.17-.131.343-.184.52l-2.841 8.052-3.946-24.989h-62.036l-3.945 24.989-2.837-8.038a6.227 6.227 0 0 0-.197-.557l-.001-.002a6.239 6.239 0 0 0-5.771-3.886 6.238 6.238 0 0 0-6.231 6.23 6.238 6.238 0 0 0 6.231 6.231Zm87.538-9.379a3.152 3.152 0 0 1 3.149 3.148 3.153 3.153 0 0 1-3.149 3.149 3.152 3.152 0 0 1-3.148-3.149 3.151 3.151 0 0 1 3.148-3.148Zm-72.153-12.505h26.843v3.17h-3.149v3.083h9.38v-3.083h-3.149v-3.17h26.843l4.203 26.618h-65.174l4.203-26.618Zm-15.385 12.505a3.151 3.151 0 0 1 3.148 3.148 3.152 3.152 0 0 1-3.148 3.149 3.153 3.153 0 0 1-3.149-3.149 3.152 3.152 0 0 1 3.149-3.148Z"/><path d="m571.113 575.17-2.179-2.179-7.034 7.034 2.179 2.179 7.034-7.034ZM563.462 586.278l2.18 2.18 14.068-14.068-2.18-2.18-14.068 14.068ZM572.843 584.716l2.179 2.179 3.126-3.126-2.179-2.179-3.126 3.126ZM564.531 618.631h-3.083v6.253h3.083v-6.253ZM614.553 618.631h-3.082v6.253h3.082v-6.253ZM577.08 638.931h21.84V626.47h-21.84v12.461Zm3.082-9.379h15.676v6.297h-15.676v-6.297Z"/><path d="M584.873 631.16h-3.126v3.083h3.126v-3.083ZM589.562 631.16h-3.126v3.083h3.126v-3.083ZM594.254 631.16h-3.127v3.083h3.127v-3.083Z"/></g><path d="M234.965 615a1.28 1.28 0 0 1-.88-.32c-.24-.24-.36-.533-.36-.88v-27.16l-4.76 1.56c-.186.08-.36.12-.52.12a1.28 1.28 0 0 1-.88-.32 1.278 1.278 0 0 1-.32-.88c0-.24.054-.467.16-.68a1.22 1.22 0 0 1 .6-.48l6.12-2.04c.134-.053.28-.093.44-.12.16-.053.294-.08.4-.08.347 0 .627.12.84.36.24.213.36.493.36.84v28.88c0 .347-.12.64-.36.88-.213.213-.493.32-.84.32Zm27.047 0c-.347 0-.64-.107-.88-.32a1.278 1.278 0 0 1-.32-.88v-6.56h-15c-.32 0-.6-.107-.84-.32a1.408 1.408 0 0 1-.4-.76 1.234 1.234 0 0 1 .24-.84l16.2-21.12c.133-.16.267-.28.4-.36.133-.08.333-.12.6-.12.347 0 .627.12.84.36.24.213.36.507.36.88v20.12h3.68c.347 0 .627.08.84.24.24.133.36.427.36.88 0 .24-.12.48-.36.72-.213.213-.493.32-.84.32h-3.68v6.56c0 .347-.12.64-.36.88-.213.213-.493.32-.84.32Zm-15.04-8.72-.2-1.2h14.04V587.4l.48.32-14.32 18.56Zm30.423-8.68c-.56 0-1.04-.187-1.44-.56-.4-.4-.6-.893-.6-1.48 0-.56.187-1.027.56-1.4.4-.4.893-.6 1.48-.6s1.067.2 1.44.6c.373.4.56.867.56 1.4 0 .587-.2 1.08-.6 1.48-.373.373-.84.56-1.4.56Zm-.12 18.04c-.587 0-1.08-.2-1.48-.6-.373-.373-.56-.853-.56-1.44s.2-1.067.6-1.44c.4-.373.88-.56 1.44-.56.56 0 1.027.2 1.4.6.4.373.6.84.6 1.4 0 .56-.2 1.04-.6 1.44-.373.4-.84.6-1.4.6Zm19.733-.64c-1.974 0-3.654-.627-5.04-1.88-1.387-1.253-2.454-3.053-3.2-5.4-.72-2.347-1.08-5.147-1.08-8.4 0-3.227.36-6.013 1.08-8.36.746-2.347 1.813-4.147 3.2-5.4 1.386-1.28 3.066-1.92 5.04-1.92 2 0 3.693.64 5.08 1.92 1.386 1.28 2.44 3.093 3.16 5.44.72 2.32 1.08 5.093 1.08 8.32 0 3.227-.36 6.013-1.08 8.36-.72 2.347-1.774 4.16-3.16 5.44-1.387 1.253-3.08 1.88-5.08 1.88Zm0-2.4c1.573 0 2.866-.573 3.88-1.72 1.013-1.147 1.76-2.72 2.24-4.72.506-2 .76-4.28.76-6.84 0-2.56-.254-4.84-.76-6.84-.507-2-1.267-3.56-2.28-4.68-1.014-1.147-2.294-1.72-3.84-1.72-1.547 0-2.827.573-3.84 1.72-1.014 1.12-1.774 2.68-2.28 4.68-.507 1.973-.76 4.253-.76 6.84 0 2.56.24 4.84.72 6.84.506 2 1.266 3.573 2.28 4.72 1.04 1.147 2.333 1.72 3.88 1.72Zm26.656 2.4c-1.974 0-3.654-.627-5.04-1.88-1.387-1.253-2.454-3.053-3.2-5.4-.72-2.347-1.08-5.147-1.08-8.4 0-3.227.36-6.013 1.08-8.36.746-2.347 1.813-4.147 3.2-5.4 1.386-1.28 3.066-1.92 5.04-1.92 2 0 3.693.64 5.08 1.92 1.386 1.28 2.44 3.093 3.16 5.44.72 2.32 1.08 5.093 1.08 8.32 0 3.227-.36 6.013-1.08 8.36-.72 2.347-1.774 4.16-3.16 5.44-1.387 1.253-3.08 1.88-5.08 1.88Zm0-2.4c1.573 0 2.866-.573 3.88-1.72 1.013-1.147 1.76-2.72 2.24-4.72.506-2 .76-4.28.76-6.84 0-2.56-.254-4.84-.76-6.84-.507-2-1.267-3.56-2.28-4.68-1.014-1.147-2.294-1.72-3.84-1.72-1.547 0-2.827.573-3.84 1.72-1.014 1.12-1.774 2.68-2.28 4.68-.507 1.973-.76 4.253-.76 6.84 0 2.56.24 4.84.72 6.84.506 2 1.266 3.573 2.28 4.72 1.04 1.147 2.333 1.72 3.88 1.72Z" fill="#445B89"/><defs><clipPath id="a"><path fill="#fff" transform="translate(538 1153)" d="M0 0h100v100H0z"/></clipPath><clipPath id="b"><path fill="#fff" transform="translate(538 753)" d="M0 0h100v100H0z"/></clipPath><clipPath id="c"><path fill="#fff" transform="translate(538 553)" d="M0 0h100v100H0z"/></clipPath></defs></svg>
