<svg width="877" height="2481" fill="none" xmlns="http://www.w3.org/2000/svg"><path fill="#F1F1E6" d="M0 0h877v2481H0z"/><path d="M275.517 1901a1.61 1.61 0 0 1-1.184-.48c-.32-.32-.48-.71-.48-1.18v-21.67c0-.49.16-.88.48-1.18.32-.32.715-.48 1.184-.48h6.4c1.6 0 3.019.35 4.256 1.05a7.404 7.404 0 0 1 2.88 2.95c.704 1.24 1.056 2.66 1.056 4.29 0 1.55-.352 2.94-1.056 4.16a7.26 7.26 0 0 1-2.88 2.84c-1.237.69-2.656 1.03-4.256 1.03h-4.736v7.01c0 .47-.16.86-.48 1.18-.299.32-.693.48-1.184.48Zm1.664-11.74h4.736c.981 0 1.845-.22 2.592-.64a4.72 4.72 0 0 0 1.76-1.76c.427-.75.64-1.6.64-2.56 0-1.03-.213-1.92-.64-2.69a4.776 4.776 0 0 0-1.76-1.86c-.747-.45-1.611-.67-2.592-.67h-4.736v10.18Zm31.362 12.06c-1.878 0-3.595-.31-5.152-.93-1.558-.64-2.902-1.52-4.032-2.65a12.439 12.439 0 0 1-2.592-4.07c-.619-1.58-.928-3.3-.928-5.18s.309-3.6.928-5.15c.618-1.56 1.482-2.91 2.592-4.04 1.13-1.15 2.474-2.03 4.032-2.65 1.557-.64 3.274-.96 5.152-.96 1.877 0 3.584.32 5.12.96 1.557.62 2.901 1.5 4.032 2.65 1.13 1.13 2.005 2.48 2.624 4.04.618 1.55.928 3.27.928 5.15 0 1.88-.31 3.6-.928 5.18a12.216 12.216 0 0 1-2.624 4.07c-1.131 1.13-2.475 2.01-4.032 2.65-1.536.62-3.243.93-5.12.93Zm0-3.01c1.386 0 2.656-.24 3.808-.73a9.73 9.73 0 0 0 3.04-2.08 9.26 9.26 0 0 0 1.952-3.14c.469-1.19.704-2.49.704-3.87 0-1.39-.235-2.68-.704-3.87a8.853 8.853 0 0 0-1.952-3.11 8.959 8.959 0 0 0-3.04-2.08c-1.152-.49-2.422-.73-3.808-.73-1.387 0-2.667.24-3.84.73a9.027 9.027 0 0 0-3.008 2.08 9.498 9.498 0 0 0-1.952 3.11c-.47 1.19-.704 2.48-.704 3.87 0 1.38.234 2.68.704 3.87a9.961 9.961 0 0 0 1.952 3.14 9.82 9.82 0 0 0 3.008 2.08c1.173.49 2.453.73 3.84.73Zm26.602 2.69a1.61 1.61 0 0 1-1.184-.48c-.32-.32-.48-.71-.48-1.18v-23.33h3.328v23.33c0 .47-.16.86-.48 1.18-.32.32-.715.48-1.184.48Zm-8.576-21.92c-.448 0-.821-.14-1.12-.42-.277-.29-.416-.67-.416-1.12 0-.44.139-.81.416-1.08.299-.3.672-.45 1.12-.45h17.12c.448 0 .811.15 1.088.45.299.27.448.64.448 1.08 0 .45-.149.83-.448 1.12-.277.28-.64.42-1.088.42h-17.12Zm34.116 21.92c-.682 0-1.184-.35-1.504-1.06l-9.376-21.44c-.298-.72-.33-1.32-.096-1.79.235-.47.683-.7 1.344-.7.747 0 1.259.33 1.536.99l8.224 19.74h-.352l8.384-19.74c.171-.38.363-.64.576-.77.235-.15.544-.22.928-.22.64 0 1.078.23 1.312.7.256.45.256.95 0 1.51l-9.472 21.72a1.88 1.88 0 0 1-.608.8c-.234.17-.533.26-.896.26Zm19.882 0a1.61 1.61 0 0 1-1.184-.48c-.32-.32-.48-.71-.48-1.18v-21.67c0-.49.16-.88.48-1.18.32-.32.715-.48 1.184-.48h5.76c1.6 0 3.019.34 4.256 1.02 1.237.66 2.197 1.58 2.88 2.75.704 1.18 1.056 2.54 1.056 4.1 0 1.45-.352 2.74-1.056 3.87-.683 1.13-1.643 2.02-2.88 2.66-1.237.64-2.656.96-4.256.96h-4.096v7.97c0 .47-.16.86-.48 1.18-.299.32-.693.48-1.184.48Zm13.28 0c-.299 0-.576-.06-.832-.19a1.659 1.659 0 0 1-.608-.61l-5.76-9.28 3.232-.93 5.248 8.45c.384.62.437 1.21.16 1.76-.277.53-.757.8-1.44.8Zm-11.616-12.7h4.096c.981 0 1.845-.19 2.592-.55.747-.38 1.333-.9 1.76-1.57.427-.68.64-1.45.64-2.3 0-.94-.213-1.77-.64-2.5a4.471 4.471 0 0 0-1.76-1.69c-.747-.41-1.611-.61-2.592-.61h-4.096v9.22Zm21.755 12.7a1.61 1.61 0 0 1-1.184-.48c-.32-.32-.48-.71-.48-1.18v-21.67c0-.49.16-.88.48-1.18.32-.32.715-.48 1.184-.48h5.792c1.835 0 3.499.31 4.992.93a11.1 11.1 0 0 1 3.936 2.59 11.448 11.448 0 0 1 2.56 3.93c.597 1.52.896 3.19.896 5.03 0 1.83-.299 3.52-.896 5.05a11.712 11.712 0 0 1-2.56 3.97 11.666 11.666 0 0 1-3.936 2.59c-1.493.6-3.157.9-4.992.9h-5.792Zm1.664-2.94h4.128c1.792 0 3.371-.41 4.736-1.22a8.875 8.875 0 0 0 3.264-3.39c.789-1.45 1.184-3.11 1.184-4.96 0-1.88-.395-3.53-1.184-4.96a8.657 8.657 0 0 0-3.264-3.36c-1.365-.81-2.944-1.22-4.736-1.22h-4.128v19.11Zm26.598 2.94a1.61 1.61 0 0 1-1.184-.48c-.32-.32-.48-.71-.48-1.18v-21.67c0-.49.16-.88.48-1.18.32-.32.715-.48 1.184-.48.491 0 .886.16 1.184.48.32.3.48.69.48 1.18v21.67c0 .47-.16.86-.48 1.18-.298.32-.693.48-1.184.48Zm18.647 0a1.61 1.61 0 0 1-1.184-.48c-.32-.32-.48-.71-.48-1.18v-23.33h3.328v23.33c0 .47-.16.86-.48 1.18-.32.32-.715.48-1.184.48Zm-8.576-21.92c-.448 0-.821-.14-1.12-.42-.277-.29-.416-.67-.416-1.12 0-.44.139-.81.416-1.08.299-.3.672-.45 1.12-.45h17.12c.448 0 .811.15 1.088.45.299.27.448.64.448 1.08 0 .45-.149.83-.448 1.12-.277.28-.64.42-1.088.42h-17.12Zm8.576-5.57c-.32 0-.597-.08-.832-.25l-3.584-2.37c-.512-.39-.768-.84-.768-1.38 0-.42.256-.73.768-.93.533-.21 1.163-.06 1.888.45l2.528 1.7 2.528-1.7c.811-.55 1.451-.71 1.92-.48.491.22.736.54.736.96 0 .54-.256.99-.768 1.38l-3.552 2.37c-.256.17-.544.25-.864.25Zm40.003 28c-2.048 0-3.861-.37-5.44-1.12-1.578-.77-2.816-1.82-3.712-3.17-.874-1.34-1.312-2.88-1.312-4.6v-14.95c0-.49.16-.88.48-1.18.32-.32.715-.48 1.184-.48.491 0 .886.16 1.184.48.32.3.48.69.48 1.18v14.95c0 1.15.299 2.17.896 3.07.619.87 1.462 1.57 2.528 2.08 1.088.49 2.326.73 3.712.73 1.344 0 2.528-.24 3.552-.73 1.046-.51 1.856-1.21 2.432-2.08.598-.9.896-1.92.896-3.07v-14.95c0-.49.16-.88.48-1.18.32-.32.715-.48 1.184-.48.491 0 .886.16 1.184.48.299.3.448.69.448 1.18v14.95c0 1.72-.437 3.26-1.312 4.6-.853 1.35-2.048 2.4-3.584 3.17-1.536.75-3.296 1.12-5.28 1.12Zm0-28.25c-.469 0-.864-.15-1.184-.45-.298-.32-.448-.72-.448-1.19 0-.44.128-.81.384-1.08l3.136-3.14c.32-.32.704-.48 1.152-.48.491 0 .886.16 1.184.48.299.32.448.71.448 1.18 0 .22-.032.42-.096.61s-.181.36-.352.51l-3.104 3.11c-.298.3-.672.45-1.12.45Zm30.968 28.06c-1.728 0-3.35-.32-4.864-.96a12.622 12.622 0 0 1-3.936-2.72c-1.11-1.17-1.984-2.54-2.624-4.1-.619-1.55-.928-3.24-.928-5.05 0-1.79.309-3.46.928-4.99.64-1.56 1.514-2.92 2.624-4.07a12.383 12.383 0 0 1 3.936-2.75c1.493-.66 3.114-.99 4.864-.99 1.642 0 3.05.21 4.224.64 1.194.42 2.389 1.13 3.584 2.11.17.13.298.27.384.42.106.12.17.26.192.41.042.13.064.29.064.48 0 .41-.15.75-.448 1.03-.278.25-.619.4-1.024.44-.406.03-.8-.11-1.184-.41-.79-.68-1.611-1.21-2.464-1.57-.832-.36-1.942-.54-3.328-.54-1.259 0-2.443.25-3.552.76a9.653 9.653 0 0 0-2.944 2.12 9.803 9.803 0 0 0-1.952 3.13c-.47 1.18-.704 2.43-.704 3.78 0 1.36.234 2.64.704 3.84a9.887 9.887 0 0 0 1.952 3.1c.853.9 1.834 1.6 2.944 2.11 1.109.49 2.293.74 3.552.74 1.088 0 2.112-.18 3.072-.54.981-.39 1.92-.91 2.816-1.57.384-.28.757-.4 1.12-.35.384.02.704.17.96.44.256.26.384.62.384 1.09 0 .22-.043.43-.128.64a1.88 1.88 0 0 1-.384.55 13.01 13.01 0 0 1-3.712 2.08c-1.302.47-2.678.7-4.128.7Zm-.032-27.81c-.32 0-.598-.08-.832-.25l-3.584-2.37c-.512-.39-.768-.84-.768-1.38 0-.42.256-.73.768-.93.533-.21 1.162-.06 1.888.45l2.528 1.7 2.528-1.7c.81-.55 1.45-.71 1.92-.48.49.22.736.54.736.96 0 .54-.256.99-.768 1.38l-3.552 2.37c-.256.17-.544.25-.864.25Zm15.915 27.49c-.598 0-1.056-.26-1.376-.77-.32-.51-.352-1.05-.096-1.63l8.992-21.47c.32-.75.842-1.12 1.568-1.12.768 0 1.29.37 1.568 1.12l9.024 21.53c.234.6.192 1.15-.128 1.64-.299.47-.758.7-1.376.7-.32 0-.63-.09-.928-.26a1.63 1.63 0 0 1-.608-.76l-7.936-19.72h.896l-8.064 19.72c-.15.34-.374.59-.672.76a1.64 1.64 0 0 1-.864.26Zm1.696-5.5 1.28-2.76h12.544l1.28 2.76h-15.104Zm32.932 5.82a11.8 11.8 0 0 1-3.904-.64c-1.238-.43-2.315-1.02-3.232-1.79-.918-.77-1.59-1.66-2.016-2.66-.214-.45-.214-.86 0-1.25.234-.38.618-.63 1.152-.73.384-.09.757-.02 1.12.19.384.19.672.49.864.9.256.53.672 1.02 1.248 1.47.597.45 1.312.81 2.144 1.09.832.27 1.706.41 2.624.41 1.024 0 1.962-.16 2.816-.48.874-.32 1.578-.78 2.112-1.37.533-.62.8-1.38.8-2.28 0-1.13-.448-2.14-1.344-3.04-.875-.89-2.326-1.45-4.352-1.66-2.646-.26-4.726-1.03-6.24-2.34-1.515-1.3-2.272-2.91-2.272-4.83 0-1.41.394-2.6 1.184-3.58.789-.98 1.856-1.73 3.2-2.24 1.365-.51 2.88-.77 4.544-.77 1.301 0 2.432.18 3.392.54.981.37 1.834.87 2.56 1.51a9.94 9.94 0 0 1 1.888 2.27c.298.47.416.92.352 1.34-.043.41-.246.73-.608.96-.406.26-.843.31-1.312.16-.47-.15-.822-.42-1.056-.83a5.77 5.77 0 0 0-1.248-1.57 5.535 5.535 0 0 0-1.728-.99c-.662-.25-1.44-.38-2.336-.38-1.579-.02-2.902.28-3.968.89-1.067.6-1.6 1.53-1.6 2.79 0 .64.16 1.26.48 1.85.341.58.949 1.08 1.824 1.51.896.42 2.176.72 3.84.89 2.538.26 4.512 1.04 5.92 2.34 1.429 1.28 2.144 2.98 2.144 5.09 0 1.21-.256 2.27-.768 3.17a6.912 6.912 0 0 1-2.016 2.27c-.832.6-1.792 1.04-2.88 1.34-1.067.3-2.176.45-3.328.45Zm23.406-.32c-.47 0-.864-.16-1.184-.48-.32-.32-.48-.71-.48-1.18v-23.33h3.328v23.33c0 .47-.16.86-.48 1.18-.32.32-.715.48-1.184.48Zm-8.576-21.92c-.448 0-.822-.14-1.12-.42-.278-.29-.416-.67-.416-1.12 0-.44.138-.81.416-1.08.298-.3.672-.45 1.12-.45h17.12c.448 0 .81.15 1.088.45.298.27.448.64.448 1.08 0 .45-.15.83-.448 1.12-.278.28-.64.42-1.088.42h-17.12Zm8.576-5.57c-.32 0-.598-.08-.832-.25l-3.584-2.37c-.512-.39-.768-.84-.768-1.38 0-.42.256-.73.768-.93.533-.21 1.162-.06 1.888.45l2.528 1.7 2.528-1.7c.81-.55 1.45-.71 1.92-.48.49.22.736.54.736.96 0 .54-.256.99-.768 1.38l-3.552 2.37c-.256.17-.544.25-.864.25Z" fill="#445B89"/><g clip-path="url(#a)"><path d="M526.43 1765.43h-72.462v-8.04h.237c4.061 0 7.365-3.29 7.365-7.33v-38.32c4.348-.88 7.86-4.3 8.725-8.78l9.207-47.66c2.331-12.07-.84-24.42-8.701-33.89-7.861-9.48-19.448-14.91-31.811-14.91-12.343 0-23.931 5.43-31.792 14.91-7.86 9.47-11.032 21.82-8.701 33.89l9.208 47.66c.865 4.48 4.377 7.9 8.725 8.78v38.32c0 4.04 3.304 7.33 7.365 7.33h.237v8.04H351.57c-6.157 0-11.166 4.99-11.166 11.11v22.71c0 6.13 5.009 11.11 11.166 11.11h.238v7.81c0 4.04 3.303 7.33 7.365 7.33h159.654c4.061 0 7.365-3.29 7.365-7.33v-7.81h.238c6.157 0 11.166-4.98 11.166-11.11v-22.71c0-6.12-5.009-11.11-11.166-11.11Zm-71.987-45.41h-30.886v-8.04h30.886v8.04Zm-39.739-18.4-9.207-47.66c-1.928-9.98.695-20.2 7.197-28.04 6.502-7.83 16.086-12.32 26.316-12.32 10.21 0 19.794 4.49 26.296 12.32 6.502 7.84 9.126 18.06 7.197 28.04l-9.208 47.66a4.038 4.038 0 0 1-3.966 3.26h-40.658a4.04 4.04 0 0 1-3.967-3.26Zm9.091 48.67a.232.232 0 0 1-.238-.23v-22.94h30.886v22.94c0 .13-.107.23-.238.23h-30.41Zm23.045 7.1v8.04h-15.68v-8.04h15.68Zm72.225 60.78c0 .13-.107.23-.238.23H359.173a.232.232 0 0 1-.238-.23v-7.81h160.13v7.81Zm11.404-18.92c0 2.22-1.812 4.02-4.039 4.02H351.57c-2.227 0-4.039-1.8-4.039-4.02v-22.71c0-2.21 1.812-4.02 4.039-4.02h174.86c2.227 0 4.039 1.81 4.039 4.02v22.71Z" fill="#445B89"/></g><path d="M260.373 883a1.61 1.61 0 0 1-1.184-.48 1.61 1.61 0 0 1-.48-1.184v-21.664c0-.491.16-.885.48-1.184.32-.32.715-.48 1.184-.48h14.464c.491 0 .885.149 1.184.448.299.277.448.651.448 1.12 0 .448-.149.811-.448 1.088-.299.277-.693.416-1.184.416h-12.8v7.776h9.184c.491 0 .885.149 1.184.448.299.277.448.64.448 1.088 0 .448-.149.821-.448 1.12-.299.277-.693.416-1.184.416h-9.184v9.408c0 .469-.16.864-.48 1.184-.32.32-.715.48-1.184.48Zm25.216 0a1.61 1.61 0 0 1-1.184-.48 1.61 1.61 0 0 1-.48-1.184v-21.664c0-.491.16-.885.48-1.184.32-.32.715-.48 1.184-.48.491 0 .885.16 1.184.48.32.299.48.693.48 1.184v21.664c0 .469-.16.864-.48 1.184-.299.32-.693.48-1.184.48Zm12.887 0c-.47 0-.864-.16-1.184-.48-.299-.32-.448-.715-.448-1.184v-21.664c0-.491.149-.885.448-1.184.32-.32.714-.48 1.184-.48.512 0 .938.203 1.28.608l13.952 18.56v-17.504c0-.491.16-.885.48-1.184.32-.32.714-.48 1.184-.48.49 0 .885.16 1.184.48.298.299.448.693.448 1.184v21.664c0 .469-.15.864-.448 1.184-.299.32-.694.48-1.184.48-.214 0-.448-.043-.704-.128a1.503 1.503 0 0 1-.576-.448l-13.952-18.56v17.472c0 .469-.16.864-.48 1.184-.299.32-.694.48-1.184.48Zm35.522 0a1.61 1.61 0 0 1-1.184-.48 1.61 1.61 0 0 1-.48-1.184v-23.328h3.328v23.328c0 .469-.16.864-.48 1.184-.32.32-.714.48-1.184.48Zm-8.576-21.92c-.448 0-.821-.139-1.12-.416-.277-.299-.416-.672-.416-1.12 0-.448.139-.811.416-1.088.299-.299.672-.448 1.12-.448h17.12c.448 0 .811.149 1.088.448.299.277.448.64.448 1.088 0 .448-.149.821-.448 1.12-.277.277-.64.416-1.088.416h-17.12ZM352.627 883c-.47 0-.864-.16-1.184-.48a1.61 1.61 0 0 1-.48-1.184v-21.664c0-.491.16-.885.48-1.184.32-.32.714-.48 1.184-.48.49 0 .885.16 1.184.48.32.299.48.693.48 1.184v21.664c0 .469-.16.864-.48 1.184-.299.32-.694.48-1.184.48Zm22.454.32c-1.728 0-3.349-.32-4.864-.96a12.628 12.628 0 0 1-3.936-2.72 13.212 13.212 0 0 1-2.624-4.096c-.618-1.557-.928-3.243-.928-5.056 0-1.792.31-3.456.928-4.992.64-1.557 1.515-2.912 2.624-4.064a12.38 12.38 0 0 1 3.936-2.752c1.494-.661 3.115-.992 4.864-.992 1.643 0 3.051.213 4.224.64 1.195.427 2.39 1.131 3.584 2.112.171.128.299.267.384.416a.821.821 0 0 1 .192.416c.043.128.064.288.064.48 0 .405-.149.747-.448 1.024a1.732 1.732 0 0 1-1.024.448c-.405.021-.8-.117-1.184-.416-.789-.683-1.61-1.205-2.464-1.568-.832-.363-1.941-.544-3.328-.544a8.378 8.378 0 0 0-3.552.768 9.586 9.586 0 0 0-2.944 2.112 9.86 9.86 0 0 0-1.952 3.136 10.078 10.078 0 0 0-.704 3.776c0 1.365.235 2.645.704 3.84a9.958 9.958 0 0 0 1.952 3.104 9.586 9.586 0 0 0 2.944 2.112 8.682 8.682 0 0 0 3.552.736 8.613 8.613 0 0 0 3.072-.544 12.25 12.25 0 0 0 2.816-1.568c.384-.277.758-.395 1.12-.352.384.021.704.171.96.448.256.256.384.619.384 1.088 0 .213-.042.427-.128.64a1.807 1.807 0 0 1-.384.544 12.808 12.808 0 0 1-3.712 2.08 12.079 12.079 0 0 1-4.128.704Zm18.539-.32a1.68 1.68 0 0 1-1.184-.48 1.61 1.61 0 0 1-.48-1.184v-21.664c0-.469.16-.864.48-1.184a1.68 1.68 0 0 1 1.184-.48c.47 0 .864.16 1.184.48.32.32.48.715.48 1.184v9.6l10.592-10.592c.256-.256.491-.427.704-.512.214-.107.438-.16.672-.16.534 0 .918.16 1.152.48.235.32.32.704.256 1.152-.064.427-.266.821-.608 1.184l-8.16 8.192 8.32 11.328a1.7 1.7 0 0 1 .32 1.184 1.884 1.884 0 0 1-.448 1.056c-.256.277-.597.416-1.024.416-.597 0-1.056-.235-1.376-.704l-8.096-10.976-2.304 2.304v7.712c0 .469-.16.864-.48 1.184-.32.32-.714.48-1.184.48Zm30.68 0c-.448 0-.832-.16-1.152-.48a1.61 1.61 0 0 1-.48-1.184v-7.456l-8.544-13.28c-.277-.448-.384-.864-.32-1.248.064-.405.246-.725.544-.96.32-.256.683-.384 1.088-.384.363 0 .651.085.864.256.214.149.416.373.608.672l8.128 12.896h-1.28l8.256-13.024a1.74 1.74 0 0 1 .608-.576c.235-.149.523-.224.864-.224.384 0 .704.139.96.416.256.256.406.587.448.992.043.384-.064.779-.32 1.184l-8.608 13.28v7.456c0 .469-.16.864-.48 1.184-.32.32-.714.48-1.184.48Zm.16-27.744c-.469 0-.864-.149-1.184-.448-.298-.32-.448-.715-.448-1.184 0-.448.128-.811.384-1.088l3.136-3.136c.32-.32.704-.48 1.152-.48.491 0 .886.16 1.184.48.299.32.448.715.448 1.184 0 .213-.032.416-.096.608a1.164 1.164 0 0 1-.352.512l-3.104 3.104c-.298.299-.672.448-1.12.448ZM455.689 883c-.448 0-.843-.16-1.184-.48a1.61 1.61 0 0 1-.48-1.184v-21.664c0-.469.16-.864.48-1.184.341-.32.736-.48 1.184-.48.469 0 .864.16 1.184.48.32.32.48.715.48 1.184v9.6l10.592-10.592c.256-.256.491-.427.704-.512.213-.107.437-.16.672-.16.533 0 .917.16 1.152.48.235.32.32.704.256 1.152-.064.427-.267.821-.608 1.184l-8.16 8.192 8.32 11.328a1.7 1.7 0 0 1 .32 1.184 1.891 1.891 0 0 1-.448 1.056c-.256.277-.597.416-1.024.416-.597 0-1.056-.235-1.376-.704l-8.096-10.976-2.304 2.304v7.712c0 .469-.16.864-.48 1.184-.32.32-.715.48-1.184.48Zm21.888 0c-.598 0-1.056-.256-1.376-.768-.32-.512-.352-1.056-.096-1.632l8.992-21.472c.32-.747.842-1.12 1.568-1.12.768 0 1.29.373 1.568 1.12l9.024 21.536c.234.597.192 1.141-.128 1.632-.299.469-.758.704-1.376.704-.32 0-.63-.085-.928-.256a1.66 1.66 0 0 1-.608-.768l-7.936-19.712h.896l-8.064 19.712c-.15.341-.374.597-.672.768a1.627 1.627 0 0 1-.864.256Zm1.696-5.504 1.28-2.752h12.544l1.28 2.752h-15.104Zm32.932 5.824c-1.366 0-2.667-.213-3.904-.64-1.238-.427-2.315-1.024-3.232-1.792-.918-.768-1.59-1.653-2.016-2.656-.214-.448-.214-.864 0-1.248.234-.384.618-.629 1.152-.736a1.503 1.503 0 0 1 1.12.192c.384.192.672.491.864.896.256.533.672 1.024 1.248 1.472.597.448 1.312.811 2.144 1.088a8.25 8.25 0 0 0 2.624.416c1.024 0 1.962-.16 2.816-.48.874-.32 1.578-.779 2.112-1.376.533-.619.8-1.376.8-2.272 0-1.131-.448-2.144-1.344-3.04-.875-.896-2.326-1.451-4.352-1.664-2.646-.256-4.726-1.035-6.24-2.336-1.515-1.301-2.272-2.912-2.272-4.832 0-1.408.394-2.603 1.184-3.584.789-.981 1.856-1.728 3.2-2.24 1.365-.512 2.88-.768 4.544-.768 1.301 0 2.432.181 3.392.544a8.05 8.05 0 0 1 2.56 1.504 9.845 9.845 0 0 1 1.888 2.272c.298.469.416.917.352 1.344-.043.405-.246.725-.608.96a1.498 1.498 0 0 1-1.312.16 1.8 1.8 0 0 1-1.056-.832 5.73 5.73 0 0 0-1.248-1.568 5.314 5.314 0 0 0-1.728-.992c-.662-.256-1.44-.384-2.336-.384-1.579-.021-2.902.277-3.968.896-1.067.597-1.6 1.525-1.6 2.784 0 .64.16 1.259.48 1.856.341.576.949 1.077 1.824 1.504.896.427 2.176.725 3.84.896 2.538.256 4.512 1.035 5.92 2.336 1.429 1.28 2.144 2.976 2.144 5.088 0 1.216-.256 2.272-.768 3.168a6.85 6.85 0 0 1-2.016 2.272c-.832.597-1.792 1.045-2.88 1.344a12.273 12.273 0 0 1-3.328.448Zm-.128-27.808c-.32 0-.598-.085-.832-.256l-3.584-2.368c-.512-.384-.768-.843-.768-1.376 0-.427.256-.736.768-.928.533-.213 1.162-.064 1.888.448l2.528 1.696 2.528-1.696c.81-.555 1.45-.715 1.92-.48.49.213.736.533.736.96 0 .533-.256.992-.768 1.376l-3.552 2.368a1.52 1.52 0 0 1-.864.256ZM535.611 883c-.47 0-.864-.16-1.184-.48a1.61 1.61 0 0 1-.48-1.184v-23.328h3.328v23.328c0 .469-.16.864-.48 1.184-.32.32-.715.48-1.184.48Zm-8.576-21.92c-.448 0-.822-.139-1.12-.416-.278-.299-.416-.672-.416-1.12 0-.448.138-.811.416-1.088.298-.299.672-.448 1.12-.448h17.12c.448 0 .81.149 1.088.448.298.277.448.64.448 1.088 0 .448-.15.821-.448 1.12-.278.277-.64.416-1.088.416h-17.12ZM554.239 883a1.61 1.61 0 0 1-1.184-.48 1.61 1.61 0 0 1-.48-1.184v-21.664c0-.491.16-.885.48-1.184.32-.32.715-.48 1.184-.48.491 0 .885.16 1.184.48.32.299.48.693.48 1.184v21.664c0 .469-.16.864-.48 1.184-.299.32-.693.48-1.184.48Zm12.919 0c-.47 0-.864-.16-1.184-.48a1.61 1.61 0 0 1-.48-1.184v-21.664c0-.491.16-.885.48-1.184.32-.32.714-.48 1.184-.48h14.464c.49 0 .885.149 1.184.448.298.277.448.651.448 1.12 0 .448-.15.811-.448 1.088-.299.277-.694.416-1.184.416h-12.8v7.776h9.184c.49 0 .885.149 1.184.448.298.277.448.64.448 1.088 0 .448-.15.821-.448 1.12-.299.277-.694.416-1.184.416h-9.184v8h12.8c.49 0 .885.139 1.184.416.298.277.448.64.448 1.088 0 .469-.15.853-.448 1.152-.299.277-.694.416-1.184.416h-14.464Zm25.574 0a1.61 1.61 0 0 1-1.184-.48c-.299-.32-.448-.715-.448-1.184v-21.664c0-.469.16-.864.48-1.184.32-.32.704-.48 1.152-.48.469 0 .864.16 1.184.48.32.32.48.715.48 1.184v20h11.584c.469 0 .864.16 1.184.48.32.32.48.715.48 1.184s-.16.864-.48 1.184c-.32.32-.715.48-1.184.48h-13.248Zm7.296-16.096c-.277-.043-.491-.128-.64-.256-.128-.128-.181-.331-.16-.608.043-.384.213-.768.512-1.152.299-.405.597-.821.896-1.248.32-.448.512-.928.576-1.44.064-.448.043-.821-.064-1.12a9.94 9.94 0 0 0-.288-.864c-.107-.299-.16-.672-.16-1.12 0-.427.149-.757.448-.992a1.84 1.84 0 0 1 1.12-.352c.683 0 1.216.299 1.6.896.384.597.523 1.301.416 2.112a6.764 6.764 0 0 1-.608 2.24 9.715 9.715 0 0 1-1.152 2.016c-.448.597-.896 1.077-1.344 1.44-.448.341-.832.491-1.152.448Zm14.195 21.632c-.256 0-.458-.085-.608-.256a.937.937 0 0 1-.192-.576c0-.427.118-.8.352-1.12a9.12 9.12 0 0 0 .736-.992c.256-.363.384-.8.384-1.312 0-.363-.085-.661-.256-.896a4.032 4.032 0 0 0-.576-.64 4.628 4.628 0 0 1-.576-.704c-.17-.256-.256-.576-.256-.96 0-.576.192-1.056.576-1.44.384-.384.907-.576 1.568-.576.811 0 1.419.277 1.824.832.427.555.651 1.301.672 2.24 0 .683-.117 1.397-.352 2.144a8.612 8.612 0 0 1-.896 2.08c-.362.64-.757 1.163-1.184 1.568-.426.405-.832.608-1.216.608ZM255.228 931.32c-1.728 0-3.349-.32-4.864-.96a12.628 12.628 0 0 1-3.936-2.72 13.212 13.212 0 0 1-2.624-4.096c-.619-1.557-.928-3.243-.928-5.056 0-1.792.309-3.456.928-4.992.64-1.557 1.515-2.912 2.624-4.064a12.38 12.38 0 0 1 3.936-2.752c1.493-.661 3.115-.992 4.864-.992 1.643 0 3.051.213 4.224.64 1.195.427 2.389 1.131 3.584 2.112.171.128.299.267.384.416a.821.821 0 0 1 .192.416c.043.128.064.288.064.48 0 .405-.149.747-.448 1.024-.277.277-.629.427-1.056.448-.405.021-.789-.117-1.152-.416-.789-.683-1.611-1.205-2.464-1.568-.832-.363-1.941-.544-3.328-.544a8.372 8.372 0 0 0-3.552.768 9.574 9.574 0 0 0-2.944 2.112 9.842 9.842 0 0 0-1.952 3.136 10.078 10.078 0 0 0-.704 3.776c0 1.365.235 2.645.704 3.84a9.94 9.94 0 0 0 1.952 3.104 9.574 9.574 0 0 0 2.944 2.112 8.675 8.675 0 0 0 3.552.736 8.613 8.613 0 0 0 3.072-.544c.981-.384 1.92-.907 2.816-1.568.384-.277.757-.395 1.12-.352.384.021.704.171.96.448.256.256.384.619.384 1.088 0 .213-.043.427-.128.64a1.284 1.284 0 0 1-.384.544 12.018 12.018 0 0 1-3.68 2.112 12.879 12.879 0 0 1-4.16.672Zm8.352-3.968-3.2-.64v-5.728h-4.416c-.469 0-.864-.139-1.184-.416a1.335 1.335 0 0 1-.48-1.056c0-.427.16-.779.48-1.056.32-.277.715-.416 1.184-.416h5.984c.491 0 .885.16 1.184.48.299.299.448.693.448 1.184v7.648ZM273.767 931a1.61 1.61 0 0 1-1.184-.48 1.61 1.61 0 0 1-.48-1.184v-21.664c0-.491.16-.885.48-1.184.32-.32.715-.48 1.184-.48h5.76c1.6 0 3.019.341 4.256 1.024 1.237.661 2.197 1.579 2.88 2.752.704 1.173 1.056 2.539 1.056 4.096 0 1.451-.352 2.741-1.056 3.872-.683 1.131-1.643 2.016-2.88 2.656-1.237.64-2.656.96-4.256.96h-4.096v7.968c0 .469-.16.864-.48 1.184-.299.32-.693.48-1.184.48Zm13.28 0c-.299 0-.576-.064-.832-.192-.235-.128-.437-.331-.608-.608l-5.76-9.28 3.232-.928 5.248 8.448c.384.619.437 1.205.16 1.76-.277.533-.757.8-1.44.8Zm-11.616-12.704h4.096c.981 0 1.845-.181 2.592-.544a4.49 4.49 0 0 0 1.76-1.568c.427-.683.64-1.451.64-2.304 0-.939-.213-1.771-.64-2.496a4.486 4.486 0 0 0-1.76-1.696c-.747-.405-1.611-.608-2.592-.608h-4.096v9.216Zm31.643 13.024c-1.877 0-3.595-.309-5.152-.928-1.557-.64-2.901-1.525-4.032-2.656-1.109-1.152-1.973-2.507-2.592-4.064-.619-1.579-.928-3.307-.928-5.184 0-1.877.309-3.595.928-5.152s1.483-2.901 2.592-4.032a11.563 11.563 0 0 1 4.032-2.656c1.557-.64 3.275-.96 5.152-.96 1.877 0 3.584.32 5.12.96a11.563 11.563 0 0 1 4.032 2.656c1.131 1.131 2.005 2.475 2.624 4.032.619 1.557.928 3.275.928 5.152 0 1.877-.309 3.605-.928 5.184a12.125 12.125 0 0 1-2.624 4.064c-1.131 1.131-2.475 2.016-4.032 2.656-1.536.619-3.243.928-5.12.928Zm0-3.008c1.387 0 2.656-.245 3.808-.736a9.505 9.505 0 0 0 3.04-2.08 9.157 9.157 0 0 0 1.952-3.136c.469-1.195.704-2.485.704-3.872s-.235-2.677-.704-3.872a8.828 8.828 0 0 0-1.952-3.104 8.879 8.879 0 0 0-3.04-2.08c-1.152-.491-2.421-.736-3.808-.736s-2.667.245-3.84.736a8.954 8.954 0 0 0-3.008 2.08 9.47 9.47 0 0 0-1.952 3.104c-.469 1.195-.704 2.485-.704 3.872s.235 2.677.704 3.872a9.842 9.842 0 0 0 1.952 3.136 9.6 9.6 0 0 0 3.008 2.08c1.173.491 2.453.736 3.84.736Zm.128-25.056c-.469 0-.864-.149-1.184-.448-.299-.32-.448-.715-.448-1.184 0-.448.128-.811.384-1.088l3.136-3.136c.32-.32.704-.48 1.152-.48.491 0 .885.16 1.184.48.299.32.448.715.448 1.184 0 .213-.032.416-.096.608a1.164 1.164 0 0 1-.352.512l-3.104 3.104c-.299.299-.672.448-1.12.448ZM327.839 931c-.47 0-.864-.16-1.184-.48a1.61 1.61 0 0 1-.48-1.184v-21.664c0-.491.16-.885.48-1.184.32-.32.714-.48 1.184-.48h14.464c.49 0 .885.149 1.184.448.298.277.448.651.448 1.12 0 .448-.15.811-.448 1.088-.299.277-.694.416-1.184.416h-12.8v7.776h9.184c.49 0 .885.149 1.184.448.298.277.448.64.448 1.088 0 .448-.15.821-.448 1.12-.299.277-.694.416-1.184.416h-9.184v9.408c0 .469-.16.864-.48 1.184-.32.32-.715.48-1.184.48Zm31.488.32c-1.366 0-2.667-.213-3.904-.64-1.238-.427-2.315-1.024-3.232-1.792-.918-.768-1.59-1.653-2.016-2.656-.214-.448-.214-.864 0-1.248.234-.384.618-.629 1.152-.736a1.503 1.503 0 0 1 1.12.192c.384.192.672.491.864.896.256.533.672 1.024 1.248 1.472.597.448 1.312.811 2.144 1.088a8.25 8.25 0 0 0 2.624.416c1.024 0 1.962-.16 2.816-.48.874-.32 1.578-.779 2.112-1.376.533-.619.8-1.376.8-2.272 0-1.131-.448-2.144-1.344-3.04-.875-.896-2.326-1.451-4.352-1.664-2.646-.256-4.726-1.035-6.24-2.336-1.515-1.301-2.272-2.912-2.272-4.832 0-1.408.394-2.603 1.184-3.584.789-.981 1.856-1.728 3.2-2.24 1.365-.512 2.88-.768 4.544-.768 1.301 0 2.432.181 3.392.544a8.05 8.05 0 0 1 2.56 1.504 9.845 9.845 0 0 1 1.888 2.272c.298.469.416.917.352 1.344-.043.405-.246.725-.608.96a1.498 1.498 0 0 1-1.312.16 1.8 1.8 0 0 1-1.056-.832 5.73 5.73 0 0 0-1.248-1.568 5.314 5.314 0 0 0-1.728-.992c-.662-.256-1.44-.384-2.336-.384-1.579-.021-2.902.277-3.968.896-1.067.597-1.6 1.525-1.6 2.784 0 .64.16 1.259.48 1.856.341.576.949 1.077 1.824 1.504.896.427 2.176.725 3.84.896 2.538.256 4.512 1.035 5.92 2.336 1.429 1.28 2.144 2.976 2.144 5.088 0 1.216-.256 2.272-.768 3.168a6.85 6.85 0 0 1-2.016 2.272c-.832.597-1.792 1.045-2.88 1.344a12.273 12.273 0 0 1-3.328.448Zm18.959-.32c-.448 0-.843-.16-1.184-.48a1.61 1.61 0 0 1-.48-1.184v-21.664c0-.469.16-.864.48-1.184.341-.32.736-.48 1.184-.48.469 0 .864.16 1.184.48.32.32.48.715.48 1.184v9.6l10.592-10.592c.256-.256.491-.427.704-.512.213-.107.437-.16.672-.16.533 0 .917.16 1.152.48.235.32.32.704.256 1.152-.064.427-.267.821-.608 1.184l-8.16 8.192 8.32 11.328a1.7 1.7 0 0 1 .32 1.184 1.891 1.891 0 0 1-.448 1.056c-.256.277-.597.416-1.024.416-.597 0-1.056-.235-1.376-.704l-8.096-10.976-2.304 2.304v7.712c0 .469-.16.864-.48 1.184-.32.32-.715.48-1.184.48Zm24.544 0c-.47 0-.864-.16-1.184-.48a1.61 1.61 0 0 1-.48-1.184v-21.664c0-.491.16-.885.48-1.184.32-.32.714-.48 1.184-.48h14.464c.49 0 .885.149 1.184.448.298.277.448.651.448 1.12 0 .448-.15.811-.448 1.088-.299.277-.694.416-1.184.416h-12.8v7.776h9.184c.49 0 .885.149 1.184.448.298.277.448.64.448 1.088 0 .448-.15.821-.448 1.12-.299.277-.694.416-1.184.416h-9.184v8h12.8c.49 0 .885.139 1.184.416.298.277.448.64.448 1.088 0 .469-.15.853-.448 1.152-.299.277-.694.416-1.184.416H402.83Zm38.149 0a1.61 1.61 0 0 1-1.184-.48c-.299-.32-.448-.715-.448-1.184v-21.664c0-.491.149-.885.448-1.184.32-.32.715-.48 1.184-.48.512 0 .939.203 1.28.608l13.952 18.56v-17.504c0-.491.16-.885.48-1.184.32-.32.715-.48 1.184-.48.491 0 .885.16 1.184.48.299.299.448.693.448 1.184v21.664c0 .469-.149.864-.448 1.184-.299.32-.693.48-1.184.48-.213 0-.448-.043-.704-.128a1.503 1.503 0 0 1-.576-.448l-13.952-18.56v17.472c0 .469-.16.864-.48 1.184-.299.32-.693.48-1.184.48Zm27.138 0c-.597 0-1.056-.256-1.376-.768-.32-.512-.352-1.056-.096-1.632l8.992-21.472c.32-.747.843-1.12 1.568-1.12.768 0 1.291.373 1.568 1.12l9.024 21.536c.235.597.192 1.141-.128 1.632-.298.469-.757.704-1.376.704-.32 0-.629-.085-.928-.256a1.666 1.666 0 0 1-.608-.768l-7.936-19.712h.896l-8.064 19.712a1.585 1.585 0 0 1-.672.768 1.621 1.621 0 0 1-.864.256Zm1.696-5.504 1.28-2.752h12.544l1.28 2.752h-15.104Zm7.488-22.24c-.469 0-.864-.149-1.184-.448-.298-.32-.448-.715-.448-1.184 0-.448.128-.811.384-1.088l3.136-3.136c.32-.32.704-.48 1.152-.48.491 0 .886.16 1.184.48.299.32.448.715.448 1.184 0 .213-.032.416-.096.608a1.164 1.164 0 0 1-.352.512l-3.104 3.104c-.298.299-.672.448-1.12.448ZM496.473 931a1.61 1.61 0 0 1-1.184-.48 1.61 1.61 0 0 1-.48-1.184v-21.664c0-.491.16-.885.48-1.184.32-.32.715-.48 1.184-.48h5.792c1.835 0 3.499.309 4.992.928a11.187 11.187 0 0 1 3.936 2.592 11.402 11.402 0 0 1 2.56 3.936c.598 1.515.896 3.189.896 5.024s-.298 3.52-.896 5.056a11.747 11.747 0 0 1-2.56 3.968 11.822 11.822 0 0 1-3.936 2.592c-1.493.597-3.157.896-4.992.896h-5.792Zm1.664-2.944h4.128c1.792 0 3.371-.405 4.736-1.216a8.901 8.901 0 0 0 3.264-3.392c.79-1.451 1.184-3.104 1.184-4.96 0-1.877-.394-3.531-1.184-4.96a8.67 8.67 0 0 0-3.264-3.36c-1.365-.811-2.944-1.216-4.736-1.216h-4.128v19.104ZM531.335 931c-.682 0-1.184-.352-1.504-1.056l-9.376-21.44c-.298-.725-.33-1.323-.096-1.792.235-.469.683-.704 1.344-.704.747 0 1.259.331 1.536.992l8.224 19.744h-.352L539.495 907c.171-.384.363-.64.576-.768.235-.149.544-.224.928-.224.64 0 1.078.235 1.312.704.256.448.256.949 0 1.504l-9.472 21.728a1.95 1.95 0 0 1-.608.8c-.234.171-.533.256-.896.256Zm28.176.32c-1.877 0-3.594-.309-5.152-.928-1.557-.64-2.901-1.525-4.032-2.656-1.109-1.152-1.973-2.507-2.592-4.064-.618-1.579-.928-3.307-.928-5.184 0-1.877.31-3.595.928-5.152.619-1.557 1.483-2.901 2.592-4.032a11.563 11.563 0 0 1 4.032-2.656c1.558-.64 3.275-.96 5.152-.96 1.878 0 3.584.32 5.12.96a11.544 11.544 0 0 1 4.032 2.656c1.131 1.131 2.006 2.475 2.624 4.032.619 1.557.928 3.275.928 5.152 0 1.877-.309 3.605-.928 5.184a12.11 12.11 0 0 1-2.624 4.064c-1.13 1.131-2.474 2.016-4.032 2.656-1.536.619-3.242.928-5.12.928Zm0-3.008c1.387 0 2.656-.245 3.808-.736a9.494 9.494 0 0 0 3.04-2.08 9.142 9.142 0 0 0 1.952-3.136c.47-1.195.704-2.485.704-3.872s-.234-2.677-.704-3.872a8.814 8.814 0 0 0-1.952-3.104 8.87 8.87 0 0 0-3.04-2.08c-1.152-.491-2.421-.736-3.808-.736-1.386 0-2.666.245-3.84.736a8.964 8.964 0 0 0-3.008 2.08 9.487 9.487 0 0 0-1.952 3.104c-.469 1.195-.704 2.485-.704 3.872s.235 2.677.704 3.872a9.86 9.86 0 0 0 1.952 3.136 9.612 9.612 0 0 0 3.008 2.08c1.174.491 2.454.736 3.84.736ZM582.292 931a1.61 1.61 0 0 1-1.184-.48 1.61 1.61 0 0 1-.48-1.184v-21.664c0-.491.16-.885.48-1.184.32-.32.715-.48 1.184-.48h5.76c1.6 0 3.019.341 4.256 1.024 1.237.661 2.197 1.579 2.88 2.752.704 1.173 1.056 2.539 1.056 4.096 0 1.451-.352 2.741-1.056 3.872-.683 1.131-1.643 2.016-2.88 2.656-1.237.64-2.656.96-4.256.96h-4.096v7.968c0 .469-.16.864-.48 1.184-.299.32-.693.48-1.184.48Zm13.28 0c-.299 0-.576-.064-.832-.192-.235-.128-.437-.331-.608-.608l-5.76-9.28 3.232-.928 5.248 8.448c.384.619.437 1.205.16 1.76-.277.533-.757.8-1.44.8Zm-11.616-12.704h4.096c.981 0 1.845-.181 2.592-.544a4.49 4.49 0 0 0 1.76-1.568c.427-.683.64-1.451.64-2.304 0-.939-.213-1.771-.64-2.496a4.486 4.486 0 0 0-1.76-1.696c-.747-.405-1.611-.608-2.592-.608h-4.096v9.216ZM605.711 931a1.61 1.61 0 0 1-1.184-.48 1.61 1.61 0 0 1-.48-1.184v-21.664c0-.491.16-.885.48-1.184.32-.32.715-.48 1.184-.48.491 0 .885.16 1.184.48.32.299.48.693.48 1.184v21.664c0 .469-.16.864-.48 1.184-.299.32-.693.48-1.184.48Zm12.919 0c-.47 0-.864-.16-1.184-.48a1.61 1.61 0 0 1-.48-1.184v-21.664c0-.491.16-.885.48-1.184.32-.32.714-.48 1.184-.48h14.464c.49 0 .885.149 1.184.448.298.277.448.651.448 1.12 0 .448-.15.811-.448 1.088-.299.277-.694.416-1.184.416h-12.8v7.776h9.184c.49 0 .885.149 1.184.448.298.277.448.64.448 1.088 0 .448-.15.821-.448 1.12-.299.277-.694.416-1.184.416h-9.184v8h12.8c.49 0 .885.139 1.184.416.298.277.448.64.448 1.088 0 .469-.15.853-.448 1.152-.299.277-.694.416-1.184.416H618.63ZM554.22 615.079l-34.613-40.63a9.047 9.047 0 0 0-6.871-3.174h-59.817v-15.246c0-4.984-4.046-9.029-9.029-9.029h-27.462c-4.984 0-9.029 4.045-9.029 9.029v15.246h-76.747c-4.984 0-9.028 4.044-9.028 9.029v81.261a9.029 9.029 0 0 0 9.028 9.029h76.558v117.377a9.03 9.03 0 0 0 9.029 9.029h27.462a9.03 9.03 0 0 0 9.029-9.029V670.594h60.006a9.001 9.001 0 0 0 6.871-3.174l34.613-40.631a9.025 9.025 0 0 0 0-11.71ZM434.671 778.942h-9.404V672.757h9.404v106.185Zm-9.214-213.884h9.404v6.217h-9.404v-6.217Zm83.112 87.478H339.681v-63.204h168.888l26.916 31.602-26.916 31.602Z" fill="#445B89"/><path d="M357.24 631.308c-.392 0-.644-.364-.756-1.092a5.03 5.03 0 0 1-.084-.868v-.616a19.795 19.795 0 0 1-.084-1.792c-.075-1.717-.14-2.931-.196-3.64a9.75 9.75 0 0 0-.056-1.008 33.152 33.152 0 0 0-.084-.784v-8.848c0-.168.065-.271.196-.308h.168l.084.028c.653 0 1.512-.028 2.576-.084 1.419-.037 2.604-.056 3.556-.056h.28c.112.019.299.028.56.028h.784c.56 0 .999.009 1.316.028h2.884c.355.037.933.056 1.736.056.149 0 .261.009.336.028.149.037.317.056.504.056a.372.372 0 0 0 .224-.084c.429 0 .663.392.7 1.176.037.261.056.457.056.588 0 .112-.019.336-.056.672a25.32 25.32 0 0 0-.028 1.428c0 .205-.177.327-.532.364a2.73 2.73 0 0 1-.476.028H369.196l-.84.028c-.187.056-.476.084-.868.084s-.616-.009-.672-.028a1.067 1.067 0 0 0-.14.056c-.019.019-.037.028-.056.028a.244.244 0 0 1-.028.112.383.383 0 0 0-.028.168c-.019.131-.065.616-.14 1.456-.019.243-.028.672-.028 1.288l-.028.056c0 .075.037.159.112.252h3.36c.224 0 .383.028.476.084a.533.533 0 0 1 .252.308c.075.224.112.803.112 1.736v2.1c-.037.168-.093.28-.168.336-.056.056-.14.084-.252.084-.149 0-.289.019-.42.056l-1.26.084h-.56c-.28 0-.467.019-.56.056a2.955 2.955 0 0 1-.532.084h-.392c-.299 0-.504.037-.616.112-.093.019-.187.112-.28.28 0 1.699-.019 2.856-.056 3.472-.019.896-.112 1.549-.28 1.96-.336 0-.821.019-1.456.056-.299 0-.495.019-.588.056h-.336a.383.383 0 0 1-.168-.028.244.244 0 0 0-.112-.028l-.084-.028c0-.019-.037-.028-.112-.028a.44.44 0 0 0-.112.028.455.455 0 0 0-.112.084H359.9c-.019.019-.065.028-.14.028l-.252.084-1.708.196-.56.028Zm20.946-.28a.56.56 0 0 1-.364-.14 1.054 1.054 0 0 1-.252-.42 9.14 9.14 0 0 1-.168-1.12 4.073 4.073 0 0 1-.028-.532v-.364l.028-3.472c0-1.176.028-2.333.084-3.472v-8.848c0-.187.122-.28.364-.28 1.288 0 2.25-.009 2.884-.028h2.8a.306.306 0 0 0 .14-.028.31.31 0 0 1 .14-.028 5.451 5.451 0 0 1 1.008-.028c.318 0 .654.028 1.008.084.112.075.196.093.252.056a.926.926 0 0 0 .224-.056c.28 0 .495.019.644.056a.627.627 0 0 1 .392.252c.094.168.168.373.224.616.019.187.028.579.028 1.176v5.88a11.03 11.03 0 0 0-.028 1.008c0 .56-.018.999-.056 1.316l-.028 1.26c-.018.28-.028.635-.028 1.064l-.028.448v1.792c0 1.12-.046 2.072-.14 2.856 0 .261-.065.523-.196.784-.336 0-.821.019-1.456.056-.298 0-.494.019-.588.056H384.682c-.13 0-.196-.019-.196-.056a2.376 2.376 0 0 0-.252-.056l-.224.112h-2.576c-.018.019-.168.028-.448.028h-2.1l-.7.028Zm18.997.056a1.77 1.77 0 0 1-.476-.056h-1.26l-1.26-.308-.084-.224c-.018 0-.028-.103-.028-.308a29.637 29.637 0 0 1-.056-1.932c0-.523-.018-.943-.056-1.26 0-.523-.009-.915-.028-1.176v-.98a31.868 31.868 0 0 1-.168-2.828 171.192 171.192 0 0 1-.028-2.996l.056-2.856c.019-.317.028-.803.028-1.456 0-.653-.009-1.139-.028-1.456-.056-.429.066-.747.364-.952.187-.093.514-.14.98-.14.691 0 1.578-.019 2.66-.056l.616-.056c1.12-.075 1.82-.112 2.1-.112.262 0 .448.009.56.028.262.019.439.056.532.112a.734.734 0 0 1 .252.28c.094.131.159.233.196.308.224.299.448.616.672.952.336.504.607.896.812 1.176l1.848 2.828.896 1.344c0-.485.019-.868.056-1.148v-2.604l.084-1.988a1.99 1.99 0 0 1 .056-.308c.019-.056.047-.093.084-.112a3.23 3.23 0 0 0 .084-.084c.224-.187.448-.327.672-.42.187-.037.336-.056.448-.056H409.699c.15.019.411.028.784.028.411 0 .738.009.98.028h2.072c.486 0 .812.075.98.224.206.149.308.476.308.98l-.028.28-.028.448a2.925 2.925 0 0 0-.028.448v.56l.056.28v.896c-.018.317-.028.859-.028 1.624v2.072a58.382 58.382 0 0 0-.028 2.044v7l-.112 1.064c-.074.429-.224.691-.448.784l-.476.028-.476-.028h-5.04a2.423 2.423 0 0 1-1.092-.14 2.585 2.585 0 0 1-.56-.364l-2.856-4.004c0-.019-.205-.364-.616-1.036a9.693 9.693 0 0 0-.42-.588.416.416 0 0 0-.14-.168c-.037-.056-.065-.084-.084-.084-.168 0-.252.075-.252.224v.616c-.018.187-.028.495-.028.924v2.156a5.283 5.283 0 0 0-.056.84v.98l.028.14c0 .149-.074.243-.224.28-.093.075-.242.093-.448.056-.634.037-1.138.075-1.512.112-.224.019-.616.047-1.176.084-.56.037-1.082.056-1.568.056Zm28.226-.056c-.262 0-.458-.177-.588-.532-.28-.616-.42-1.736-.42-3.36 0-1.568.028-3.369.084-5.404.018-.653.028-1.661.028-3.024l-.084-.112h-3.108c-.243 0-.439-.131-.588-.392-.131-.28-.234-.663-.308-1.148-.094-.56-.14-1.363-.14-2.408v-.392c0-.187.009-.336.028-.448V613.136c0-.112.056-.205.168-.28a.967.967 0 0 1 .392-.196c.186-.056.466-.084.84-.084h2.128c.466 0 .821.009 1.064.028l1.036.028h10.08c.728 0 1.204.009 1.428.028.093.019.224.037.392.056.168.019.289.056.364.112.13.056.205.131.224.224.037.075.056.196.056.364v4.62c0 .205-.084.345-.252.42a1.47 1.47 0 0 1-.448.056h-1.82c-.43 0-.756-.019-.98-.056h-.84c-.168 0-.262.037-.28.112 0 .019-.01.047-.028.084-.019.019-.028.047-.028.084V620.108c0 .28-.01.495-.028.644 0 .541-.038 1.727-.112 3.556l-.056.84a34.809 34.809 0 0 1-.112 1.708v2.66c0 .635-.131 1.036-.392 1.204a3.91 3.91 0 0 1-.504.168l-.7.028c-.728 0-1.242.019-1.54.056l-2.94.028c-.374.019-1.046.028-2.016.028Zm19.31 0a.559.559 0 0 1-.364-.14 1.054 1.054 0 0 1-.252-.42 8.77 8.77 0 0 1-.168-1.12 3.903 3.903 0 0 1-.028-.532v-.364l.028-3.472c0-1.176.028-2.333.084-3.472v-8.848c0-.187.121-.28.364-.28 1.288 0 2.249-.009 2.884-.028h2.8a.306.306 0 0 0 .14-.028.306.306 0 0 1 .14-.028 5.451 5.451 0 0 1 1.008-.028c.317 0 .653.028 1.008.084.112.075.196.093.252.056a.937.937 0 0 0 .224-.056c.28 0 .495.019.644.056a.627.627 0 0 1 .392.252c.093.168.168.373.224.616.019.187.028.579.028 1.176v5.88c-.019.149-.028.485-.028 1.008 0 .56-.019.999-.056 1.316l-.028 1.26c-.019.28-.028.635-.028 1.064l-.028.448v1.792c0 1.12-.047 2.072-.14 2.856 0 .261-.065.523-.196.784-.336 0-.821.019-1.456.056-.299 0-.495.019-.588.056H451.215c-.131 0-.196-.019-.196-.056a2.376 2.376 0 0 0-.252-.056l-.224.112h-2.576c-.019.019-.168.028-.448.028h-2.1l-.7.028Zm25.073.644c-1.232 0-2.258-.056-3.08-.168-1.064-.149-2.025-.42-2.884-.812l-.504-.252a8.972 8.972 0 0 1-.532-.364 7.111 7.111 0 0 1-1.512-1.764c-.317-.336-.606-.803-.868-1.4-.504-1.307-.756-2.865-.756-4.676 0-2.128.439-3.995 1.316-5.6.766-1.531 1.783-2.725 3.052-3.584 1.288-.877 2.744-1.372 4.368-1.484l.336-.028h.364c1.456 0 3.024.299 4.704.896.15.075.476.224.98.448a9.95 9.95 0 0 1 1.4.756l-.504 3.64-1.652-.42a6.957 6.957 0 0 0-1.68-.224c-1.045 0-1.829.392-2.352 1.176-.56.821-.84 2.156-.84 4.004 0 .597.028 1.017.084 1.26.075 1.176.336 2.044.784 2.604.43.485.943.728 1.54.728.56 0 1.186-.177 1.876-.532a14.2 14.2 0 0 0 1.96-1.148l.28 4.592c-.728.672-1.661 1.241-2.8 1.708-1.082.429-2.109.644-3.08.644ZM484.15 631c-.093 0-.233-.009-.42-.028a5.624 5.624 0 0 0-.672-.084l-.588-.14a1.955 1.955 0 0 1-.224-.056c-.037-.037-.047-.065-.028-.084 0-.485-.028-1.129-.084-1.932 0-.28-.009-.523-.028-.728a14.009 14.009 0 0 0-.056-.56l-.056-1.204c0-.317-.019-.719-.056-1.204l-.028-.868c0-.709-.009-1.26-.028-1.652a65.576 65.576 0 0 1-.028-2.464c0-1.176.009-2.389.028-3.64.019-1.251.075-2.436.168-3.556 0-.205.224-.373.672-.504.28-.037.747-.056 1.4-.056 1.512 0 2.623-.028 3.332-.084 2.203-.037 3.864-.056 4.984-.056h1.232c1.531.037 2.707.093 3.528.168.299 0 .513.355.644 1.064.056.131.121.467.196 1.008.056.28.131.625.224 1.036a.997.997 0 0 1 0 .336v.168c-.019.187-.121.28-.308.28a1.477 1.477 0 0 0-.336-.028c-.784 0-1.745.065-2.884.196l-1.484.112c-.616.075-1.101.121-1.456.14-.056 0-.131.112-.224.336-.075.243-.159.803-.252 1.68l-.056.7c0 .243.028.401.084.476.056.056.177.084.364.084h2.492c.728 0 1.559.047 2.492.14h.336c.243.056.392.149.448.28a.87.87 0 0 1 .14.364l.112 2.492v.084c0 .317-.336.504-1.008.56-.392.093-1.139.14-2.24.14-.952 0-1.568-.009-1.848-.028-.541 0-.868.009-.98.028-.205.056-.336.168-.392.336-.056.149-.084.411-.084.784 0 .243-.019.588-.056 1.036-.019.224-.028.579-.028 1.064 1.213 0 2.109-.019 2.688-.056.635-.056 1.531-.084 2.688-.084.075 0 .149.065.224.196.093.187.243.607.448 1.26.112.373.224.84.336 1.4.037.131.056.271.056.42 0 .392-.187.588-.56.588-.485 0-1.139.019-1.96.056-.429.037-1.101.056-2.016.056-1.96 0-3.435.009-4.424.028h-4.424Z" fill="#445B89"/><defs><clipPath id="a"><path fill="#fff" transform="translate(329 1606.5)" d="M0 0h220v219H0z"/></clipPath></defs></svg>
