<?xml version="1.0" standalone="no"?>
<!DOCTYPE svg PUBLIC "-//W3C//DTD SVG 20010904//EN"
 "http://www.w3.org/TR/2001/REC-SVG-20010904/DTD/svg10.dtd">
<svg version="1.0" xmlns="http://www.w3.org/2000/svg"
 width="700.000000pt" height="700.000000pt" viewBox="0 0 700.000000 700.000000"
 preserveAspectRatio="xMidYMid meet">
<metadata>
Created by potrace 1.14, written by Peter Selinger 2001-2017
</metadata>
<g transform="translate(0.000000,700.000000) scale(0.100000,-0.100000)"
fill="#000000" stroke="none">
<path d="M3730 6638 c-36 -4 -83 -10 -105 -13 -22 -3 -53 -8 -68 -10 -133 -19
-442 -114 -623 -191 -151 -64 -202 -90 -464 -234 -41 -22 -183 -94 -315 -160
-363 -179 -648 -286 -924 -346 -338 -73 -602 -228 -772 -454 -129 -171 -183
-356 -150 -510 26 -121 62 -169 276 -370 73 -68 105 -102 186 -197 47 -54 129
-185 173 -278 85 -177 124 -348 120 -530 -2 -131 -7 -160 -41 -285 -53 -193
-156 -373 -315 -550 -72 -80 -88 -100 -125 -158 -82 -128 -126 -271 -126 -412
-1 -115 8 -167 42 -267 111 -322 417 -565 781 -621 82 -12 302 -6 442 13 166
23 545 23 658 0 14 -3 51 -10 83 -16 241 -43 467 -171 718 -405 125 -117 135
-125 203 -168 115 -74 266 -133 411 -161 111 -21 331 -27 455 -12 321 39 634
186 837 394 119 122 173 210 262 425 195 474 393 706 716 842 161 68 197 86
259 127 215 145 345 386 344 638 -1 161 -63 337 -168 471 -115 147 -173 251
-199 355 -20 81 -21 86 -21 165 0 231 66 432 270 820 27 52 50 102 50 111 0 8
4 19 8 25 27 32 59 189 60 295 2 220 -84 394 -253 514 -156 111 -304 146 -635
149 -242 3 -320 15 -457 72 -165 68 -333 192 -524 387 -389 398 -431 435 -547
482 -146 59 -342 83 -522 63z m10 -1043 c519 -30 1014 -252 1388 -624 220
-218 383 -465 496 -749 34 -85 81 -229 90 -277 3 -11 9 -42 16 -70 6 -27 13
-63 15 -80 5 -34 14 -96 22 -140 9 -54 10 -358 1 -430 -4 -39 -10 -86 -12
-105 -8 -69 -18 -117 -47 -232 -76 -310 -230 -611 -438 -863 -61 -73 -273
-276 -350 -335 -173 -131 -395 -252 -585 -319 -90 -32 -247 -76 -306 -86 -192
-34 -252 -39 -435 -39 -157 -1 -276 9 -385 29 -19 4 -46 9 -60 12 -44 7 -132
31 -210 56 -259 84 -501 214 -710 381 -89 71 -253 233 -305 300 -16 21 -40 50
-53 65 -49 57 -159 232 -217 346 -155 304 -238 643 -238 975 1 94 10 256 17
295 2 11 9 54 16 95 29 182 98 395 189 580 31 63 101 190 113 205 4 5 25 35
45 65 242 363 625 661 1059 823 67 25 245 75 309 86 33 6 71 13 85 16 57 10
111 15 220 21 63 4 117 8 119 10 2 2 13 2 25 -1 12 -2 68 -7 126 -10z"/>
<path d="M3410 5338 c-153 -15 -316 -52 -465 -105 -512 -182 -932 -588 -1136
-1095 -37 -92 -94 -287 -105 -363 -3 -16 -7 -41 -9 -55 -26 -156 -26 -460 0
-590 3 -14 8 -45 11 -70 3 -25 8 -48 10 -51 2 -3 6 -20 9 -38 13 -73 90 -284
144 -396 49 -99 176 -306 200 -325 3 -3 19 -23 35 -45 78 -106 404 -395 445
-395 6 0 11 -4 11 -10 0 -5 5 -10 11 -10 6 0 23 -8 37 -19 49 -34 231 -122
327 -156 134 -49 283 -85 410 -100 28 -4 61 -8 75 -11 35 -6 282 -5 355 1 400
34 805 211 1108 485 280 253 484 585 572 930 9 36 20 81 25 100 10 36 29 163
36 235 5 51 5 291 0 330 -2 17 -7 57 -10 90 -10 88 -54 276 -87 374 -45 128
-159 353 -237 466 -82 118 -204 258 -292 335 -95 82 -223 180 -237 180 -7 0
-13 5 -13 10 0 6 -6 10 -14 10 -8 0 -16 3 -18 8 -17 38 -429 214 -553 235 -16
3 -65 13 -108 21 -144 29 -378 39 -537 24z"/>
<path d="M6154 1375 c-217 -49 -410 -265 -418 -470 -10 -235 157 -376 382
-325 181 42 438 268 492 433 56 173 -58 329 -269 367 -69 12 -115 11 -187 -5z"/>
</g>
</svg>
