<svg width="512" height="512" fill="none" xmlns="http://www.w3.org/2000/svg"><path d="M283.406 26c-31.262-.124-67.23 14.174-87.406 24.813-14.187 7.48-63.924 37.248-106.594 45.5-55.05 10.643-86.878 63.63-54.594 90.156 53.676 44.1 55.533 101.236 15.844 143.186-43.832 46.33 1.16 113.166 63.844 105.625 62.685-7.54 89.117.543 121.03 32.44 41.408 41.38 131.457 24.757 153.595-32.595 10.275-26.614 24.304-56.372 58.594-68.563 40.316-14.328 52.335-59.373 26.217-90.625-19.376-23.183-21.61-47.184 4.875-95.468 21.756-39.664 4.657-83.827-55.937-80.44-45.002 2.515-64.425-27.456-97.156-59.374C314.866 30.075 299.78 26.066 283.405 26h.001Zm-20.312 76.188c87.992 0 159.53 71.508 159.53 159.5 0 87.994-71.538 159.53-159.53 159.53s-159.53-71.536-159.53-159.53c0-87.995 71.538-159.5 159.53-159.5Zm0 18.687c-77.892 0-140.813 62.918-140.813 140.813 0 77.894 62.922 140.843 140.814 140.843 77.89 0 140.844-62.948 140.844-140.842 0-77.892-62.953-140.813-140.844-140.813l-.001-.001ZM457 410.5c-7.208.234-14.82 2.62-21.5 7.688-34.04 25.825-9.88 74.987 31.938 40.437 32.292-26.678 13.11-48.89-10.438-48.125Z" fill="#D7A31A"/><path d="m255.39 265.16.102.034c.375.124.73.24.964.75a.112.112 0 0 0 .024.033.103.103 0 0 0 .035.02.09.09 0 0 0 .076-.014c.172-.123.334-.234.489-.34.323-.222.602-.413.868-.636a16.591 16.591 0 0 0 2.603-2.678c1.016-1.333 2.067-2.712 3.055-4.155.619-.903 1.147-1.911 1.593-2.785a7.49 7.49 0 0 0 .778-2.872c.121-1.656-.238-3.149-1.068-4.437-.924-1.433-2.152-2.131-3.648-2.077-1.688.062-3.173.769-4.412 2.101-.061.068-.116.14-.167.217-.096.137-.188.268-.326.32-1.446-1.544-2.552-2.147-4.206-2.302-1.697-.159-3.072.439-4.085 1.777a12.893 12.893 0 0 0-1.315 2.135c-.793 1.626-.958 3.356-.491 5.142a13.337 13.337 0 0 0 2.048 4.387c1.87 2.614 4.253 4.424 7.083 5.38ZM172.392 277.496a22.25 22.25 0 0 1-2.88-.192c-2.688-.341-4.672-1.131-5.952-2.368-1.237-1.237-1.856-2.581-1.856-4.032 0-1.579.704-3.008 2.112-4.288 1.408-1.323 3.392-1.984 5.952-1.984 1.707 0 3.563.341 5.568 1.024 1.109.384 2.432 1.024 3.968 1.92a83.105 83.105 0 0 0 5.312 2.816c2.133-2.048 4.075-4.587 5.824-7.616a168.898 168.898 0 0 0 5.312-9.728 212.933 212.933 0 0 1 5.76-10.496 64.955 64.955 0 0 1 7.232-9.856l3.712-4.16a57.799 57.799 0 0 0-4.928-.576 53.293 53.293 0 0 0-5.312-.256c-2.304 0-4.672.128-7.104.384a61.389 61.389 0 0 0-7.296 1.088c-4.011.853-7.403 2.219-10.176 4.096-2.773 1.877-4.885 3.925-6.336 6.144-1.408 2.176-2.112 4.224-2.112 6.144 0 1.323.363 2.517 1.088 3.584.768 1.024 1.899 1.771 3.392 2.24a9.436 9.436 0 0 0 2.88.448c1.451 0 2.731-.299 3.84-.896s2.048-1.323 2.816-2.176c.768-.896 1.323-1.749 1.664-2.56.384-.811.555-1.408.512-1.792 0-.299.213-.448.64-.448.427 0 .64.32.64.96v.064c0 1.749-.533 3.264-1.6 4.544-1.067 1.28-2.411 2.261-4.032 2.944-1.579.683-3.179 1.024-4.8 1.024-1.024 0-2.091-.171-3.2-.512-2.304-.811-4.011-1.984-5.12-3.52-1.109-1.579-1.664-3.307-1.664-5.184 0-1.749.469-3.541 1.408-5.376.981-1.877 2.411-3.648 4.288-5.312 1.877-1.707 4.203-3.179 6.976-4.416 2.816-1.237 6.059-2.112 9.728-2.624a69.26 69.26 0 0 1 5.824-.64 83.765 83.765 0 0 1 5.568-.192c2.475 0 4.885.128 7.232.384 2.389.213 4.629.555 6.72 1.024.597-.512 1.195-.96 1.792-1.344a13.54 13.54 0 0 1 1.728-.896c.299-.128.555-.213.768-.256.213-.043.384-.064.512-.064.256 0 .384.085.384.256 0 .213-.32.555-.96 1.024-.427.299-.832.64-1.216 1.024-.384.341-.619.597-.704.768 4.352 1.109 7.872 2.645 10.56 4.608 2.731 1.92 4.096 4.203 4.096 6.848 0 1.365-.448 2.859-1.344 4.48-.939 1.579-2.24 2.859-3.904 3.84a21.23 21.23 0 0 1-5.312 2.112c-1.877.427-3.627.683-5.248.768 1.408.427 2.944 1.067 4.608 1.92a21.322 21.322 0 0 1 4.672 3.008c1.451 1.195 2.411 2.603 2.88 4.224a11.13 11.13 0 0 1 .448 3.136c0 2.261-.661 4.309-1.984 6.144-1.28 1.835-3.008 3.413-5.184 4.736-2.133 1.28-4.48 2.261-7.04 2.944-2.56.725-5.099 1.088-7.616 1.088a22.25 22.25 0 0 1-2.88-.192c-4.096-.512-7.488-1.152-10.176-1.92-2.645-.768-4.971-1.621-6.976-2.56-4.139 3.115-8.64 4.672-13.504 4.672Zm32.64-1.856c2.645 0 5.056-.405 7.232-1.216 2.176-.811 4.053-1.877 5.632-3.2 1.621-1.323 2.859-2.795 3.712-4.416.896-1.621 1.344-3.221 1.344-4.8 0-1.493-.448-2.944-1.344-4.352-.896-1.408-2.304-2.581-4.224-3.52a31.661 31.661 0 0 0-5.184-1.984 305.679 305.679 0 0 0-4.544-1.408c-1.28-.427-2.027-.853-2.24-1.28 0-.512.213-.853.64-1.024.469-.213 1.067-.32 1.792-.32.853 0 1.877.064 3.072.192s2.453.192 3.776.192c1.365 0 2.752-.299 4.16-.896a15.964 15.964 0 0 0 3.968-2.496c1.195-1.067 2.155-2.219 2.88-3.456.768-1.28 1.152-2.581 1.152-3.904 0-1.195-.405-2.368-1.216-3.52-.811-1.152-2.155-2.155-4.032-3.008a32.841 32.841 0 0 0-6.08-2.048c-2.133 2.944-4.267 6.251-6.4 9.92a851.038 851.038 0 0 0-6.4 11.072 215.44 215.44 0 0 1-6.464 10.56c-2.176 3.328-4.352 6.187-6.528 8.576-.512.555-.917.981-1.216 1.28-.299.256-.704.619-1.216 1.088 2.005.811 4.288 1.579 6.848 2.304 2.56.725 5.483 1.237 8.768 1.536.341.043.683.064 1.024.064.384.043.747.064 1.088.064Zm-33.92-.128c2.389.128 4.565-.149 6.528-.832a21.31 21.31 0 0 0 5.568-3.008l-4.608-2.24a39.929 39.929 0 0 0-4.928-2.176c-1.237-.427-2.368-.64-3.392-.64-1.579 0-2.773.427-3.584 1.28-.811.811-1.216 1.749-1.216 2.816 0 1.109.469 2.176 1.408 3.2.939.981 2.347 1.515 4.224 1.6ZM360.44 275.44c-.56-.075-1.325-.224-2.296-.448-.971-.187-1.96-.579-2.968-1.176s-1.867-1.512-2.576-2.744c-.709-1.195-1.064-2.8-1.064-4.816 0-2.315.467-4.853 1.4-7.616a99.835 99.835 0 0 1 3.528-8.736 445.134 445.134 0 0 0 3.976-8.96c1.008-2.352 1.512-4.144 1.512-5.376 0-1.232-.467-1.848-1.4-1.848-1.045 0-2.613.84-4.704 2.52-2.053 1.643-4.443 4.144-7.168 7.504-.709.896-1.624 2.147-2.744 3.752a155.5 155.5 0 0 0-3.584 5.264 223.075 223.075 0 0 0-3.752 5.824 177.773 177.773 0 0 0-3.192 5.376c-.896 1.643-1.549 2.949-1.96 3.92-.485 1.157-1.045 1.941-1.68 2.352-.635.448-1.232.672-1.792.672-.485 0-.915-.131-1.288-.392-.336-.261-.504-.579-.504-.952 0-.224.056-.411.168-.56.224-.448.821-1.531 1.792-3.248.971-1.717 2.072-3.995 3.304-6.832 1.232-2.875 2.408-6.197 3.528-9.968 1.157-3.808 2.016-8.008 2.576-12.6.075-.523.112-1.083.112-1.68 0-1.307-.224-2.259-.672-2.856-.448-.635-1.045-.952-1.792-.952-.821 0-1.755.355-2.8 1.064-1.045.709-2.109 1.736-3.192 3.08a143.241 143.241 0 0 0-4.928 6.552 90.259 90.259 0 0 0-3.92 5.936 138.268 138.268 0 0 0-3.472 6.328c-1.12 2.24-2.315 4.76-3.584 7.56a1260.487 1260.487 0 0 0-4.368 9.632c-.261.597-.709 1.027-1.344 1.288-.597.261-1.157.392-1.68.392-.523 0-.952-.112-1.288-.336-.336-.224-.448-.541-.336-.952.971-1.493 2.016-3.379 3.136-5.656 1.12-2.277 2.24-4.76 3.36-7.448a138.874 138.874 0 0 0 3.192-8.232c1.008-2.8 1.867-5.432 2.576-7.896.709-2.501 1.195-4.667 1.456-6.496.075-.597.131-1.157.168-1.68.037-.523.056-1.027.056-1.512 0-2.875-.616-4.928-1.848-6.16-1.195-1.232-2.744-1.848-4.648-1.848-1.605 0-3.36.373-5.264 1.12-1.867.709-3.771 1.699-5.712 2.968a40.126 40.126 0 0 0-5.488 4.424 34.656 34.656 0 0 0-4.648 5.32c-1.344 1.867-2.371 3.771-3.08 5.712a30.71 30.71 0 0 0-1.12 3.976 19.456 19.456 0 0 0-.336 3.472c0 2.091.373 3.864 1.12 5.32.784 1.456 1.811 2.557 3.08 3.304a8.327 8.327 0 0 0 4.2 1.12c.523 0 1.101-.056 1.736-.168a17.318 17.318 0 0 0 1.68-.448c1.083-.411 2.128-1.045 3.136-1.904a16.428 16.428 0 0 0 2.688-3.08 16.82 16.82 0 0 0 1.848-3.528c.448-1.195.672-2.315.672-3.36 0-1.083-.299-1.979-.896-2.688-.597-.709-1.549-1.064-2.856-1.064-.149 0-.317.019-.504.056h-.672c-.261 0-.504-.037-.728-.112-.224-.112-.336-.243-.336-.392 0-.149.187-.317.56-.504.411-.187 1.139-.28 2.184-.28 1.68 0 2.931.504 3.752 1.512.859.971 1.288 2.221 1.288 3.752 0 1.381-.373 2.875-1.12 4.48-.747 1.605-1.867 3.136-3.36 4.592-1.493 1.456-3.379 2.651-5.656 3.584-1.344.523-2.651.784-3.92.784-1.867 0-3.64-.467-5.32-1.4-1.68-.971-3.043-2.333-4.088-4.088-1.045-1.792-1.568-3.901-1.568-6.328 0-1.083.112-2.221.336-3.416a20.457 20.457 0 0 1 1.232-3.808 30.579 30.579 0 0 1 4.984-7.952 37.925 37.925 0 0 1 7.056-6.384c2.576-1.829 5.189-3.248 7.84-4.256s5.115-1.512 7.392-1.512c2.763 0 5.04.821 6.832 2.464 1.829 1.643 2.744 4.293 2.744 7.952 0 .261-.019.616-.056 1.064 0 .411-.019.728-.056.952a34.507 34.507 0 0 1-1.176 5.712 72.804 72.804 0 0 1-1.736 5.488 7.151 7.151 0 0 0-.28.952 6.069 6.069 0 0 0-.056.616c0 .187.037.28.112.28.149 0 .448-.392.896-1.176a190.74 190.74 0 0 1 2.296-4.088 55.343 55.343 0 0 1 2.072-3.248c.672-.971 1.4-1.96 2.184-2.968.784-1.008 1.68-2.128 2.688-3.36 1.157-1.381 2.483-2.483 3.976-3.304 1.493-.821 2.931-1.232 4.312-1.232 1.232 0 2.277.411 3.136 1.232s1.288 2.221 1.288 4.2v.56c0 .149-.019.373-.056.672a51.637 51.637 0 0 1-2.128 10.584 836.886 836.886 0 0 1-3.36 10.416c1.157-1.792 2.725-4.069 4.704-6.832a208.358 208.358 0 0 1 6.496-8.568c2.875-3.584 5.544-6.272 8.008-8.064 2.464-1.792 4.499-2.688 6.104-2.688 2.016 0 3.024 1.232 3.024 3.696 0 .933-.187 2.053-.56 3.36-.336 1.307-.877 2.688-1.624 4.144a231.905 231.905 0 0 0-2.744 5.712 113.684 113.684 0 0 0-2.8 6.72 67.881 67.881 0 0 0-2.24 6.944c-.56 2.24-.84 4.312-.84 6.216 0 2.053.467 3.715 1.4 4.984.971 1.307 2.632 1.923 4.984 1.848h.336c.56 0 .84.112.84.336 0 .149-.187.299-.56.448-.373.149-.896.187-1.568.112Z" fill="#F1F1E6"/></svg>
