<svg width="500" height="500" viewBox="0 0 500 500" fill="none" xmlns="http://www.w3.org/2000/svg">
<path d="M500 0H0V500H500V0Z" fill="white"/>
<path d="M151.515 32.1212L164.848 30.303L166.667 43.6363L153.333 45.4545L151.515 32.1212Z" fill="#445B89"/>
<path d="M168.939 31.0605L167.424 43.1818L179.545 44.6969L181.06 32.5757L168.939 31.0605Z" fill="#445B89"/>
<path d="M196.97 32.5757L209.849 30.303L212.121 43.1818L199.242 45.4545L196.97 32.5757Z" fill="#445B89"/>
<path d="M227.273 32.1212L240.606 30.303L242.424 43.6363L229.091 45.4545L227.273 32.1212Z" fill="#445B89"/>
<path d="M243.636 30.9091L243.03 44.2424L256.364 44.8484L256.97 31.5151L243.636 30.9091Z" fill="#445B89"/>
<path d="M260.909 30.303L257.576 42.1212L269.394 45.4545L272.727 33.6363L260.909 30.303Z" fill="#445B89"/>
<path d="M287.879 32.5757L300.757 30.303L303.03 43.1818L290.151 45.4545L287.879 32.5757Z" fill="#445B89"/>
<path d="M152.727 46.0605L152.121 59.3939L165.454 59.9999L166.06 46.6666L152.727 46.0605Z" fill="#445B89"/>
<path d="M181.818 47.7272L194.697 45.4545L196.97 58.3333L184.091 60.606L181.818 47.7272Z" fill="#445B89"/>
<path d="M228.485 46.0605L227.879 59.3939L241.212 59.9999L241.818 46.6666L228.485 46.0605Z" fill="#445B89"/>
<path d="M243.636 46.0605L243.03 59.3939L256.364 59.9999L256.97 46.6666L243.636 46.0605Z" fill="#445B89"/>
<path d="M257.576 48.0302L270.151 45.4545L272.727 58.0302L260.151 60.606L257.576 48.0302Z" fill="#445B89"/>
<path d="M318.939 49.2423L329.546 46.212L332.576 56.8181L321.97 59.8484L318.939 49.2423Z" fill="#445B89"/>
<path d="M335.606 46.212L334.091 58.3332L346.212 59.8484L347.727 47.7272L335.606 46.212Z" fill="#445B89"/>
<path d="M153.485 60.606L151.515 73.7878L164.697 75.7575L166.667 62.5757L153.485 60.606Z" fill="#445B89"/>
<path d="M170 60.606L166.667 72.4241L178.485 75.7575L181.818 63.9393L170 60.606Z" fill="#445B89"/>
<path d="M229.242 60.606L227.273 73.7878L240.455 75.7575L242.424 62.5757L229.242 60.606Z" fill="#445B89"/>
<path d="M243.636 61.212L243.03 74.5454L256.364 75.1514L256.97 61.8181L243.636 61.212Z" fill="#445B89"/>
<path d="M303.03 62.8787L315.909 60.606L318.182 73.4847L305.303 75.7575L303.03 62.8787Z" fill="#445B89"/>
<path d="M166.667 77.2727L180.303 75.7576L181.818 89.3939L168.182 90.9091L166.667 77.2727Z" fill="#445B89"/>
<path d="M197.727 79.5454L208.333 76.5151L211.364 87.1212L200.758 90.1515L197.727 79.5454Z" fill="#445B89"/>
<path d="M214.394 76.5151L212.879 88.6364L225 90.1515L226.515 78.0303L214.394 76.5151Z" fill="#445B89"/>
<path d="M244.394 75.7576L242.424 88.9394L255.606 90.9091L257.576 77.7273L244.394 75.7576Z" fill="#445B89"/>
<path d="M260.909 75.7576L257.576 87.5758L269.394 90.9091L272.727 79.0909L260.909 75.7576Z" fill="#445B89"/>
<path d="M287.879 78.0303L300.757 75.7576L303.03 88.6364L290.151 90.9091L287.879 78.0303Z" fill="#445B89"/>
<path d="M151.515 93.1818L164.394 90.9091L166.667 103.788L153.788 106.061L151.515 93.1818Z" fill="#445B89"/>
<path d="M227.273 91.6666L241.667 90.9091L242.424 105.303L228.03 106.061L227.273 91.6666Z" fill="#445B89"/>
<path d="M257.576 92.4242L271.212 90.9091L272.727 104.545L259.091 106.061L257.576 92.4242Z" fill="#445B89"/>
<path d="M303.03 92.7272L316.364 90.9091L318.182 104.242L304.848 106.061L303.03 92.7272Z" fill="#445B89"/>
<path d="M320.455 91.6666L318.939 103.788L331.061 105.303L332.576 93.1818L320.455 91.6666Z" fill="#445B89"/>
<path d="M167.424 109.848L178.03 106.818L181.06 117.424L170.454 120.454L167.424 109.848Z" fill="#445B89"/>
<path d="M185.151 106.061L181.818 117.879L193.636 121.212L196.97 109.394L185.151 106.061Z" fill="#445B89"/>
<path d="M212.121 107.879L225.454 106.061L227.273 119.394L213.939 121.212L212.121 107.879Z" fill="#445B89"/>
<path d="M228.485 106.667L227.879 120L241.212 120.606L241.818 107.273L228.485 106.667Z" fill="#445B89"/>
<path d="M245.758 106.061L242.424 117.879L254.242 121.212L257.576 109.394L245.758 106.061Z" fill="#445B89"/>
<path d="M288.636 109.848L299.242 106.818L302.273 117.424L291.667 120.454L288.636 109.848Z" fill="#445B89"/>
<path d="M304.242 106.667L303.636 120L316.97 120.606L317.576 107.273L304.242 106.667Z" fill="#445B89"/>
<path d="M333.333 106.818L347.727 106.061L348.485 120.454L334.091 121.212L333.333 106.818Z" fill="#445B89"/>
<path d="M151.515 123.485L164.394 121.212L166.667 134.091L153.788 136.364L151.515 123.485Z" fill="#445B89"/>
<path d="M181.818 122.727L195.454 121.212L196.97 134.848L183.333 136.364L181.818 122.727Z" fill="#445B89"/>
<path d="M213.333 121.818L212.727 135.151L226.061 135.758L226.667 122.424L213.333 121.818Z" fill="#445B89"/>
<path d="M243.636 121.818L243.03 135.151L256.364 135.758L256.97 122.424L243.636 121.818Z" fill="#445B89"/>
<path d="M272.727 123.485L285.606 121.212L287.879 134.091L275 136.364L272.727 123.485Z" fill="#445B89"/>
<path d="M303.03 122.727L316.667 121.212L318.182 134.848L304.545 136.364L303.03 122.727Z" fill="#445B89"/>
<path d="M334.546 121.818L333.939 135.151L347.273 135.758L347.879 122.424L334.546 121.818Z" fill="#445B89"/>
<path d="M197.727 140.152L208.333 137.121L211.364 147.727L200.758 150.758L197.727 140.152Z" fill="#445B89"/>
<path d="M212.121 138.939L224.697 136.364L227.273 148.939L214.697 151.515L212.121 138.939Z" fill="#445B89"/>
<path d="M243.636 136.97L243.03 150.303L256.364 150.909L256.97 137.576L243.636 136.97Z" fill="#445B89"/>
<path d="M318.182 138.182L331.515 136.364L333.333 149.697L320 151.515L318.182 138.182Z" fill="#445B89"/>
<path d="M333.333 138.939L345.909 136.364L348.485 148.939L335.909 151.515L333.333 138.939Z" fill="#445B89"/>
<path d="M30.303 153.788L43.1818 151.515L45.4545 164.394L32.5757 166.667L30.303 153.788Z" fill="#445B89"/>
<path d="M75.7576 153.333L89.0909 151.515L90.9091 164.848L77.5758 166.667L75.7576 153.333Z" fill="#445B89"/>
<path d="M92.1212 152.121L91.5151 165.455L104.848 166.061L105.455 152.727L92.1212 152.121Z" fill="#445B89"/>
<path d="M107.273 152.121L106.667 165.455L120 166.061L120.606 152.727L107.273 152.121Z" fill="#445B89"/>
<path d="M122.424 152.121L121.818 165.455L135.151 166.061L135.758 152.727L122.424 152.121Z" fill="#445B89"/>
<path d="M137.576 152.121L136.97 165.455L150.303 166.061L150.909 152.727L137.576 152.121Z" fill="#445B89"/>
<path d="M152.727 152.121L152.121 165.455L165.454 166.061L166.06 152.727L152.727 152.121Z" fill="#445B89"/>
<path d="M170 151.515L166.667 163.333L178.485 166.667L181.818 154.848L170 151.515Z" fill="#445B89"/>
<path d="M228.03 155.303L238.636 152.273L241.667 162.879L231.061 165.909L228.03 155.303Z" fill="#445B89"/>
<path d="M243.636 152.121L243.03 165.455L256.364 166.061L256.97 152.727L243.636 152.121Z" fill="#445B89"/>
<path d="M258.788 152.121L258.182 165.455L271.515 166.061L272.121 152.727L258.788 152.121Z" fill="#445B89"/>
<path d="M273.939 152.121L273.333 165.455L286.667 166.061L287.273 152.727L273.939 152.121Z" fill="#445B89"/>
<path d="M291.212 151.515L287.879 163.333L299.697 166.667L303.03 154.848L291.212 151.515Z" fill="#445B89"/>
<path d="M319.394 152.121L318.788 165.455L332.121 166.061L332.727 152.727L319.394 152.121Z" fill="#445B89"/>
<path d="M348.485 153.788L361.364 151.515L363.636 164.394L350.758 166.667L348.485 153.788Z" fill="#445B89"/>
<path d="M393.939 152.273L408.333 151.515L409.091 165.909L394.697 166.667L393.939 152.273Z" fill="#445B89"/>
<path d="M424.242 153.333L437.576 151.515L439.394 164.848L426.061 166.667L424.242 153.333Z" fill="#445B89"/>
<path d="M440.606 152.121L440 165.455L453.333 166.061L453.939 152.727L440.606 152.121Z" fill="#445B89"/>
<path d="M456.818 152.273L455.303 164.394L467.424 165.909L468.939 153.788L456.818 152.273Z" fill="#445B89"/>
<path d="M45.4546 168.485L58.7879 166.667L60.6061 180L47.2728 181.818L45.4546 168.485Z" fill="#445B89"/>
<path d="M61.8182 167.273L61.2122 180.606L74.5455 181.212L75.1516 167.879L61.8182 167.273Z" fill="#445B89"/>
<path d="M76.9696 167.273L76.3635 180.606L89.6969 181.212L90.3029 167.879L76.9696 167.273Z" fill="#445B89"/>
<path d="M92.1212 167.273L91.5151 180.606L104.848 181.212L105.455 167.879L92.1212 167.273Z" fill="#445B89"/>
<path d="M107.273 167.273L106.667 180.606L120 181.212L120.606 167.879L107.273 167.273Z" fill="#445B89"/>
<path d="M137.576 167.273L136.97 180.606L150.303 181.212L150.909 167.879L137.576 167.273Z" fill="#445B89"/>
<path d="M152.727 167.273L152.121 180.606L165.454 181.212L166.06 167.879L152.727 167.273Z" fill="#445B89"/>
<path d="M167.879 167.273L167.273 180.606L180.606 181.212L181.212 167.879L167.879 167.273Z" fill="#445B89"/>
<path d="M185.151 166.667L181.818 178.485L193.636 181.818L196.97 170L185.151 166.667Z" fill="#445B89"/>
<path d="M212.121 168.939L225 166.667L227.273 179.545L214.394 181.818L212.121 168.939Z" fill="#445B89"/>
<path d="M243.636 167.273L243.03 180.606L256.364 181.212L256.97 167.879L243.636 167.273Z" fill="#445B89"/>
<path d="M289.848 166.667L287.879 179.848L301.06 181.818L303.03 168.636L289.848 166.667Z" fill="#445B89"/>
<path d="M304.242 167.273L303.636 180.606L316.97 181.212L317.576 167.879L304.242 167.273Z" fill="#445B89"/>
<path d="M318.182 169.242L330.757 166.667L333.333 179.242L320.757 181.818L318.182 169.242Z" fill="#445B89"/>
<path d="M378.788 168.485L392.121 166.667L393.939 180L380.606 181.818L378.788 168.485Z" fill="#445B89"/>
<path d="M393.939 169.242L406.515 166.667L409.091 179.242L396.515 181.818L393.939 169.242Z" fill="#445B89"/>
<path d="M425.454 167.273L424.848 180.606L438.182 181.212L438.788 167.879L425.454 167.273Z" fill="#445B89"/>
<path d="M439.394 169.242L451.97 166.667L454.545 179.242L441.97 181.818L439.394 169.242Z" fill="#445B89"/>
<path d="M45.4546 183.333L59.091 181.818L60.6061 195.454L46.9697 196.97L45.4546 183.333Z" fill="#445B89"/>
<path d="M107.273 182.424L106.667 195.758L120 196.364L120.606 183.03L107.273 182.424Z" fill="#445B89"/>
<path d="M122.424 182.424L121.818 195.758L135.151 196.364L135.758 183.03L122.424 182.424Z" fill="#445B89"/>
<path d="M137.576 182.424L136.97 195.758L150.303 196.364L150.909 183.03L137.576 182.424Z" fill="#445B89"/>
<path d="M151.515 184.394L164.091 181.818L166.667 194.394L154.091 196.97L151.515 184.394Z" fill="#445B89"/>
<path d="M183.03 182.424L182.424 195.758L195.757 196.364L196.363 183.03L183.03 182.424Z" fill="#445B89"/>
<path d="M199.242 182.576L197.727 194.697L209.848 196.212L211.364 184.091L199.242 182.576Z" fill="#445B89"/>
<path d="M243.636 182.424L243.03 195.758L256.364 196.364L256.97 183.03L243.636 182.424Z" fill="#445B89"/>
<path d="M364.394 185.606L375 182.576L378.03 193.182L367.424 196.212L364.394 185.606Z" fill="#445B89"/>
<path d="M380 182.424L379.394 195.758L392.727 196.364L393.333 183.03L380 182.424Z" fill="#445B89"/>
<path d="M424.242 183.333L437.879 181.818L439.394 195.454L425.758 196.97L424.242 183.333Z" fill="#445B89"/>
<path d="M60.606 198.788L73.9393 196.97L75.7575 210.303L62.4241 212.121L60.606 198.788Z" fill="#445B89"/>
<path d="M76.9696 197.576L76.3635 210.909L89.6969 211.515L90.3029 198.182L76.9696 197.576Z" fill="#445B89"/>
<path d="M92.1212 197.576L91.5151 210.909L104.848 211.515L105.455 198.182L92.1212 197.576Z" fill="#445B89"/>
<path d="M107.273 197.576L106.667 210.909L120 211.515L120.606 198.182L107.273 197.576Z" fill="#445B89"/>
<path d="M181.818 198.485L195.454 196.97L196.97 210.606L183.333 212.121L181.818 198.485Z" fill="#445B89"/>
<path d="M243.636 197.576L243.03 210.909L256.364 211.515L256.97 198.182L243.636 197.576Z" fill="#445B89"/>
<path d="M259.848 197.727L258.333 209.848L270.454 211.364L271.97 199.242L259.848 197.727Z" fill="#445B89"/>
<path d="M288.636 200.757L299.242 197.727L302.273 208.333L291.667 211.364L288.636 200.757Z" fill="#445B89"/>
<path d="M306.364 196.97L303.03 208.788L314.848 212.121L318.182 200.303L306.364 196.97Z" fill="#445B89"/>
<path d="M333.333 198.788L346.667 196.97L348.485 210.303L335.151 212.121L333.333 198.788Z" fill="#445B89"/>
<path d="M350.758 197.727L349.242 209.848L361.364 211.364L362.879 199.242L350.758 197.727Z" fill="#445B89"/>
<path d="M380 197.576L379.394 210.909L392.727 211.515L393.333 198.182L380 197.576Z" fill="#445B89"/>
<path d="M395.151 197.576L394.545 210.909L407.879 211.515L408.485 198.182L395.151 197.576Z" fill="#445B89"/>
<path d="M411.364 197.727L409.848 209.848L421.97 211.364L423.485 199.242L411.364 197.727Z" fill="#445B89"/>
<path d="M454.545 197.727L468.939 196.97L469.697 211.364L455.303 212.121L454.545 197.727Z" fill="#445B89"/>
<path d="M30.303 212.879L44.6969 212.121L45.4545 226.515L31.0606 227.273L30.303 212.879Z" fill="#445B89"/>
<path d="M61.8182 212.727L61.2122 226.061L74.5455 226.667L75.1516 213.333L61.8182 212.727Z" fill="#445B89"/>
<path d="M75.7576 214.697L88.3333 212.121L90.9091 224.697L78.3333 227.273L75.7576 214.697Z" fill="#445B89"/>
<path d="M107.273 212.727L106.667 226.061L120 226.667L120.606 213.333L107.273 212.727Z" fill="#445B89"/>
<path d="M122.424 212.727L121.818 226.061L135.151 226.667L135.758 213.333L122.424 212.727Z" fill="#445B89"/>
<path d="M137.576 212.727L136.97 226.061L150.303 226.667L150.909 213.333L137.576 212.727Z" fill="#445B89"/>
<path d="M153.788 212.879L152.273 225L164.394 226.515L165.909 214.394L153.788 212.879Z" fill="#445B89"/>
<path d="M212.879 215.909L223.485 212.879L226.515 223.485L215.909 226.515L212.879 215.909Z" fill="#445B89"/>
<path d="M228.485 212.727L227.879 226.061L241.212 226.667L241.818 213.333L228.485 212.727Z" fill="#445B89"/>
<path d="M242.424 214.697L255 212.121L257.576 224.697L245 227.273L242.424 214.697Z" fill="#445B89"/>
<path d="M272.727 214.394L285.606 212.121L287.879 225L275 227.273L272.727 214.394Z" fill="#445B89"/>
<path d="M304.242 212.727L303.636 226.061L316.97 226.667L317.576 213.333L304.242 212.727Z" fill="#445B89"/>
<path d="M333.333 213.636L346.97 212.121L348.485 225.757L334.848 227.273L333.333 213.636Z" fill="#445B89"/>
<path d="M363.636 213.939L376.97 212.121L378.788 225.454L365.454 227.273L363.636 213.939Z" fill="#445B89"/>
<path d="M380 212.727L379.394 226.061L392.727 226.667L393.333 213.333L380 212.727Z" fill="#445B89"/>
<path d="M455.757 212.727L455.151 226.061L468.485 226.667L469.091 213.333L455.757 212.727Z" fill="#445B89"/>
<path d="M30.303 228.788L43.9393 227.273L45.4545 240.909L31.8181 242.424L30.303 228.788Z" fill="#445B89"/>
<path d="M61.8182 227.879L61.2122 241.212L74.5455 241.818L75.1516 228.485L61.8182 227.879Z" fill="#445B89"/>
<path d="M106.061 228.788L119.697 227.273L121.212 240.909L107.576 242.424L106.061 228.788Z" fill="#445B89"/>
<path d="M181.818 229.545L194.697 227.273L196.97 240.151L184.091 242.424L181.818 229.545Z" fill="#445B89"/>
<path d="M287.879 229.091L301.212 227.273L303.03 240.606L289.697 242.424L287.879 229.091Z" fill="#445B89"/>
<path d="M303.03 229.848L315.606 227.273L318.182 239.848L305.606 242.424L303.03 229.848Z" fill="#445B89"/>
<path d="M348.485 229.091L361.818 227.273L363.636 240.606L350.303 242.424L348.485 229.091Z" fill="#445B89"/>
<path d="M364.848 227.879L364.242 241.212L377.576 241.818L378.182 228.485L364.848 227.879Z" fill="#445B89"/>
<path d="M380 227.879L379.394 241.212L392.727 241.818L393.333 228.485L380 227.879Z" fill="#445B89"/>
<path d="M395.151 227.879L394.545 241.212L407.879 241.818L408.485 228.485L395.151 227.879Z" fill="#445B89"/>
<path d="M410.303 227.879L409.697 241.212L423.03 241.818L423.636 228.485L410.303 227.879Z" fill="#445B89"/>
<path d="M425.454 227.879L424.848 241.212L438.182 241.818L438.788 228.485L425.454 227.879Z" fill="#445B89"/>
<path d="M440.606 227.879L440 241.212L453.333 241.818L453.939 228.485L440.606 227.879Z" fill="#445B89"/>
<path d="M455.757 227.879L455.151 241.212L468.485 241.818L469.091 228.485L455.757 227.879Z" fill="#445B89"/>
<path d="M60.606 243.939L74.2423 242.424L75.7575 256.061L62.1211 257.576L60.606 243.939Z" fill="#445B89"/>
<path d="M90.9089 244.697L103.788 242.424L106.06 255.303L93.1817 257.576L90.9089 244.697Z" fill="#445B89"/>
<path d="M121.212 244.697L134.091 242.424L136.364 255.303L123.485 257.576L121.212 244.697Z" fill="#445B89"/>
<path d="M166.667 244.697L179.545 242.424L181.818 255.303L168.939 257.576L166.667 244.697Z" fill="#445B89"/>
<path d="M242.424 244.242L255.758 242.424L257.576 255.758L244.242 257.576L242.424 244.242Z" fill="#445B89"/>
<path d="M258.788 243.03L258.182 256.364L271.515 256.97L272.121 243.636L258.788 243.03Z" fill="#445B89"/>
<path d="M273.939 243.03L273.333 256.364L286.667 256.97L287.273 243.636L273.939 243.03Z" fill="#445B89"/>
<path d="M287.879 245L300.454 242.424L303.03 255L290.454 257.576L287.879 245Z" fill="#445B89"/>
<path d="M318.939 246.212L329.546 243.182L332.576 253.788L321.97 256.818L318.939 246.212Z" fill="#445B89"/>
<path d="M334.546 243.03L333.939 256.364L347.273 256.97L347.879 243.636L334.546 243.03Z" fill="#445B89"/>
<path d="M349.697 243.03L349.091 256.364L362.424 256.97L363.03 243.636L349.697 243.03Z" fill="#445B89"/>
<path d="M363.636 245L376.212 242.424L378.788 255L366.212 257.576L363.636 245Z" fill="#445B89"/>
<path d="M425.454 243.03L424.848 256.364L438.182 256.97L438.788 243.636L425.454 243.03Z" fill="#445B89"/>
<path d="M455.757 243.03L455.151 256.364L468.485 256.97L469.091 243.636L455.757 243.03Z" fill="#445B89"/>
<path d="M30.303 258.333L44.6969 257.576L45.4545 271.97L31.0606 272.727L30.303 258.333Z" fill="#445B89"/>
<path d="M106.061 258.333L120.454 257.576L121.212 271.97L106.818 272.727L106.061 258.333Z" fill="#445B89"/>
<path d="M151.515 258.333L165.909 257.576L166.667 271.97L152.273 272.727L151.515 258.333Z" fill="#445B89"/>
<path d="M196.97 258.333L211.364 257.576L212.121 271.97L197.727 272.727L196.97 258.333Z" fill="#445B89"/>
<path d="M228.03 261.364L238.636 258.333L241.667 268.939L231.061 271.97L228.03 261.364Z" fill="#445B89"/>
<path d="M242.424 260.151L255 257.576L257.576 270.151L245 272.727L242.424 260.151Z" fill="#445B89"/>
<path d="M273.939 258.182L273.333 271.515L286.667 272.121L287.273 258.788L273.939 258.182Z" fill="#445B89"/>
<path d="M303.03 259.848L315.909 257.576L318.182 270.455L305.303 272.727L303.03 259.848Z" fill="#445B89"/>
<path d="M393.939 259.848L406.818 257.576L409.091 270.455L396.212 272.727L393.939 259.848Z" fill="#445B89"/>
<path d="M424.242 259.091L437.879 257.576L439.394 271.212L425.758 272.727L424.242 259.091Z" fill="#445B89"/>
<path d="M454.545 259.091L468.182 257.576L469.697 271.212L456.061 272.727L454.545 259.091Z" fill="#445B89"/>
<path d="M31.515 273.333L30.9089 286.667L44.2423 287.273L44.8483 273.939L31.515 273.333Z" fill="#445B89"/>
<path d="M60.606 275L73.4847 272.727L75.7575 285.606L62.8787 287.879L60.606 275Z" fill="#445B89"/>
<path d="M90.9089 274.545L104.242 272.727L106.06 286.061L92.7271 287.879L90.9089 274.545Z" fill="#445B89"/>
<path d="M107.273 273.333L106.667 286.667L120 287.273L120.606 273.939L107.273 273.333Z" fill="#445B89"/>
<path d="M122.424 273.333L121.818 286.667L135.151 287.273L135.758 273.939L122.424 273.333Z" fill="#445B89"/>
<path d="M137.576 273.333L136.97 286.667L150.303 287.273L150.909 273.939L137.576 273.333Z" fill="#445B89"/>
<path d="M152.727 273.333L152.121 286.667L165.454 287.273L166.06 273.939L152.727 273.333Z" fill="#445B89"/>
<path d="M168.939 273.485L167.424 285.606L179.545 287.121L181.06 275L168.939 273.485Z" fill="#445B89"/>
<path d="M198.939 272.727L196.97 285.909L210.152 287.879L212.121 274.697L198.939 272.727Z" fill="#445B89"/>
<path d="M214.394 273.485L212.879 285.606L225 287.121L226.515 275L214.394 273.485Z" fill="#445B89"/>
<path d="M257.576 274.545L270.909 272.727L272.727 286.061L259.394 287.879L257.576 274.545Z" fill="#445B89"/>
<path d="M272.727 275.303L285.303 272.727L287.879 285.303L275.303 287.879L272.727 275.303Z" fill="#445B89"/>
<path d="M318.182 274.545L331.515 272.727L333.333 286.061L320 287.879L318.182 274.545Z" fill="#445B89"/>
<path d="M335.606 273.485L334.091 285.606L346.212 287.121L347.727 275L335.606 273.485Z" fill="#445B89"/>
<path d="M409.091 275L421.97 272.727L424.242 285.606L411.364 287.879L409.091 275Z" fill="#445B89"/>
<path d="M31.515 288.485L30.9089 301.818L44.2423 302.424L44.8483 289.091L31.515 288.485Z" fill="#445B89"/>
<path d="M48.7879 287.879L45.4546 299.697L57.2728 303.03L60.6061 291.212L48.7879 287.879Z" fill="#445B89"/>
<path d="M76.5151 291.667L87.1212 288.636L90.1515 299.242L79.5454 302.273L76.5151 291.667Z" fill="#445B89"/>
<path d="M92.1212 288.485L91.5151 301.818L104.848 302.424L105.455 289.091L92.1212 288.485Z" fill="#445B89"/>
<path d="M106.061 290.454L118.636 287.879L121.212 300.454L108.636 303.03L106.061 290.454Z" fill="#445B89"/>
<path d="M258.788 288.485L258.182 301.818L271.515 302.424L272.121 289.091L258.788 288.485Z" fill="#445B89"/>
<path d="M287.879 290.151L300.757 287.879L303.03 300.758L290.151 303.03L287.879 290.151Z" fill="#445B89"/>
<path d="M319.394 288.485L318.788 301.818L332.121 302.424L332.727 289.091L319.394 288.485Z" fill="#445B89"/>
<path d="M393.939 288.636L408.333 287.879L409.091 302.273L394.697 303.03L393.939 288.636Z" fill="#445B89"/>
<path d="M425 291.667L435.606 288.636L438.636 299.242L428.03 302.273L425 291.667Z" fill="#445B89"/>
<path d="M441.667 288.636L440.151 300.758L452.273 302.273L453.788 290.151L441.667 288.636Z" fill="#445B89"/>
<path d="M31.515 303.636L30.9089 316.97L44.2423 317.576L44.8483 304.242L31.515 303.636Z" fill="#445B89"/>
<path d="M46.6666 303.636L46.0605 316.97L59.3939 317.576L59.9999 304.242L46.6666 303.636Z" fill="#445B89"/>
<path d="M121.97 306.818L132.576 303.788L135.606 314.394L125 317.424L121.97 306.818Z" fill="#445B89"/>
<path d="M139.697 303.03L136.364 314.848L148.182 318.182L151.515 306.364L139.697 303.03Z" fill="#445B89"/>
<path d="M212.879 306.818L223.485 303.788L226.515 314.394L215.909 317.424L212.879 306.818Z" fill="#445B89"/>
<path d="M228.485 303.636L227.879 316.97L241.212 317.576L241.818 304.242L228.485 303.636Z" fill="#445B89"/>
<path d="M243.636 303.636L243.03 316.97L256.364 317.576L256.97 304.242L243.636 303.636Z" fill="#445B89"/>
<path d="M258.788 303.636L258.182 316.97L271.515 317.576L272.121 304.242L258.788 303.636Z" fill="#445B89"/>
<path d="M275 303.788L273.485 315.909L285.606 317.424L287.121 305.303L275 303.788Z" fill="#445B89"/>
<path d="M319.394 303.636L318.788 316.97L332.121 317.576L332.727 304.242L319.394 303.636Z" fill="#445B89"/>
<path d="M348.485 303.788L362.879 303.03L363.636 317.424L349.242 318.182L348.485 303.788Z" fill="#445B89"/>
<path d="M395.151 303.636L394.545 316.97L407.879 317.576L408.485 304.242L395.151 303.636Z" fill="#445B89"/>
<path d="M412.424 303.03L409.091 314.848L420.909 318.182L424.242 306.364L412.424 303.03Z" fill="#445B89"/>
<path d="M454.545 305.303L467.424 303.03L469.697 315.909L456.818 318.182L454.545 305.303Z" fill="#445B89"/>
<path d="M31.515 318.788L30.9089 332.121L44.2423 332.727L44.8483 319.394L31.515 318.788Z" fill="#445B89"/>
<path d="M46.6666 318.788L46.0605 332.121L59.3939 332.727L59.9999 319.394L46.6666 318.788Z" fill="#445B89"/>
<path d="M61.8182 318.788L61.2122 332.121L74.5455 332.727L75.1516 319.394L61.8182 318.788Z" fill="#445B89"/>
<path d="M78.0303 318.939L76.5151 331.061L88.6364 332.576L90.1515 320.454L78.0303 318.939Z" fill="#445B89"/>
<path d="M137.576 318.788L136.97 332.121L150.303 332.727L150.909 319.394L137.576 318.788Z" fill="#445B89"/>
<path d="M181.818 318.939L196.212 318.182L196.97 332.576L182.576 333.333L181.818 318.939Z" fill="#445B89"/>
<path d="M228.485 318.788L227.879 332.121L241.212 332.727L241.818 319.394L228.485 318.788Z" fill="#445B89"/>
<path d="M319.394 318.788L318.788 332.121L332.121 332.727L332.727 319.394L319.394 318.788Z" fill="#445B89"/>
<path d="M334.546 318.788L333.939 332.121L347.273 332.727L347.879 319.394L334.546 318.788Z" fill="#445B89"/>
<path d="M349.697 318.788L349.091 332.121L362.424 332.727L363.03 319.394L349.697 318.788Z" fill="#445B89"/>
<path d="M366.97 318.182L363.636 330L375.454 333.333L378.788 321.515L366.97 318.182Z" fill="#445B89"/>
<path d="M395.151 318.788L394.545 332.121L407.879 332.727L408.485 319.394L395.151 318.788Z" fill="#445B89"/>
<path d="M410.303 318.788L409.697 332.121L423.03 332.727L423.636 319.394L410.303 318.788Z" fill="#445B89"/>
<path d="M427.576 318.182L424.242 330L436.061 333.333L439.394 321.515L427.576 318.182Z" fill="#445B89"/>
<path d="M32.2727 333.333L30.303 346.515L43.4848 348.485L45.4545 335.303L32.2727 333.333Z" fill="#445B89"/>
<path d="M46.6666 333.939L46.0605 347.273L59.3939 347.879L59.9999 334.545L46.6666 333.939Z" fill="#445B89"/>
<path d="M60.606 335.909L73.1817 333.333L75.7575 345.909L63.1817 348.485L60.606 335.909Z" fill="#445B89"/>
<path d="M91.6665 337.121L102.273 334.091L105.303 344.697L94.6968 347.727L91.6665 337.121Z" fill="#445B89"/>
<path d="M107.273 333.939L106.667 347.273L120 347.879L120.606 334.545L107.273 333.939Z" fill="#445B89"/>
<path d="M122.424 333.939L121.818 347.273L135.151 347.879L135.758 334.545L122.424 333.939Z" fill="#445B89"/>
<path d="M136.364 335.909L148.939 333.333L151.515 345.909L138.939 348.485L136.364 335.909Z" fill="#445B89"/>
<path d="M167.424 337.121L178.03 334.091L181.06 344.697L170.454 347.727L167.424 337.121Z" fill="#445B89"/>
<path d="M183.03 333.939L182.424 347.273L195.757 347.879L196.363 334.545L183.03 333.939Z" fill="#445B89"/>
<path d="M198.182 333.939L197.576 347.273L210.909 347.879L211.515 334.545L198.182 333.939Z" fill="#445B89"/>
<path d="M213.333 333.939L212.727 347.273L226.061 347.879L226.667 334.545L213.333 333.939Z" fill="#445B89"/>
<path d="M228.485 333.939L227.879 347.273L241.212 347.879L241.818 334.545L228.485 333.939Z" fill="#445B89"/>
<path d="M257.576 334.091L271.97 333.333L272.727 347.727L258.333 348.485L257.576 334.091Z" fill="#445B89"/>
<path d="M287.879 335.606L300.757 333.333L303.03 346.212L290.151 348.485L287.879 335.606Z" fill="#445B89"/>
<path d="M320.151 333.333L318.182 346.515L331.363 348.485L333.333 335.303L320.151 333.333Z" fill="#445B89"/>
<path d="M334.546 333.939L333.939 347.273L347.273 347.879L347.879 334.545L334.546 333.939Z" fill="#445B89"/>
<path d="M349.697 333.939L349.091 347.273L362.424 347.879L363.03 334.545L349.697 333.939Z" fill="#445B89"/>
<path d="M364.848 333.939L364.242 347.273L377.576 347.879L378.182 334.545L364.848 333.939Z" fill="#445B89"/>
<path d="M380 333.939L379.394 347.273L392.727 347.879L393.333 334.545L380 333.939Z" fill="#445B89"/>
<path d="M395.151 333.939L394.545 347.273L407.879 347.879L408.485 334.545L395.151 333.939Z" fill="#445B89"/>
<path d="M410.303 333.939L409.697 347.273L423.03 347.879L423.636 334.545L410.303 333.939Z" fill="#445B89"/>
<path d="M425.454 333.939L424.848 347.273L438.182 347.879L438.788 334.545L425.454 333.939Z" fill="#445B89"/>
<path d="M441.667 334.091L440.151 346.212L452.273 347.727L453.788 335.606L441.667 334.091Z" fill="#445B89"/>
<path d="M151.515 349.242L165.909 348.485L166.667 362.879L152.273 363.636L151.515 349.242Z" fill="#445B89"/>
<path d="M183.788 348.485L181.818 361.667L195 363.636L196.97 350.454L183.788 348.485Z" fill="#445B89"/>
<path d="M198.182 349.091L197.576 362.424L210.909 363.03L211.515 349.697L198.182 349.091Z" fill="#445B89"/>
<path d="M213.333 349.091L212.727 362.424L226.061 363.03L226.667 349.697L213.333 349.091Z" fill="#445B89"/>
<path d="M228.485 349.091L227.879 362.424L241.212 363.03L241.818 349.697L228.485 349.091Z" fill="#445B89"/>
<path d="M258.788 349.091L258.182 362.424L271.515 363.03L272.121 349.697L258.788 349.091Z" fill="#445B89"/>
<path d="M303.03 350.757L315.909 348.485L318.182 361.364L305.303 363.636L303.03 350.757Z" fill="#445B89"/>
<path d="M334.546 349.091L333.939 362.424L347.273 363.03L347.879 349.697L334.546 349.091Z" fill="#445B89"/>
<path d="M395.151 349.091L394.545 362.424L407.879 363.03L408.485 349.697L395.151 349.091Z" fill="#445B89"/>
<path d="M410.303 349.091L409.697 362.424L423.03 363.03L423.636 349.697L410.303 349.091Z" fill="#445B89"/>
<path d="M152.727 364.242L152.121 377.576L165.454 378.182L166.06 364.848L152.727 364.242Z" fill="#445B89"/>
<path d="M170 363.636L166.667 375.455L178.485 378.788L181.818 366.97L170 363.636Z" fill="#445B89"/>
<path d="M228.485 364.242L227.879 377.576L241.212 378.182L241.818 364.848L228.485 364.242Z" fill="#445B89"/>
<path d="M259.545 363.636L257.576 376.818L270.758 378.788L272.727 365.606L259.545 363.636Z" fill="#445B89"/>
<path d="M273.939 364.242L273.333 377.576L286.667 378.182L287.273 364.848L273.939 364.242Z" fill="#445B89"/>
<path d="M291.212 363.636L287.879 375.455L299.697 378.788L303.03 366.97L291.212 363.636Z" fill="#445B89"/>
<path d="M318.182 365.455L331.515 363.636L333.333 376.97L320 378.788L318.182 365.455Z" fill="#445B89"/>
<path d="M334.546 364.242L333.939 377.576L347.273 378.182L347.879 364.848L334.546 364.242Z" fill="#445B89"/>
<path d="M363.636 365.909L376.515 363.636L378.788 376.515L365.909 378.788L363.636 365.909Z" fill="#445B89"/>
<path d="M395.151 364.242L394.545 377.576L407.879 378.182L408.485 364.848L395.151 364.242Z" fill="#445B89"/>
<path d="M409.091 366.212L421.667 363.636L424.242 376.212L411.667 378.788L409.091 366.212Z" fill="#445B89"/>
<path d="M152.727 379.394L152.121 392.727L165.454 393.333L166.06 380L152.727 379.394Z" fill="#445B89"/>
<path d="M166.667 381.364L179.242 378.788L181.818 391.364L169.242 393.939L166.667 381.364Z" fill="#445B89"/>
<path d="M212.121 380.606L225.454 378.788L227.273 392.121L213.939 393.939L212.121 380.606Z" fill="#445B89"/>
<path d="M228.485 379.394L227.879 392.727L241.212 393.333L241.818 380L228.485 379.394Z" fill="#445B89"/>
<path d="M273.939 379.394L273.333 392.727L286.667 393.333L287.273 380L273.939 379.394Z" fill="#445B89"/>
<path d="M287.879 381.364L300.454 378.788L303.03 391.364L290.454 393.939L287.879 381.364Z" fill="#445B89"/>
<path d="M319.394 379.394L318.788 392.727L332.121 393.333L332.727 380L319.394 379.394Z" fill="#445B89"/>
<path d="M334.546 379.394L333.939 392.727L347.273 393.333L347.879 380L334.546 379.394Z" fill="#445B89"/>
<path d="M395.151 379.394L394.545 392.727L407.879 393.333L408.485 380L395.151 379.394Z" fill="#445B89"/>
<path d="M439.394 380.606L452.727 378.788L454.545 392.121L441.212 393.939L439.394 380.606Z" fill="#445B89"/>
<path d="M457.879 378.788L454.545 390.606L466.364 393.939L469.697 382.121L457.879 378.788Z" fill="#445B89"/>
<path d="M152.727 394.545L152.121 407.879L165.454 408.485L166.06 395.151L152.727 394.545Z" fill="#445B89"/>
<path d="M181.818 395.758L195.151 393.939L196.97 407.273L183.636 409.091L181.818 395.758Z" fill="#445B89"/>
<path d="M198.182 394.545L197.576 407.879L210.909 408.485L211.515 395.151L198.182 394.545Z" fill="#445B89"/>
<path d="M213.333 394.545L212.727 407.879L226.061 408.485L226.667 395.151L213.333 394.545Z" fill="#445B89"/>
<path d="M228.485 394.545L227.879 407.879L241.212 408.485L241.818 395.151L228.485 394.545Z" fill="#445B89"/>
<path d="M257.576 395.758L270.909 393.939L272.727 407.273L259.394 409.091L257.576 395.758Z" fill="#445B89"/>
<path d="M273.939 394.545L273.333 407.879L286.667 408.485L287.273 395.151L273.939 394.545Z" fill="#445B89"/>
<path d="M320.151 393.939L318.182 407.121L331.363 409.091L333.333 395.909L320.151 393.939Z" fill="#445B89"/>
<path d="M334.546 394.545L333.939 407.879L347.273 408.485L347.879 395.151L334.546 394.545Z" fill="#445B89"/>
<path d="M349.697 394.545L349.091 407.879L362.424 408.485L363.03 395.151L349.697 394.545Z" fill="#445B89"/>
<path d="M364.848 394.545L364.242 407.879L377.576 408.485L378.182 395.151L364.848 394.545Z" fill="#445B89"/>
<path d="M380 394.545L379.394 407.879L392.727 408.485L393.333 395.151L380 394.545Z" fill="#445B89"/>
<path d="M395.151 394.545L394.545 407.879L407.879 408.485L408.485 395.151L395.151 394.545Z" fill="#445B89"/>
<path d="M411.364 394.697L409.848 406.818L421.97 408.333L423.485 396.212L411.364 394.697Z" fill="#445B89"/>
<path d="M441.363 393.939L439.394 407.121L452.576 409.091L454.545 395.909L441.363 393.939Z" fill="#445B89"/>
<path d="M455.757 394.545L455.151 407.879L468.485 408.485L469.091 395.151L455.757 394.545Z" fill="#445B89"/>
<path d="M151.515 410.606L165.152 409.091L166.667 422.727L153.03 424.242L151.515 410.606Z" fill="#445B89"/>
<path d="M183.03 409.697L182.424 423.03L195.757 423.636L196.363 410.303L183.03 409.697Z" fill="#445B89"/>
<path d="M214.091 409.091L212.121 422.273L225.303 424.242L227.273 411.061L214.091 409.091Z" fill="#445B89"/>
<path d="M228.485 409.697L227.879 423.03L241.212 423.636L241.818 410.303L228.485 409.697Z" fill="#445B89"/>
<path d="M243.636 409.697L243.03 423.03L256.364 423.636L256.97 410.303L243.636 409.697Z" fill="#445B89"/>
<path d="M258.788 409.697L258.182 423.03L271.515 423.636L272.121 410.303L258.788 409.697Z" fill="#445B89"/>
<path d="M273.939 409.697L273.333 423.03L286.667 423.636L287.273 410.303L273.939 409.697Z" fill="#445B89"/>
<path d="M303.03 409.848L317.424 409.091L318.182 423.485L303.788 424.242L303.03 409.848Z" fill="#445B89"/>
<path d="M334.546 409.697L333.939 423.03L347.273 423.636L347.879 410.303L334.546 409.697Z" fill="#445B89"/>
<path d="M349.697 409.697L349.091 423.03L362.424 423.636L363.03 410.303L349.697 409.697Z" fill="#445B89"/>
<path d="M455.757 409.697L455.151 423.03L468.485 423.636L469.091 410.303L455.757 409.697Z" fill="#445B89"/>
<path d="M167.424 428.03L178.03 425L181.06 435.606L170.454 438.636L167.424 428.03Z" fill="#445B89"/>
<path d="M181.818 426.818L194.394 424.242L196.97 436.818L184.394 439.394L181.818 426.818Z" fill="#445B89"/>
<path d="M227.273 425.758L240.909 424.242L242.424 437.879L228.788 439.394L227.273 425.758Z" fill="#445B89"/>
<path d="M258.788 424.848L258.182 438.182L271.515 438.788L272.121 425.455L258.788 424.848Z" fill="#445B89"/>
<path d="M273.939 424.848L273.333 438.182L286.667 438.788L287.273 425.455L273.939 424.848Z" fill="#445B89"/>
<path d="M289.091 424.848L288.485 438.182L301.818 438.788L302.424 425.455L289.091 424.848Z" fill="#445B89"/>
<path d="M304.242 424.848L303.636 438.182L316.97 438.788L317.576 425.455L304.242 424.848Z" fill="#445B89"/>
<path d="M335.303 424.242L333.333 437.424L346.515 439.394L348.485 426.212L335.303 424.242Z" fill="#445B89"/>
<path d="M348.485 426.818L361.061 424.242L363.636 436.818L351.061 439.394L348.485 426.818Z" fill="#445B89"/>
<path d="M379.545 428.03L390.151 425L393.182 435.606L382.576 438.636L379.545 428.03Z" fill="#445B89"/>
<path d="M396.212 425L394.697 437.121L406.818 438.636L408.333 426.515L396.212 425Z" fill="#445B89"/>
<path d="M424.242 426.061L437.576 424.242L439.394 437.576L426.061 439.394L424.242 426.061Z" fill="#445B89"/>
<path d="M440.606 424.848L440 438.182L453.333 438.788L453.939 425.455L440.606 424.848Z" fill="#445B89"/>
<path d="M455.757 424.848L455.151 438.182L468.485 438.788L469.091 425.455L455.757 424.848Z" fill="#445B89"/>
<path d="M196.97 441.212L210.303 439.394L212.121 452.727L198.788 454.545L196.97 441.212Z" fill="#445B89"/>
<path d="M215.454 439.394L212.121 451.212L223.939 454.545L227.273 442.727L215.454 439.394Z" fill="#445B89"/>
<path d="M242.424 441.212L255.758 439.394L257.576 452.727L244.242 454.545L242.424 441.212Z" fill="#445B89"/>
<path d="M257.576 441.97L270.151 439.394L272.727 451.97L260.151 454.545L257.576 441.97Z" fill="#445B89"/>
<path d="M304.242 440L303.636 453.333L316.97 453.939L317.576 440.606L304.242 440Z" fill="#445B89"/>
<path d="M363.636 441.667L376.515 439.394L378.788 452.273L365.909 454.545L363.636 441.667Z" fill="#445B89"/>
<path d="M409.848 443.182L420.454 440.151L423.485 450.758L412.879 453.788L409.848 443.182Z" fill="#445B89"/>
<path d="M424.242 441.97L436.818 439.394L439.394 451.97L426.818 454.545L424.242 441.97Z" fill="#445B89"/>
<path d="M454.545 440.909L468.182 439.394L469.697 453.03L456.061 454.545L454.545 440.909Z" fill="#445B89"/>
<path d="M152.273 458.333L162.879 455.303L165.909 465.909L155.303 468.939L152.273 458.333Z" fill="#445B89"/>
<path d="M167.879 455.151L167.273 468.485L180.606 469.091L181.212 455.757L167.879 455.151Z" fill="#445B89"/>
<path d="M183.03 455.151L182.424 468.485L195.757 469.091L196.363 455.757L183.03 455.151Z" fill="#445B89"/>
<path d="M198.182 455.151L197.576 468.485L210.909 469.091L211.515 455.757L198.182 455.151Z" fill="#445B89"/>
<path d="M212.121 457.121L224.697 454.545L227.273 467.121L214.697 469.697L212.121 457.121Z" fill="#445B89"/>
<path d="M242.424 456.061L256.061 454.545L257.576 468.182L243.939 469.697L242.424 456.061Z" fill="#445B89"/>
<path d="M303.03 456.061L316.667 454.545L318.182 468.182L304.545 469.697L303.03 456.061Z" fill="#445B89"/>
<path d="M333.333 456.818L346.212 454.545L348.485 467.424L335.606 469.697L333.333 456.818Z" fill="#445B89"/>
<path d="M379.545 458.333L390.151 455.303L393.182 465.909L382.576 468.939L379.545 458.333Z" fill="#445B89"/>
<path d="M396.212 455.303L394.697 467.424L406.818 468.939L408.333 456.818L396.212 455.303Z" fill="#445B89"/>
<path d="M31.7489 85.4735L30.6873 86.6611C30.6925 84.7993 31.2281 85.6184 31.7489 85.4735Z" fill="#445B89"/>
<path d="M31.958 85.3611C31.8897 85.4231 31.8183 85.4525 31.749 85.4724L31.9464 85.2508L31.958 85.3611Z" fill="#445B89"/>
<path d="M135.175 86.66L134.111 85.4724C134.635 85.6183 135.17 84.7992 135.175 86.66Z" fill="#445B89"/>
<path d="M134.74 53.3948C134.774 52.9464 134.582 52.8719 134.612 52.4151L133.924 54.005C137.186 54.341 131.846 63.3656 135.113 63.7079C133.794 65.9762 134.325 63.8654 132.784 60.9577L133.086 65.1203C133.119 65.0636 133.433 66.6241 133.166 65.743C131.789 68.9081 133.451 66.664 134.301 68.3756C133.832 69.5875 131.851 67.4316 132.39 70.8707C133.027 75.7358 134.775 69.9476 135.158 72.869L133.468 74.985C134.76 78.716 133.564 81.503 133.351 84.6523C133.485 85.3653 133.661 85.7118 133.844 85.8861C133.112 89.2339 135.495 92.9061 134.942 95.4274C134.595 94.8393 134.679 96.8723 134.27 97.1769L135.313 101.731C134.869 99.7181 133.896 99.8063 132.955 99.4367C133.054 100.862 133.587 101.53 133.712 102.499C133.372 101.909 133.021 101.31 132.586 102.062L134.192 106.843C134.357 106.565 134.42 106.014 134.463 105.555C134.474 106.749 135.086 109.332 134.293 111.045C133.92 110.892 133.57 110.304 133.193 110.158C134.26 108.722 133.35 107.905 132.623 107.161C132.789 110.464 132.377 107.984 131.686 109.57C131.723 111.897 134.087 112.854 134.903 112.241C134.533 114.868 133.923 115.704 134.903 118.389L132.864 117.879L132.502 120.344L131.671 118.344C131.352 120.016 131.748 120.608 132.355 120.916C133.466 121.477 135.29 121.069 134.808 124.465L133.649 124.483C134.094 126.501 134.626 127.195 133.234 128.766C133.936 130.729 134.872 125.413 135.109 130.024C134.51 130.836 134.073 132.585 133.839 133.909C134.3 135.202 135.009 133.362 135.068 132.256C135.152 133.889 134.939 134.955 134.598 135.736C133.956 135.758 133.345 135.867 132.808 136.136C133.488 135.512 134.167 134.888 132.599 134.418C130.192 134.195 126.096 136.778 123.923 134.811C123.615 134.981 123.504 135.144 123.491 135.3C122.989 135.162 122.319 135.036 121.588 134.906C119.625 134.556 117.213 134.167 116.409 133.39C114.705 137.35 104.974 131.463 105.017 135.116L99.3579 134.921L99.508 135.293C95.8925 135.534 94.6145 134.658 93.345 133.782C92.5101 134.031 93.1213 134.373 93.1896 134.563C87.9086 135.3 87.3835 135.146 82.9531 133.325L82.4932 134.509C81.2908 133.82 74.8558 136.368 69.6767 134.985C69.7271 135.118 69.8342 135.349 70.2448 135.516C64.4135 134.126 56.291 138.803 54.1551 134.488L50.3054 133.423C52.6156 133.268 52.6209 132.853 52.1683 132.382C51.3891 132.454 50.4356 132.465 49.3855 132.39C49.5745 133.807 45.9621 133.443 44.2074 133.799C43.632 133.916 43.2529 134.108 43.2833 134.471C38.8508 136.714 34.6021 136.114 30.5487 136.364C30.387 135.689 30.7356 133.359 30.7923 132.255C30.8501 133.361 31.1294 136.689 31.5936 135.395C31.3594 134.072 31.351 130.835 30.7503 130.023C30.9887 125.412 31.9243 130.728 32.6248 128.765C31.2355 127.195 31.7668 126.5 32.211 124.482L31.0517 124.464C30.8112 122.766 31.1515 122.026 31.687 121.635C32.8085 120.817 34.7985 121.545 34.1905 118.343L33.3588 120.343L32.9975 117.878L30.9572 118.388C31.9369 115.702 31.3279 114.867 30.9572 112.24C31.7742 112.852 34.138 111.895 34.1747 109.569C33.4858 107.982 33.0721 110.461 33.238 107.16C32.5124 107.905 31.602 108.723 32.6699 110.157C32.2919 110.304 31.9432 110.892 31.5684 111.044C30.7766 109.331 31.3877 106.748 31.3993 105.554C31.4423 106.012 31.5053 106.563 31.6702 106.842L33.2769 102.061C32.8411 101.309 32.4914 101.907 32.1491 102.498C32.274 101.529 32.8075 100.861 32.9072 99.4356C31.9653 99.8053 30.9918 99.7181 30.5487 101.73L31.5936 97.1758C31.184 96.8713 31.2701 94.8393 30.9225 95.4263C30.3681 92.905 32.7508 89.2339 32.0199 85.8851C32.2026 85.7097 32.378 85.3632 32.5134 84.6512C32.3003 81.502 31.1032 78.715 32.3948 74.984L30.7052 72.868C31.0895 69.9466 32.8348 75.7337 33.4722 70.8696C34.0109 67.4305 32.0304 69.5864 31.561 68.3746C32.4126 66.6629 34.0729 68.907 32.6972 65.742C32.4305 66.622 32.7434 65.0647 32.776 65.1193L33.0784 60.9566C31.5358 63.8665 32.0682 65.9751 30.7503 63.7069C34.0151 63.3645 28.6753 54.3399 31.938 54.0039L31.2502 52.414C31.2817 52.8708 31.0895 52.9454 31.1221 53.3938C29.5595 50.3054 32.5786 51.0962 32.1123 47.1131C32.0462 46.7403 31.9422 46.399 31.8225 46.1166C31.498 45.351 31.0433 45.015 30.7608 45.7049L31.5684 42.6113C31.5158 41.8668 31.1189 41.9004 31.0213 42.4454L31.2607 38.1137L31.1641 38.1515C31.6765 37.4784 31.7427 36.8987 32.0787 36.15C31.6104 34.9519 31.7322 36.7528 31.3247 36.4451L30.303 31.5212C33.7547 31.7186 39.7277 32.1827 43.2497 32.1418C43.2193 32.5009 43.6236 33.7936 44.1864 33.9122C44.4909 33.9773 44.8511 34.0194 45.2428 34.0498C45.3142 34.0572 45.3867 34.0635 45.4602 34.0687C47.279 34.1989 49.5367 34.2 49.3855 35.3278C50.4356 35.2532 51.3891 35.2637 52.1683 35.3362C52.6209 34.8647 52.6156 34.4489 50.3054 34.2945L54.1551 33.2297C56.291 28.9137 64.4146 33.592 70.2448 32.2016C69.8342 32.3675 69.7271 32.5996 69.6767 32.733C74.8558 31.35 81.2919 33.8965 82.4932 33.2087L82.9531 34.3942C87.3814 32.5734 87.9065 32.419 93.1885 33.1551C93.1234 33.3462 92.5101 33.6865 93.345 33.9353C94.6145 33.0585 95.8925 32.1827 99.5091 32.4253L99.3579 32.797L105.016 32.6017C104.975 36.255 114.705 30.3671 116.409 34.3291C117.088 33.6707 118.926 33.2916 120.665 32.9776C121.744 32.7823 122.787 32.6122 123.491 32.42C123.504 32.5734 123.614 32.7382 123.924 32.9083C126.094 30.9405 130.192 33.5237 132.599 33.3021C132.796 33.2423 132.957 33.1814 133.087 33.1173L133.81 35.5021C133.401 35.8087 133.524 34.0089 133.055 35.207C133.392 35.9547 134.183 37.4805 134.695 38.1547L134.599 38.1158L134.839 42.4454C134.742 41.9015 134.345 41.8668 134.292 42.6134L135.099 45.706C134.728 44.7976 134.056 45.6629 133.782 46.9619C133.771 47.0134 133.757 47.0606 133.748 47.1142C133.283 51.0993 136.302 50.3065 134.74 53.3948ZM122.999 116.482L121.928 112.652C117.59 110.527 122.293 102.445 120.897 96.6445C121.062 97.054 121.295 97.1601 121.43 97.2105C120.041 92.0587 122.599 85.6562 121.908 84.4601L123.101 84.0012C121.27 79.595 121.114 79.072 121.854 73.8173C122.046 73.8834 122.39 74.4936 122.638 73.6629C121.757 72.4007 120.877 71.129 121.12 67.5303L121.494 67.6815L121.298 62.0519C124.969 62.095 119.049 52.414 123.032 50.7202C122.346 50.0167 121.96 48.0729 121.636 46.2825L121.445 46.3329C121.525 46.3003 121.572 46.2636 121.625 46.2258C121.582 45.9874 121.541 45.7553 121.5 45.5285C121.179 45.3017 120.652 45.0969 120.031 44.9846C116.027 44.5236 116.822 47.5258 113.717 45.9696C114.169 46.0021 114.242 45.811 114.702 45.8425L113.105 45.1589C112.769 48.4037 103.695 43.0912 103.352 46.3402C101.072 45.0297 103.193 45.559 106.117 44.0248L101.934 44.3261C101.987 44.3587 100.424 44.6685 101.308 44.4038C98.1271 43.0345 100.381 44.6874 98.6606 45.5338C97.4425 45.0665 99.6109 43.0975 96.1519 43.631C91.2637 44.2652 97.0802 46.0021 94.1431 46.3833L92.0176 44.701C88.2698 45.9874 85.465 44.7955 82.3021 44.5845C81.5849 44.7178 81.2362 44.8921 81.0598 45.0749C77.6953 44.3482 74.0041 46.7172 71.4692 46.1659C72.0604 45.8215 70.0179 45.9055 69.7113 45.4991L65.1339 46.5377C67.1564 46.0966 67.0703 45.1295 67.441 44.1928C66.0076 44.2925 65.3366 44.8228 64.3621 44.9457C64.9554 44.6065 65.556 44.2589 64.8 43.8252L59.9947 45.4235C60.274 45.5873 60.8285 45.6503 61.2884 45.6934C60.0882 45.7039 57.4923 46.3129 55.7722 45.5243C55.9245 45.1526 56.5146 44.8039 56.6638 44.429C58.1056 45.4918 58.9267 44.5845 59.6755 43.8641C56.3592 44.029 58.849 43.6194 57.2539 42.9316C54.9143 42.9684 53.9524 45.3185 54.5678 46.1334C51.9267 45.7637 51.0888 45.1589 48.3868 46.1334L48.9003 44.1025L46.4221 43.7433L48.432 42.9169C44.4993 42.1766 46.462 45.2964 44.2746 45.979C43.9407 47.844 43.5511 49.9726 42.8244 50.7171C46.8064 52.4109 40.888 62.0918 44.5592 62.0488L44.3628 67.6773L44.7367 67.5272C44.9792 71.1259 44.1003 72.3975 43.2193 73.6598C43.4681 74.4904 43.8115 73.8824 44.0037 73.8141C44.744 79.0689 44.5886 79.5918 42.7583 83.9981L43.9501 84.458C43.2581 85.6541 45.8172 92.0566 44.4279 97.2084C44.5624 97.159 44.7955 97.0519 44.9624 96.6424C43.5648 102.442 48.2661 110.525 43.9291 112.65L42.8591 116.48C42.7026 114.181 42.2847 114.176 41.8111 114.626C41.8835 115.401 41.894 116.351 41.8195 117.395C43.0187 117.237 42.9515 119.751 43.1101 121.599C47.1267 121.473 43.9543 125.636 48.4299 124.794L46.42 123.966L48.8982 123.608L48.3847 121.577C51.0856 122.552 51.9246 121.946 54.5657 121.577C53.9503 122.39 54.9122 124.742 57.2518 124.779C58.8469 124.093 56.3561 123.682 59.6734 123.846C58.9246 123.124 58.1035 122.219 56.6617 123.281C56.5125 122.906 55.9224 122.558 55.7701 122.186C57.4902 121.398 60.0861 122.007 61.2863 122.017C60.8264 122.06 60.2709 122.123 59.9926 122.287L64.7979 123.885C65.5539 123.452 64.9533 123.104 64.36 122.764C65.3345 122.888 66.0044 123.418 67.4389 123.518C67.0671 122.579 67.1543 121.613 65.1318 121.172L69.7092 122.211C70.0158 121.804 72.0583 121.889 71.4671 121.544C74.002 120.992 77.6932 123.362 81.0577 122.635C81.2341 122.817 81.5827 122.992 82.3 123.126C85.4629 122.914 88.2677 121.723 92.0155 123.008L94.141 121.326C97.0781 121.708 91.2616 123.445 96.1498 124.078C99.6088 124.614 97.4404 122.645 98.6585 122.176C100.38 123.024 98.124 124.675 101.306 123.307C100.42 123.042 101.984 123.352 101.932 123.384L106.115 123.686C103.191 122.152 101.07 122.681 103.35 121.37C103.693 124.618 112.767 119.307 113.103 122.551L114.7 121.867C114.24 121.898 114.166 121.707 113.715 121.74C116.82 120.186 116.023 123.188 120.028 122.725C121.421 122.477 122.395 121.765 121.445 121.38L122.734 121.713C122.909 119.856 122.812 117.231 124.036 117.392C123.961 116.348 123.971 115.399 124.045 114.624C123.571 114.179 123.155 114.182 122.999 116.482Z" fill="#445B89"/>
<path d="M133.916 85.2508L134.113 85.4724C134.044 85.4514 133.974 85.4231 133.904 85.3611L133.916 85.2508Z" fill="#445B89"/>
<path d="M124.02 32.4778C123.997 32.2478 124.271 32.0346 124.892 31.8467C125.028 32.1029 124.662 32.2993 124.02 32.4778Z" fill="#445B89"/>
<path d="M468.251 85.4735L469.313 86.6611C469.307 84.7993 468.772 85.6184 468.251 85.4735Z" fill="#445B89"/>
<path d="M468.042 85.3611C468.11 85.4231 468.182 85.4525 468.251 85.4724L468.054 85.2508L468.042 85.3611Z" fill="#445B89"/>
<path d="M364.825 86.66L365.889 85.4724C365.365 85.6183 364.83 84.7992 364.825 86.66Z" fill="#445B89"/>
<path d="M365.26 53.3948C365.226 52.9464 365.418 52.8719 365.388 52.4151L366.076 54.005C362.814 54.341 368.154 63.3656 364.887 63.7079C366.206 65.9762 365.675 63.8654 367.216 60.9577L366.914 65.1203C366.881 65.0636 366.567 66.6241 366.834 65.743C368.211 68.9081 366.549 66.664 365.699 68.3756C366.168 69.5875 368.149 67.4316 367.61 70.8707C366.973 75.7358 365.225 69.9476 364.842 72.869L366.532 74.985C365.24 78.716 366.436 81.503 366.649 84.6523C366.515 85.3653 366.339 85.7118 366.156 85.8861C366.888 89.2339 364.505 92.9061 365.058 95.4274C365.405 94.8393 365.321 96.8723 365.73 97.1769L364.687 101.731C365.131 99.7181 366.104 99.8063 367.045 99.4367C366.946 100.862 366.413 101.53 366.288 102.499C366.628 101.909 366.979 101.31 367.414 102.062L365.808 106.843C365.643 106.565 365.58 106.014 365.537 105.555C365.526 106.749 364.914 109.332 365.707 111.045C366.08 110.892 366.43 110.304 366.807 110.158C365.74 108.722 366.65 107.905 367.377 107.161C367.211 110.464 367.623 107.984 368.314 109.57C368.277 111.897 365.913 112.854 365.097 112.241C365.467 114.868 366.077 115.704 365.097 118.389L367.136 117.879L367.498 120.344L368.329 118.344C368.648 120.016 368.252 120.608 367.645 120.916C366.534 121.477 364.71 121.069 365.192 124.465L366.351 124.483C365.906 126.501 365.374 127.195 366.766 128.766C366.064 130.729 365.128 125.413 364.891 130.024C365.49 130.836 365.927 132.585 366.161 133.909C365.7 135.202 364.991 133.362 364.932 132.256C364.848 133.889 365.061 134.955 365.402 135.736C366.044 135.758 366.656 135.867 367.192 136.136C366.512 135.512 365.833 134.888 367.401 134.418C369.808 134.195 373.904 136.778 376.077 134.811C376.385 134.981 376.496 135.144 376.509 135.3C377.011 135.162 377.681 135.036 378.412 134.906C380.375 134.556 382.787 134.167 383.591 133.39C385.295 137.35 395.026 131.463 394.983 135.116L400.642 134.921L400.492 135.293C404.107 135.534 405.385 134.658 406.655 133.782C407.49 134.031 406.879 134.373 406.81 134.563C412.091 135.3 412.616 135.146 417.047 133.325L417.507 134.509C418.709 133.82 425.144 136.368 430.323 134.985C430.273 135.118 430.166 135.349 429.755 135.516C435.586 134.126 443.709 138.803 445.845 134.488L449.695 133.423C447.384 133.268 447.379 132.853 447.832 132.382C448.611 132.454 449.564 132.465 450.615 132.39C450.426 133.807 454.038 133.443 455.793 133.799C456.368 133.916 456.747 134.108 456.717 134.471C461.149 136.714 465.398 136.114 469.451 136.364C469.613 135.689 469.264 133.359 469.208 132.255C469.15 133.361 468.871 136.689 468.406 135.395C468.641 134.072 468.649 130.835 469.25 130.023C469.011 125.412 468.076 130.728 467.375 128.765C468.765 127.195 468.233 126.5 467.789 124.482L468.948 124.464C469.189 122.766 468.849 122.026 468.313 121.635C467.191 120.817 465.202 121.545 465.81 118.343L466.641 120.343L467.002 117.878L469.043 118.388C468.063 115.702 468.672 114.867 469.043 112.24C468.226 112.852 465.862 111.895 465.825 109.569C466.514 107.982 466.928 110.461 466.762 107.16C467.488 107.905 468.398 108.723 467.33 110.157C467.708 110.304 468.057 110.892 468.432 111.044C469.223 109.331 468.612 106.748 468.601 105.554C468.558 106.012 468.495 106.563 468.33 106.842L466.723 102.061C467.159 101.309 467.509 101.907 467.851 102.498C467.726 101.529 467.193 100.861 467.093 99.4356C468.035 99.8053 469.008 99.7181 469.451 101.73L468.406 97.1758C468.816 96.8713 468.73 94.8393 469.077 95.4263C469.632 92.905 467.249 89.2339 467.98 85.8851C467.797 85.7097 467.622 85.3632 467.487 84.6512C467.7 81.502 468.897 78.715 467.605 74.984L469.295 72.868C468.91 69.9466 467.165 75.7337 466.528 70.8696C465.989 67.4305 467.97 69.5864 468.439 68.3746C467.587 66.6629 465.927 68.907 467.303 65.742C467.57 66.622 467.257 65.0647 467.224 65.1193L466.922 60.9566C468.464 63.8665 467.932 65.9751 469.25 63.7069C465.985 63.3645 471.325 54.3399 468.062 54.0039L468.75 52.414C468.718 52.8708 468.91 52.9454 468.878 53.3938C470.44 50.3054 467.421 51.0962 467.888 47.1131C467.954 46.7403 468.058 46.399 468.178 46.1166C468.502 45.351 468.957 45.015 469.239 45.7049L468.432 42.6113C468.484 41.8668 468.881 41.9004 468.979 42.4454L468.739 38.1137L468.836 38.1515C468.323 37.4784 468.257 36.8987 467.921 36.15C468.39 34.9519 468.268 36.7528 468.675 36.4451L469.697 31.5212C466.245 31.7186 460.272 32.1827 456.75 32.1418C456.781 32.5009 456.376 33.7936 455.814 33.9122C455.509 33.9773 455.149 34.0194 454.757 34.0498C454.686 34.0572 454.613 34.0635 454.54 34.0687C452.721 34.1989 450.463 34.2 450.615 35.3278C449.564 35.2532 448.611 35.2637 447.832 35.3362C447.379 34.8647 447.384 34.4489 449.695 34.2945L445.845 33.2297C443.709 28.9137 435.585 33.592 429.755 32.2016C430.166 32.3675 430.273 32.5996 430.323 32.733C425.144 31.35 418.708 33.8965 417.507 33.2087L417.047 34.3942C412.619 32.5734 412.094 32.419 406.812 33.1551C406.877 33.3462 407.49 33.6865 406.655 33.9353C405.385 33.0585 404.107 32.1827 400.491 32.4253L400.642 32.797L394.984 32.6017C395.025 36.255 385.295 30.3671 383.591 34.3291C382.912 33.6707 381.074 33.2916 379.336 32.9776C378.256 32.7823 377.213 32.6122 376.509 32.42C376.496 32.5734 376.386 32.7382 376.076 32.9083C373.906 30.9405 369.808 33.5237 367.401 33.3021C367.204 33.2423 367.043 33.1814 366.913 33.1173L366.19 35.5021C366.599 35.8087 366.476 34.0089 366.945 35.207C366.608 35.9547 365.818 37.4805 365.305 38.1547L365.401 38.1158L365.161 42.4454C365.258 41.9015 365.655 41.8668 365.708 42.6134L364.901 45.706C365.273 44.7976 365.944 45.6629 366.218 46.9619C366.229 47.0134 366.243 47.0606 366.252 47.1142C366.717 51.0993 363.698 50.3065 365.26 53.3948ZM377.001 116.482L378.072 112.652C382.41 110.527 377.707 102.445 379.103 96.6445C378.938 97.054 378.705 97.1601 378.57 97.2105C379.959 92.0587 377.401 85.6562 378.092 84.4601L376.899 84.0012C378.73 79.595 378.886 79.072 378.146 73.8173C377.954 73.8834 377.61 74.4936 377.362 73.6629C378.243 72.4007 379.123 71.129 378.88 67.5303L378.506 67.6815L378.702 62.0519C375.031 62.095 380.951 52.414 376.968 50.7202C377.654 50.0167 378.04 48.0729 378.364 46.2825L378.555 46.3329C378.475 46.3003 378.428 46.2636 378.375 46.2258C378.418 45.9874 378.459 45.7553 378.5 45.5285C378.821 45.3017 379.348 45.0969 379.969 44.9846C383.973 44.5236 383.178 47.5258 386.283 45.9696C385.831 46.0021 385.758 45.811 385.298 45.8425L386.895 45.1589C387.231 48.4037 396.305 43.0912 396.648 46.3402C398.928 45.0297 396.807 45.559 393.883 44.0248L398.066 44.3261C398.013 44.3587 399.576 44.6685 398.692 44.4038C401.873 43.0345 399.619 44.6874 401.339 45.5338C402.558 45.0665 400.389 43.0975 403.848 43.631C408.736 44.2652 402.92 46.0021 405.857 46.3833L407.982 44.701C411.73 45.9874 414.535 44.7955 417.698 44.5845C418.415 44.7178 418.764 44.8921 418.94 45.0749C422.305 44.3482 425.996 46.7172 428.531 46.1659C427.94 45.8215 429.982 45.9055 430.289 45.4991L434.866 46.5377C432.844 46.0966 432.93 45.1295 432.559 44.1928C433.992 44.2925 434.663 44.8228 435.638 44.9457C435.045 44.6065 434.444 44.2589 435.2 43.8252L440.005 45.4235C439.726 45.5873 439.172 45.6503 438.712 45.6934C439.912 45.7039 442.508 46.3129 444.228 45.5243C444.076 45.1526 443.485 44.8039 443.336 44.429C441.894 45.4918 441.073 44.5845 440.325 43.8641C443.641 44.029 441.151 43.6194 442.746 42.9316C445.086 42.9684 446.048 45.3185 445.432 46.1334C448.073 45.7637 448.911 45.1589 451.613 46.1334L451.1 44.1025L453.578 43.7433L451.568 42.9169C455.501 42.1766 453.538 45.2964 455.725 45.979C456.059 47.844 456.449 49.9726 457.176 50.7171C453.194 52.4109 459.112 62.0918 455.441 62.0488L455.637 67.6773L455.263 67.5272C455.021 71.1259 455.9 72.3975 456.781 73.6598C456.532 74.4904 456.188 73.8824 455.996 73.8141C455.256 79.0689 455.411 79.5918 457.242 83.9981L456.05 84.458C456.742 85.6541 454.183 92.0566 455.572 97.2084C455.438 97.159 455.205 97.0519 455.038 96.6424C456.435 102.442 451.734 110.525 456.071 112.65L457.141 116.48C457.297 114.181 457.715 114.176 458.189 114.626C458.116 115.401 458.106 116.351 458.181 117.395C456.981 117.237 457.049 119.751 456.89 121.599C452.873 121.473 456.046 125.636 451.57 124.794L453.58 123.966L451.102 123.608L451.615 121.577C448.914 122.552 448.075 121.946 445.434 121.577C446.05 122.39 445.088 124.742 442.748 124.779C441.153 124.093 443.644 123.682 440.327 123.846C441.075 123.124 441.897 122.219 443.338 123.281C443.487 122.906 444.078 122.558 444.23 122.186C442.51 121.398 439.914 122.007 438.714 122.017C439.174 122.06 439.729 122.123 440.007 122.287L435.202 123.885C434.446 123.452 435.047 123.104 435.64 122.764C434.666 122.888 433.996 123.418 432.561 123.518C432.933 122.579 432.846 121.613 434.868 121.172L430.291 122.211C429.984 121.804 427.942 121.889 428.533 121.544C425.998 120.992 422.307 123.362 418.942 122.635C418.766 122.817 418.417 122.992 417.7 123.126C414.537 122.914 411.732 121.723 407.984 123.008L405.859 121.326C402.922 121.708 408.738 123.445 403.85 124.078C400.391 124.614 402.56 122.645 401.342 122.176C399.62 123.024 401.876 124.675 398.694 123.307C399.58 123.042 398.016 123.352 398.068 123.384L393.885 123.686C396.809 122.152 398.93 122.681 396.65 121.37C396.307 124.618 387.233 119.307 386.897 122.551L385.3 121.867C385.76 121.898 385.834 121.707 386.285 121.74C383.18 120.186 383.977 123.188 379.972 122.725C378.579 122.477 377.605 121.765 378.555 121.38L377.266 121.713C377.091 119.856 377.188 117.231 375.964 117.392C376.039 116.348 376.029 115.399 375.955 114.624C376.429 114.179 376.845 114.182 377.001 116.482Z" fill="#445B89"/>
<path d="M366.084 85.2508L365.887 85.4724C365.956 85.4514 366.026 85.4231 366.096 85.3611L366.084 85.2508Z" fill="#445B89"/>
<path d="M375.98 32.4778C376.003 32.2478 375.729 32.0346 375.108 31.8467C374.972 32.1029 375.338 32.2993 375.98 32.4778Z" fill="#445B89"/>
<path d="M31.7489 414.527L30.6873 413.339C30.6925 415.201 31.2281 414.382 31.7489 414.527Z" fill="#445B89"/>
<path d="M31.958 414.639C31.8897 414.577 31.8183 414.548 31.749 414.528L31.9464 414.749L31.958 414.639Z" fill="#445B89"/>
<path d="M135.175 413.34L134.111 414.528C134.635 414.382 135.17 415.201 135.175 413.34Z" fill="#445B89"/>
<path d="M134.74 446.605C134.774 447.054 134.582 447.128 134.612 447.585L133.924 445.995C137.186 445.659 131.846 436.634 135.113 436.292C133.794 434.024 134.325 436.135 132.784 439.042L133.086 434.88C133.119 434.936 133.433 433.376 133.166 434.257C131.789 431.092 133.451 433.336 134.301 431.624C133.832 430.413 131.851 432.568 132.39 429.129C133.027 424.264 134.775 430.052 135.158 427.131L133.468 425.015C134.76 421.284 133.564 418.497 133.351 415.348C133.485 414.635 133.661 414.288 133.844 414.114C133.112 410.766 135.495 407.094 134.942 404.573C134.595 405.161 134.679 403.128 134.27 402.823L135.313 398.269C134.869 400.282 133.896 400.194 132.955 400.563C133.054 399.138 133.587 398.47 133.712 397.501C133.372 398.091 133.021 398.69 132.586 397.938L134.192 393.157C134.357 393.435 134.42 393.986 134.463 394.445C134.474 393.251 135.086 390.668 134.293 388.955C133.92 389.108 133.57 389.696 133.193 389.842C134.26 391.278 133.35 392.095 132.623 392.839C132.789 389.536 132.377 392.016 131.686 390.43C131.723 388.103 134.087 387.146 134.903 387.759C134.533 385.132 133.923 384.296 134.903 381.611L132.864 382.121L132.502 379.656L131.671 381.656C131.352 379.984 131.748 379.392 132.355 379.084C133.466 378.523 135.29 378.931 134.808 375.535L133.649 375.517C134.094 373.499 134.626 372.805 133.234 371.234C133.936 369.271 134.872 374.587 135.109 369.976C134.51 369.164 134.073 367.415 133.839 366.091C134.3 364.798 135.009 366.638 135.068 367.744C135.152 366.111 134.939 365.045 134.598 364.264C133.956 364.242 133.345 364.133 132.808 363.864C133.488 364.488 134.167 365.112 132.599 365.582C130.192 365.805 126.096 363.222 123.923 365.189C123.615 365.019 123.504 364.856 123.491 364.7C122.989 364.838 122.319 364.964 121.588 365.094C119.625 365.444 117.213 365.833 116.409 366.61C114.705 362.65 104.974 368.537 105.017 364.884L99.3579 365.079L99.508 364.707C95.8925 364.466 94.6145 365.342 93.345 366.218C92.5101 365.969 93.1213 365.627 93.1896 365.437C87.9086 364.7 87.3835 364.854 82.9531 366.675L82.4932 365.491C81.2908 366.18 74.8558 363.632 69.6767 365.015C69.7271 364.882 69.8342 364.651 70.2448 364.484C64.4135 365.874 56.291 361.197 54.1551 365.512L50.3054 366.577C52.6156 366.732 52.6209 367.147 52.1683 367.618C51.3891 367.546 50.4356 367.535 49.3855 367.61C49.5745 366.193 45.9621 366.557 44.2074 366.201C43.632 366.084 43.2529 365.892 43.2833 365.529C38.8508 363.286 34.6021 363.886 30.5487 363.636C30.387 364.311 30.7356 366.641 30.7923 367.745C30.8501 366.639 31.1294 363.311 31.5936 364.605C31.3594 365.928 31.351 369.165 30.7503 369.977C30.9887 374.588 31.9243 369.272 32.6248 371.235C31.2355 372.805 31.7668 373.5 32.211 375.518L31.0517 375.536C30.8112 377.234 31.1515 377.974 31.687 378.365C32.8085 379.183 34.7985 378.455 34.1905 381.657L33.3588 379.657L32.9975 382.122L30.9572 381.612C31.9369 384.298 31.3279 385.133 30.9572 387.76C31.7742 387.148 34.138 388.105 34.1747 390.431C33.4858 392.018 33.0721 389.539 33.238 392.84C32.5124 392.095 31.602 391.277 32.6699 389.843C32.2919 389.696 31.9432 389.108 31.5684 388.956C30.7766 390.669 31.3877 393.252 31.3993 394.446C31.4423 393.988 31.5053 393.437 31.6702 393.158L33.2769 397.939C32.8411 398.691 32.4914 398.093 32.1491 397.502C32.274 398.471 32.8075 399.139 32.9072 400.564C31.9653 400.195 30.9918 400.282 30.5487 398.27L31.5936 402.824C31.184 403.129 31.2701 405.161 30.9225 404.574C30.3681 407.095 32.7508 410.766 32.0199 414.115C32.2026 414.29 32.378 414.637 32.5134 415.349C32.3003 418.498 31.1032 421.285 32.3948 425.016L30.7052 427.132C31.0895 430.053 32.8348 424.266 33.4722 429.13C34.0109 432.569 32.0304 430.414 31.561 431.625C32.4126 433.337 34.0729 431.093 32.6972 434.258C32.4305 433.378 32.7434 434.935 32.776 434.881L33.0784 439.043C31.5358 436.134 32.0682 434.025 30.7503 436.293C34.0151 436.635 28.6753 445.66 31.938 445.996L31.2502 447.586C31.2817 447.129 31.0895 447.055 31.1221 446.606C29.5595 449.695 32.5786 448.904 32.1123 452.887C32.0462 453.26 31.9422 453.601 31.8225 453.883C31.498 454.649 31.0433 454.985 30.7608 454.295L31.5684 457.389C31.5158 458.133 31.1189 458.1 31.0213 457.555L31.2607 461.886L31.1641 461.848C31.6765 462.522 31.7427 463.101 32.0787 463.85C31.6104 465.048 31.7322 463.247 31.3247 463.555L30.303 468.479C33.7547 468.281 39.7277 467.817 43.2497 467.858C43.2193 467.499 43.6236 466.206 44.1864 466.088C44.4909 466.023 44.8511 465.981 45.2428 465.95C45.3142 465.943 45.3867 465.937 45.4602 465.931C47.279 465.801 49.5367 465.8 49.3855 464.672C50.4356 464.747 51.3891 464.736 52.1683 464.664C52.6209 465.135 52.6156 465.551 50.3054 465.706L54.1551 466.77C56.291 471.086 64.4146 466.408 70.2448 467.798C69.8342 467.632 69.7271 467.4 69.6767 467.267C74.8558 468.65 81.2919 466.104 82.4932 466.791L82.9531 465.606C87.3814 467.427 87.9065 467.581 93.1885 466.845C93.1234 466.654 92.5101 466.314 93.345 466.065C94.6145 466.941 95.8925 467.817 99.5091 467.575L99.3579 467.203L105.016 467.398C104.975 463.745 114.705 469.633 116.409 465.671C117.088 466.329 118.926 466.708 120.665 467.022C121.744 467.218 122.787 467.388 123.491 467.58C123.504 467.427 123.614 467.262 123.924 467.092C126.094 469.06 130.192 466.476 132.599 466.698C132.796 466.758 132.957 466.819 133.087 466.883L133.81 464.498C133.401 464.191 133.524 465.991 133.055 464.793C133.392 464.045 134.183 462.52 134.695 461.845L134.599 461.884L134.839 457.555C134.742 458.099 134.345 458.133 134.292 457.387L135.099 454.294C134.728 455.202 134.056 454.337 133.782 453.038C133.771 452.987 133.757 452.939 133.748 452.886C133.283 448.901 136.302 449.694 134.74 446.605ZM122.999 383.518L121.928 387.348C117.59 389.473 122.293 397.555 120.897 403.356C121.062 402.946 121.295 402.84 121.43 402.79C120.041 407.941 122.599 414.344 121.908 415.54L123.101 415.999C121.27 420.405 121.114 420.928 121.854 426.183C122.046 426.117 122.39 425.506 122.638 426.337C121.757 427.599 120.877 428.871 121.12 432.47L121.494 432.318L121.298 437.948C124.969 437.905 119.049 447.586 123.032 449.28C122.346 449.983 121.96 451.927 121.636 453.718L121.445 453.667C121.525 453.7 121.572 453.736 121.625 453.774C121.582 454.013 121.541 454.245 121.5 454.471C121.179 454.698 120.652 454.903 120.031 455.015C116.027 455.476 116.822 452.474 113.717 454.03C114.169 453.998 114.242 454.189 114.702 454.158L113.105 454.841C112.769 451.596 103.695 456.909 103.352 453.66C101.072 454.97 103.193 454.441 106.117 455.975L101.934 455.674C101.987 455.641 100.424 455.332 101.308 455.596C98.1271 456.965 100.381 455.313 98.6606 454.466C97.4425 454.934 99.6109 456.902 96.1519 456.369C91.2637 455.735 97.0802 453.998 94.1431 453.617L92.0176 455.299C88.2698 454.013 85.465 455.204 82.3021 455.416C81.5849 455.282 81.2362 455.108 81.0598 454.925C77.6953 455.652 74.0041 453.283 71.4692 453.834C72.0604 454.179 70.0179 454.095 69.7113 454.501L65.1339 453.462C67.1564 453.903 67.0703 454.871 67.441 455.807C66.0076 455.707 65.3366 455.177 64.3621 455.054C64.9554 455.393 65.556 455.741 64.8 456.175L59.9947 454.576C60.274 454.413 60.8285 454.35 61.2884 454.307C60.0882 454.296 57.4923 453.687 55.7722 454.476C55.9245 454.847 56.5146 455.196 56.6638 455.571C58.1056 454.508 58.9267 455.416 59.6755 456.136C56.3592 455.971 58.849 456.381 57.2539 457.068C54.9143 457.032 53.9524 454.682 54.5678 453.867C51.9267 454.236 51.0888 454.841 48.3868 453.867L48.9003 455.898L46.4221 456.257L48.432 457.083C44.4993 457.823 46.462 454.704 44.2746 454.021C43.9407 452.156 43.5511 450.027 42.8244 449.283C46.8064 447.589 40.888 437.908 44.5592 437.951L44.3628 432.323L44.7367 432.473C44.9792 428.874 44.1003 427.602 43.2193 426.34C43.4681 425.51 43.8115 426.118 44.0037 426.186C44.744 420.931 44.5886 420.408 42.7583 416.002L43.9501 415.542C43.2581 414.346 45.8172 407.943 44.4279 402.792C44.5624 402.841 44.7955 402.948 44.9624 403.358C43.5648 397.558 48.2661 389.475 43.9291 387.35L42.8591 383.52C42.7026 385.819 42.2847 385.824 41.8111 385.374C41.8835 384.599 41.894 383.649 41.8195 382.605C43.0187 382.763 42.9515 380.249 43.1101 378.401C47.1267 378.527 43.9543 374.364 48.4299 375.206L46.42 376.034L48.8982 376.392L48.3847 378.423C51.0856 377.448 51.9246 378.054 54.5657 378.423C53.9503 377.61 54.9122 375.258 57.2518 375.221C58.8469 375.907 56.3561 376.318 59.6734 376.154C58.9246 376.876 58.1035 377.781 56.6617 376.719C56.5125 377.094 55.9224 377.442 55.7701 377.814C57.4902 378.602 60.0861 377.993 61.2863 377.983C60.8264 377.94 60.2709 377.877 59.9926 377.713L64.7979 376.115C65.5539 376.548 64.9533 376.896 64.36 377.236C65.3345 377.112 66.0044 376.582 67.4389 376.482C67.0671 377.421 67.1543 378.387 65.1318 378.828L69.7092 377.789C70.0158 378.196 72.0583 378.111 71.4671 378.456C74.002 379.008 77.6932 376.638 81.0577 377.365C81.2341 377.183 81.5827 377.008 82.3 376.874C85.4629 377.086 88.2677 378.277 92.0155 376.992L94.141 378.674C97.0781 378.292 91.2616 376.555 96.1498 375.922C99.6088 375.386 97.4404 377.355 98.6585 377.824C100.38 376.976 98.124 375.325 101.306 376.693C100.42 376.958 101.984 376.648 101.932 376.616L106.115 376.314C103.191 377.848 101.07 377.319 103.35 378.63C103.693 375.382 112.767 380.693 113.103 377.449L114.7 378.133C114.24 378.102 114.166 378.293 113.715 378.26C116.82 379.814 116.023 376.812 120.028 377.275C121.421 377.523 122.395 378.235 121.445 378.62L122.734 378.287C122.909 380.144 122.812 382.769 124.036 382.608C123.961 383.652 123.971 384.601 124.045 385.376C123.571 385.821 123.155 385.818 122.999 383.518Z" fill="#445B89"/>
<path d="M133.916 414.749L134.113 414.528C134.044 414.549 133.974 414.577 133.904 414.639L133.916 414.749Z" fill="#445B89"/>
<path d="M124.02 467.522C123.997 467.752 124.271 467.965 124.892 468.153C125.028 467.897 124.662 467.701 124.02 467.522Z" fill="#445B89"/>
<path d="M106.109 101.901C105.432 101.812 105.485 103.266 105.389 104.293L104.677 104.109C105.202 104.322 104.664 104.716 103.895 104.854C101.681 105.11 102.121 103.447 100.404 104.308C100.654 104.29 100.695 104.396 100.948 104.379L100.066 104.757C99.8792 102.961 94.8642 105.902 94.6746 104.104C93.4142 104.829 94.586 104.536 96.2024 105.386L93.8896 105.219C93.9183 105.201 93.0546 105.029 93.5437 105.176C91.7855 105.933 93.0319 105.019 92.0805 104.549C91.4074 104.809 92.606 105.899 90.6942 105.602C87.9924 105.251 91.2074 104.291 89.5837 104.079L88.4087 105.01C86.3365 104.298 84.7865 104.957 83.0383 105.075C82.6419 105.001 82.4492 104.904 82.3519 104.803C80.4924 105.206 78.4519 103.894 77.051 104.199C77.3778 104.391 76.2487 104.343 76.0792 104.569L73.5487 103.993C74.6665 104.237 74.6187 104.772 74.8242 105.292C74.0315 105.237 73.661 104.943 73.1224 104.875C73.4505 105.063 73.7824 105.256 73.3642 105.496L70.7087 104.611C70.8628 104.52 71.1696 104.485 71.4242 104.461C70.761 104.456 69.3255 104.119 68.3751 104.555C68.4592 104.761 68.7855 104.953 68.8678 105.161C69.6646 104.573 70.1187 105.075 70.5324 105.474C68.6992 105.383 70.0755 105.611 69.1942 105.99C67.901 105.97 67.3692 104.668 67.7096 104.218C66.2501 104.422 65.7865 104.757 64.2933 104.218L64.5774 105.342L63.2074 105.54L64.3183 105.998C61.8442 106.464 63.5978 104.16 61.3774 104.23C61.2896 103.206 61.3265 101.814 60.6637 101.901C60.7051 101.323 60.6996 100.798 60.6592 100.369C60.921 100.12 61.1515 100.122 61.2383 101.395L61.8296 99.2747C64.2274 98.0978 61.6287 93.6242 62.401 90.4128C62.3087 90.6397 62.1801 90.6983 62.106 90.726C62.8737 87.8737 61.4592 84.3292 61.8419 83.6669L61.1833 83.4128C62.1946 80.9733 62.2805 80.6847 61.8715 77.7756C61.7655 77.8124 61.5755 78.1487 61.4378 77.6892C61.9246 76.9906 62.411 76.2865 62.2765 74.2942L62.0696 74.3774L62.1778 71.261C60.1487 71.2842 63.4196 65.9256 61.2187 64.9869C61.6201 64.5751 61.8351 63.3969 62.0201 62.3642C63.2292 61.9856 62.1442 60.2587 64.3183 60.6683L63.2074 61.1269L64.5774 61.3251L64.2933 62.4492C65.7865 61.9097 66.2501 62.2456 67.7096 62.4492C67.3692 61.9992 67.901 60.6974 69.1942 60.6769C70.0755 61.0569 68.6992 61.2847 70.5324 61.1933C70.1187 61.5928 69.6646 62.0942 68.8678 61.506C68.7855 61.7142 68.4592 61.9069 68.3751 62.1124C69.3255 62.5487 70.761 62.2115 71.4242 62.206C71.1696 62.1819 70.8628 62.1474 70.7087 62.0565L73.3646 61.1715C73.7824 61.4115 73.451 61.6042 73.1228 61.7928C73.6615 61.7242 74.0319 61.4306 74.8246 61.3756C74.6192 61.8951 74.6669 62.4301 73.5492 62.6742L76.0796 62.0983C76.2492 62.3237 77.3783 62.2769 77.0515 62.4678C78.4528 62.7733 80.4928 61.4606 82.3524 61.8637C82.4496 61.7624 82.6428 61.666 83.0387 61.5915C84.7874 61.7092 86.3374 62.3683 88.4092 61.6569L89.5842 62.5883C91.2078 62.3765 87.9928 61.4151 90.6946 61.0642C92.6065 60.7678 91.4074 61.8578 92.081 62.1169C93.0324 61.6478 91.786 60.7333 93.5442 61.491C93.0551 61.6378 93.9187 61.4656 93.8901 61.4474L96.2028 61.2806C94.586 62.1301 93.4142 61.8374 94.6751 62.5624C94.8646 60.7647 99.8796 63.7051 100.066 61.9087L100.949 62.2874C100.695 62.2701 100.654 62.376 100.405 62.3578C102.121 63.2187 101.681 61.556 103.895 61.8124C104.239 61.8737 104.53 61.9874 104.708 62.1128C104.731 62.2378 104.753 62.3678 104.777 62.4987C104.747 62.5187 104.721 62.5397 104.677 62.5574L104.782 62.5301C104.961 63.5201 105.174 64.5965 105.553 64.986C103.352 65.9242 106.623 71.2833 104.595 71.2601L104.703 74.3765L104.496 74.2933C104.361 76.2856 104.848 76.9897 105.335 77.6883C105.197 78.1483 105.007 77.8115 104.901 77.7747C104.492 80.6833 104.578 80.9724 105.59 83.4119L104.931 83.666C105.314 84.3283 103.899 87.8728 104.667 90.7251C104.593 90.6974 104.464 90.6387 104.372 90.4119C105.145 93.6233 102.545 98.0974 104.943 99.2742L105.535 101.395C105.621 100.121 105.851 100.119 106.114 100.369C106.073 100.798 106.067 101.323 106.109 101.901Z" fill="#445B89"/>
<path d="M439.442 64.7652C438.766 64.8542 438.818 63.4011 438.722 62.3733L438.01 62.5579C438.536 62.3442 437.997 61.9506 437.228 61.8129C435.014 61.557 435.454 63.2192 433.737 62.3583C433.987 62.3765 434.028 62.2706 434.282 62.2879L433.399 61.9092C433.212 63.7052 428.197 60.7647 428.008 62.5629C426.747 61.8374 427.919 62.1302 429.536 61.2811L427.223 61.4479C427.252 61.4661 426.388 61.6379 426.877 61.4911C425.119 60.7338 426.365 61.6479 425.414 62.1174C424.741 61.8579 425.939 60.7679 424.027 61.0642C421.326 61.4152 424.541 62.3761 422.917 62.5879L421.742 61.657C419.67 62.3683 418.12 61.7092 416.372 61.5915C415.975 61.6661 415.782 61.7624 415.685 61.8633C413.826 61.4602 411.785 62.7729 410.384 62.4674C410.711 62.2761 409.582 62.3233 409.412 62.0979L406.882 62.6738C408 62.4297 407.952 61.8942 408.157 61.3747C407.365 61.4297 406.994 61.7233 406.456 61.792C406.784 61.6033 407.116 61.4111 406.697 61.1711L404.042 62.0561C404.196 62.147 404.503 62.1815 404.757 62.2052C404.094 62.2111 402.659 62.5479 401.708 62.1115C401.792 61.9061 402.119 61.7138 402.201 61.5052C402.998 62.0933 403.452 61.592 403.866 61.1924C402.032 61.2838 403.409 61.0561 402.527 60.6765C401.234 60.697 400.702 61.9988 401.043 62.4488C399.583 62.2447 399.12 61.9092 397.627 62.4488L397.911 61.3247L396.541 61.1265L397.652 60.6683C395.177 60.2024 396.931 62.5065 394.711 62.437C394.623 63.4606 394.66 64.8524 393.997 64.7652C394.038 65.3433 394.033 65.8688 393.992 66.2979C394.254 66.547 394.485 66.5442 394.572 65.2715L395.163 67.392C397.561 68.5688 394.962 73.0424 395.734 76.2538C395.642 76.027 395.513 75.9683 395.439 75.9406C396.207 78.7929 394.792 82.3374 395.175 82.9997L394.517 83.2538C395.528 85.6933 395.614 85.982 395.205 88.8911C395.099 88.8542 394.909 88.5179 394.771 88.9774C395.258 89.6761 395.744 90.3802 395.61 92.3724L395.403 92.2892L395.511 95.4056C393.482 95.3824 396.753 100.741 394.552 101.68C394.953 102.092 395.168 103.27 395.353 104.302C396.562 104.681 395.477 106.408 397.652 105.998L396.541 105.54L397.911 105.342L397.627 104.217C399.12 104.757 399.583 104.421 401.043 104.217C400.702 104.667 401.234 105.969 402.527 105.99C403.409 105.61 402.032 105.382 403.866 105.473C403.452 105.074 402.998 104.572 402.201 105.161C402.119 104.952 401.792 104.76 401.708 104.554C402.659 104.118 404.094 104.455 404.757 104.461C404.503 104.485 404.196 104.519 404.042 104.61L406.698 105.495C407.116 105.255 406.784 105.062 406.456 104.874C406.995 104.942 407.365 105.236 408.158 105.291C407.952 104.772 408 104.237 406.882 103.992L409.413 104.568C409.582 104.343 410.712 104.39 410.385 104.199C411.786 103.893 413.826 105.206 415.686 104.803C415.783 104.904 415.976 105.001 416.372 105.075C418.121 104.957 419.671 104.298 421.742 105.01L422.917 104.078C424.541 104.29 421.326 105.252 424.028 105.602C425.94 105.899 424.741 104.809 425.414 104.55C426.366 105.019 425.119 105.933 426.877 105.176C426.388 105.029 427.252 105.201 427.223 105.219L429.536 105.386C427.919 104.537 426.747 104.829 428.008 104.104C428.198 105.902 433.213 102.962 433.399 104.758L434.282 104.379C434.028 104.397 433.987 104.291 433.738 104.309C435.454 103.448 435.015 105.111 437.228 104.854C437.572 104.793 437.863 104.679 438.041 104.554C438.064 104.429 438.087 104.299 438.11 104.168C438.081 104.148 438.054 104.127 438.01 104.109L438.115 104.137C438.294 103.147 438.507 102.07 438.887 101.681C436.686 100.742 439.957 95.3833 437.928 95.4065L438.036 92.2902L437.829 92.3733C437.695 90.3811 438.181 89.677 438.668 88.9783C438.53 88.5183 438.34 88.8552 438.235 88.892C437.826 85.9833 437.912 85.6943 438.923 83.2547L438.265 83.0006C438.647 82.3383 437.232 78.7938 438 75.9415C437.926 75.9692 437.797 76.0279 437.706 76.2547C438.478 73.0433 435.878 68.5692 438.277 67.3924L438.868 65.272C438.954 66.5452 439.184 66.5474 439.447 66.2979C439.406 65.8688 439.401 65.3433 439.442 64.7652Z" fill="#445B89"/>
<path d="M106.109 398.098C105.432 398.187 105.485 396.734 105.389 395.707L104.677 395.891C105.202 395.677 104.664 395.284 103.895 395.146C101.681 394.89 102.121 396.552 100.404 395.692C100.654 395.71 100.695 395.604 100.948 395.621L100.066 395.242C99.8792 397.038 94.8642 394.098 94.6746 395.896C93.4142 395.171 94.586 395.463 96.2024 394.614L93.8896 394.781C93.9183 394.799 93.0546 394.971 93.5437 394.824C91.7855 394.067 93.0319 394.981 92.0805 395.451C91.4074 395.191 92.606 394.101 90.6942 394.398C87.9924 394.748 91.2074 395.709 89.5837 395.921L88.4087 394.99C86.3365 395.702 84.7865 395.043 83.0383 394.925C82.6419 394.999 82.4492 395.096 82.3519 395.197C80.4924 394.793 78.4519 396.106 77.051 395.801C77.3778 395.609 76.2487 395.657 76.0792 395.431L73.5487 396.007C74.6665 395.763 74.6187 395.227 74.8242 394.708C74.0315 394.763 73.661 395.057 73.1224 395.125C73.4505 394.937 73.7824 394.744 73.3642 394.504L70.7087 395.389C70.8628 395.48 71.1696 395.515 71.4242 395.538C70.761 395.544 69.3255 395.881 68.3751 395.445C68.4592 395.239 68.7855 395.047 68.8678 394.838C69.6646 395.427 70.1187 394.925 70.5324 394.526C68.6992 394.617 70.0755 394.389 69.1942 394.01C67.901 394.03 67.3692 395.332 67.7096 395.782C66.2501 395.578 65.7865 395.242 64.2933 395.782L64.5774 394.658L63.2074 394.46L64.3183 394.002C61.8442 393.536 63.5978 395.84 61.3774 395.77C61.2896 396.794 61.3265 398.186 60.6637 398.098C60.7051 398.677 60.6996 399.202 60.6592 399.631C60.921 399.88 61.1515 399.877 61.2383 398.605L61.8296 400.725C64.2274 401.902 61.6287 406.376 62.401 409.587C62.3087 409.36 62.1801 409.302 62.106 409.274C62.8737 412.126 61.4592 415.671 61.8419 416.333L61.1833 416.587C62.1946 419.027 62.2805 419.315 61.8715 422.224C61.7655 422.187 61.5755 421.851 61.4378 422.311C61.9246 423.009 62.411 423.713 62.2765 425.706L62.0696 425.622L62.1778 428.739C60.1487 428.716 63.4196 434.074 61.2187 435.013C61.6201 435.425 61.8351 436.603 62.0201 437.636C63.2292 438.014 62.1442 439.741 64.3183 439.332L63.2074 438.873L64.5774 438.675L64.2933 437.551C65.7865 438.09 66.2501 437.754 67.7096 437.551C67.3692 438.001 67.901 439.302 69.1942 439.323C70.0755 438.943 68.6992 438.715 70.5324 438.807C70.1187 438.407 69.6646 437.906 68.8678 438.494C68.7855 438.286 68.4592 438.093 68.3751 437.887C69.3255 437.451 70.761 437.788 71.4242 437.794C71.1696 437.818 70.8628 437.852 70.7087 437.943L73.3646 438.828C73.7824 438.588 73.451 438.396 73.1228 438.207C73.6615 438.276 74.0319 438.569 74.8246 438.624C74.6192 438.105 74.6669 437.57 73.5492 437.326L76.0796 437.902C76.2492 437.676 77.3783 437.723 77.0515 437.532C78.4528 437.227 80.4928 438.539 82.3524 438.136C82.4496 438.237 82.6428 438.334 83.0387 438.408C84.7874 438.291 86.3374 437.632 88.4092 438.343L89.5842 437.412C91.2078 437.623 87.9928 438.585 90.6946 438.936C92.6065 439.232 91.4074 438.142 92.081 437.883C93.0324 438.352 91.786 439.267 93.5442 438.509C93.0551 438.362 93.9187 438.534 93.8901 438.552L96.2028 438.719C94.586 437.87 93.4142 438.162 94.6751 437.437C94.8646 439.235 99.8796 436.295 100.066 438.091L100.949 437.712C100.695 437.73 100.654 437.624 100.405 437.642C102.121 436.781 101.681 438.444 103.895 438.187C104.239 438.126 104.53 438.012 104.708 437.887C104.731 437.762 104.753 437.632 104.777 437.501C104.747 437.481 104.721 437.46 104.677 437.442L104.782 437.47C104.961 436.48 105.174 435.403 105.553 435.014C103.352 434.076 106.623 428.717 104.595 428.74L104.703 425.623L104.496 425.707C104.361 423.714 104.848 423.01 105.335 422.312C105.197 421.852 105.007 422.188 104.901 422.225C104.492 419.317 104.578 419.027 105.59 416.588L104.931 416.334C105.314 415.672 103.899 412.127 104.667 409.275C104.593 409.302 104.464 409.361 104.372 409.588C105.145 406.377 102.545 401.902 104.943 400.726L105.535 398.605C105.621 399.878 105.851 399.881 106.114 399.631C106.073 399.202 106.067 398.677 106.109 398.098Z" fill="#445B89"/>
</svg>
