<svg width="877" height="2480" fill="none" xmlns="http://www.w3.org/2000/svg"><path fill="#F1F1E6" d="M0 0h877v2480H0z"/><path d="M439 1540V840" stroke="#445B89" stroke-width="5"/><path d="M590.941 1476.46v-17.58h-5.882v17.58c-20.965.62-47.059 7.54-47.059 14.63v41.42c0 4.86 3.959 8.82 8.824 8.82h10.529l11.741-23.12c3.335.61 10.077 1.61 18.665 1.61 8.7 0 15.847-1.03 19.341-1.63l11.224 23.14h10.852c4.865 0 8.824-3.96 8.824-8.82v-41.42c0-7.09-26.1-14.02-47.059-14.63Zm41.177 56.05c0 1.61-1.324 2.94-2.942 2.94h-7.164l-11.624-23.94-2.27.5c-.089.01-8.912 1.93-20.365 1.93-11.418 0-19.5-1.9-19.582-1.92l-2.259-.55-12.165 23.97h-6.923a2.948 2.948 0 0 1-2.942-2.94v-40.68c2.953-2.57 19.883-8.93 41.177-9.47v.06h5.882v-.07c21.288.55 38.224 6.91 41.177 9.48v40.69Zm-64.706-38.22h5.87v5.89h-5.87v6h-5.883v-6h-5.882v-5.89h5.882v-6h5.883v6Zm44.117 11.77c4.865 0 8.824-3.96 8.824-8.82 0-4.87-3.959-8.83-8.824-8.83-4.864 0-8.823 3.95-8.823 8.83 0 4.87 3.959 8.82 8.823 8.82Zm0-11.77a2.956 2.956 0 0 1 2.942 2.95c0 1.61-1.324 2.94-2.942 2.94a2.954 2.954 0 0 1-2.941-2.94c0-1.62 1.324-2.95 2.941-2.95ZM224.412 1515c-.347 0-.64-.11-.88-.32-.24-.24-.36-.53-.36-.88 0-.32.12-.61.36-.88l12.64-15.04c.56-.59 1.027-1.33 1.4-2.24.4-.93.6-1.8.6-2.6 0-1.31-.293-2.48-.88-3.52a6.215 6.215 0 0 0-2.32-2.44c-.96-.61-2.053-.92-3.28-.92-1.227 0-2.333.31-3.32.92-.96.59-1.733 1.4-2.32 2.44-.56 1.04-.84 2.21-.84 3.52 0 .35-.12.64-.36.88-.213.21-.493.32-.84.32s-.64-.11-.88-.32c-.24-.24-.36-.53-.36-.88 0-1.79.387-3.37 1.16-4.76.8-1.41 1.867-2.52 3.2-3.32 1.36-.83 2.88-1.24 4.56-1.24 1.707 0 3.227.41 4.56 1.24 1.333.8 2.387 1.91 3.16 3.32.8 1.39 1.2 2.97 1.2 4.76 0 .85-.12 1.67-.36 2.44-.24.75-.573 1.47-1 2.16-.427.67-.92 1.33-1.48 2l-11 12.92h13.44c.347 0 .627.12.84.36.24.24.36.53.36.88s-.12.64-.36.88c-.213.21-.493.32-.84.32h-15.8Zm34.127 0c-1.974 0-3.654-.63-5.04-1.88-1.387-1.25-2.454-3.05-3.2-5.4-.72-2.35-1.08-5.15-1.08-8.4 0-3.23.36-6.01 1.08-8.36.746-2.35 1.813-4.15 3.2-5.4 1.386-1.28 3.066-1.92 5.04-1.92 2 0 3.693.64 5.08 1.92 1.386 1.28 2.44 3.09 3.16 5.44.72 2.32 1.08 5.09 1.08 8.32 0 3.23-.36 6.01-1.08 8.36-.72 2.35-1.774 4.16-3.16 5.44-1.387 1.25-3.08 1.88-5.08 1.88Zm0-2.4c1.573 0 2.866-.57 3.88-1.72 1.013-1.15 1.76-2.72 2.24-4.72.506-2 .76-4.28.76-6.84 0-2.56-.254-4.84-.76-6.84-.507-2-1.267-3.56-2.28-4.68-1.014-1.15-2.294-1.72-3.84-1.72-1.547 0-2.827.57-3.84 1.72-1.014 1.12-1.774 2.68-2.28 4.68-.507 1.97-.76 4.25-.76 6.84 0 2.56.24 4.84.72 6.84.506 2 1.266 3.57 2.28 4.72 1.04 1.15 2.333 1.72 3.88 1.72Zm18.856-15c-.56 0-1.04-.19-1.44-.56-.4-.4-.6-.89-.6-1.48 0-.56.187-1.03.56-1.4.4-.4.893-.6 1.48-.6s1.067.2 1.44.6c.373.4.56.87.56 1.4 0 .59-.2 1.08-.6 1.48-.373.37-.84.56-1.4.56Zm-.12 18.04c-.587 0-1.08-.2-1.48-.6-.373-.37-.56-.85-.56-1.44s.2-1.07.6-1.44c.4-.37.88-.56 1.44-.56.56 0 1.027.2 1.4.6.4.37.6.84.6 1.4 0 .56-.2 1.04-.6 1.44-.373.4-.84.6-1.4.6Zm19.733-.64c-1.974 0-3.654-.63-5.04-1.88-1.387-1.25-2.454-3.05-3.2-5.4-.72-2.35-1.08-5.15-1.08-8.4 0-3.23.36-6.01 1.08-8.36.746-2.35 1.813-4.15 3.2-5.4 1.386-1.28 3.066-1.92 5.04-1.92 2 0 3.693.64 5.08 1.92 1.386 1.28 2.44 3.09 3.16 5.44.72 2.32 1.08 5.09 1.08 8.32 0 3.23-.36 6.01-1.08 8.36-.72 2.35-1.774 4.16-3.16 5.44-1.387 1.25-3.08 1.88-5.08 1.88Zm0-2.4c1.573 0 2.866-.57 3.88-1.72 1.013-1.15 1.76-2.72 2.24-4.72.506-2 .76-4.28.76-6.84 0-2.56-.254-4.84-.76-6.84-.507-2-1.267-3.56-2.28-4.68-1.014-1.15-2.294-1.72-3.84-1.72-1.547 0-2.827.57-3.84 1.72-1.014 1.12-1.774 2.68-2.28 4.68-.507 1.97-.76 4.25-.76 6.84 0 2.56.24 4.84.72 6.84.506 2 1.266 3.57 2.28 4.72 1.04 1.15 2.333 1.72 3.88 1.72Zm26.656 2.4c-1.974 0-3.654-.63-5.04-1.88-1.387-1.25-2.454-3.05-3.2-5.4-.72-2.35-1.08-5.15-1.08-8.4 0-3.23.36-6.01 1.08-8.36.746-2.35 1.813-4.15 3.2-5.4 1.386-1.28 3.066-1.92 5.04-1.92 2 0 3.693.64 5.08 1.92 1.386 1.28 2.44 3.09 3.16 5.44.72 2.32 1.08 5.09 1.08 8.32 0 3.23-.36 6.01-1.08 8.36-.72 2.35-1.774 4.16-3.16 5.44-1.387 1.25-3.08 1.88-5.08 1.88Zm0-2.4c1.573 0 2.866-.57 3.88-1.72 1.013-1.15 1.76-2.72 2.24-4.72.506-2 .76-4.28.76-6.84 0-2.56-.254-4.84-.76-6.84-.507-2-1.267-3.56-2.28-4.68-1.014-1.15-2.294-1.72-3.84-1.72-1.547 0-2.827.57-3.84 1.72-1.014 1.12-1.774 2.68-2.28 4.68-.507 1.97-.76 4.25-.76 6.84 0 2.56.24 4.84.72 6.84.506 2 1.266 3.57 2.28 4.72 1.04 1.15 2.333 1.72 3.88 1.72ZM568.584 1287.67c.325.33.751.49 1.178.49.427 0 .853-.16 1.178-.49.652-.65.652-1.7 0-2.35a4.35 4.35 0 0 1 0-6.14 7.633 7.633 0 0 0 2.25-5.43c0-2.05-.798-3.98-2.25-5.43a1.667 1.667 0 1 0-2.356 2.36c.82.82 1.273 1.91 1.273 3.07a4.31 4.31 0 0 1-1.273 3.07c-2.992 2.99-2.992 7.86 0 10.85ZM605.25 1287.67c.325.33.751.49 1.178.49.427 0 .853-.16 1.178-.49.652-.65.652-1.7 0-2.35a4.35 4.35 0 0 1 0-6.14 7.633 7.633 0 0 0 2.25-5.43c0-2.05-.798-3.98-2.25-5.43a1.667 1.667 0 1 0-2.356 2.36c.82.82 1.273 1.91 1.273 3.07a4.31 4.31 0 0 1-1.273 3.07c-2.992 2.99-2.992 7.86 0 10.85ZM586.917 1277.67c.325.33.751.49 1.178.49.427 0 .853-.16 1.178-.49.652-.65.652-1.7 0-2.35a4.35 4.35 0 0 1 0-6.14 7.633 7.633 0 0 0 2.25-5.43c0-2.05-.798-3.98-2.25-5.43a1.667 1.667 0 1 0-2.356 2.36c.82.82 1.273 1.91 1.273 3.07a4.31 4.31 0 0 1-1.273 3.07c-2.992 2.99-2.992 7.86 0 10.85ZM580.242 1300.68c.122 0 .245-.01.368-.04a33.57 33.57 0 0 1 7.369-.81H588c.92 0 1.667-.75 1.667-1.67 0-.92-.745-1.66-1.667-1.66h-.023c-2.738 0-5.463.3-8.1.89a1.663 1.663 0 0 0-1.26 1.99c.177.78.863 1.3 1.625 1.3ZM554.369 1328.14c.101.02.201.02.3.02.79 0 1.491-.56 1.638-1.36 1.732-9.5 7.455-17.95 15.31-22.6a1.666 1.666 0 1 0-1.698-2.87c-8.674 5.14-14.987 14.43-16.89 24.87a1.67 1.67 0 0 0 1.34 1.94Z" fill="#445B89"/><path d="M630.707 1325.87c-3.02-17.74-16.845-31.83-34.445-35.24.028-.27.071-.54.071-.8 0-4.6-3.738-8.34-8.333-8.34-4.595 0-8.333 3.74-8.333 8.34 0 .26.041.53.071.8-17.6 3.41-31.425 17.5-34.445 35.24-3.483 1.97-7.293 4.87-7.293 8.13 0 8.47 25.853 14.16 50 14.16s50-5.69 50-14.16c0-3.26-3.81-6.16-7.293-8.13Zm-47.697-35.75a5.004 5.004 0 0 1 4.99-5.29 5.004 5.004 0 0 1 4.99 5.29 1.863 1.863 0 0 0-.233-.02c-.574-.07-1.15-.11-1.73-.15-.214-.02-.425-.04-.639-.05a47.13 47.13 0 0 0-2.386-.07c-.802 0-1.597.03-2.387.07-.213.01-.425.03-.638.05-.58.04-1.157.08-1.73.15-.08 0-.159.01-.237.02Zm-1.012 3.49c.895-.13 1.795-.23 2.699-.3.185-.02.37-.03.555-.04 1.83-.13 3.668-.13 5.498 0 .185.01.37.02.555.04.903.07 1.803.17 2.698.3 17.364 2.63 31.095 16.46 33.587 33.86.077.54.138 1.07.193 1.61.019.19.044.37.06.55.065.74.114 1.48.137 2.22-26.183 6.07-53.773 6.07-79.957 0 .025-.74.072-1.48.137-2.22.017-.18.04-.36.06-.55.055-.54.117-1.07.193-1.61 2.49-17.4 16.222-31.23 33.585-33.86Zm6.002 51.22c-28.493 0-46.667-7.12-46.667-10.83 0-.64.79-2.05 3.44-3.88-.006.09-.003.18-.01.28-.056.91-.096 1.83-.096 2.76v1.32l1.278.3a180.499 180.499 0 0 0 42.055 4.96c14.148 0 28.298-1.65 42.055-4.96l1.278-.3v-1.32c0-.93-.04-1.85-.096-2.76-.007-.1-.004-.19-.01-.28 2.65 1.83 3.44 3.24 3.44 3.88 0 3.71-18.174 10.83-46.667 10.83ZM237.583 1315c-.347 0-.64-.11-.88-.32-.24-.24-.36-.53-.36-.88v-27.16l-4.76 1.56a1.293 1.293 0 0 1-1.4-.2c-.214-.24-.32-.53-.32-.88 0-.24.053-.47.16-.68.133-.21.333-.37.6-.48l6.12-2.04c.133-.05.28-.09.44-.12.16-.05.293-.08.4-.08.346 0 .626.12.84.36.24.21.36.49.36.84v28.88c0 .35-.12.64-.36.88-.214.21-.494.32-.84.32Zm20.326-31.28c1.787 0 3.373.41 4.76 1.24a8.952 8.952 0 0 1 3.36 3.32c.827 1.39 1.24 2.97 1.24 4.76 0 1.76-.413 3.35-1.24 4.76a9.283 9.283 0 0 1-3.36 3.36c-1.387.83-2.973 1.24-4.76 1.24-1.76 0-3.347-.41-4.76-1.24a9.283 9.283 0 0 1-3.36-3.36c-.8-1.41-1.2-3-1.2-4.76 0-1.79.4-3.37 1.2-4.76a8.952 8.952 0 0 1 3.36-3.32c1.413-.83 3-1.24 4.76-1.24Zm0 2.36c-1.307 0-2.493.31-3.56.92a6.88 6.88 0 0 0-2.48 2.48c-.613 1.04-.92 2.23-.92 3.56 0 1.31.307 2.49.92 3.56a6.763 6.763 0 0 0 2.48 2.52c1.067.61 2.253.92 3.56.92 1.333 0 2.52-.31 3.56-.92a6.672 6.672 0 0 0 2.52-2.52c.613-1.07.92-2.27.92-3.6 0-1.31-.307-2.48-.92-3.52a6.785 6.785 0 0 0-2.52-2.48c-1.04-.61-2.227-.92-3.56-.92Zm8.28 11.48-10.24 16.76c-.293.45-.667.68-1.12.68-.32 0-.587-.09-.8-.28a1.235 1.235 0 0 1-.4-.72c-.053-.29 0-.59.16-.88l7.2-11.64 5.2-3.92Zm11.206.04c-.56 0-1.04-.19-1.44-.56-.4-.4-.6-.89-.6-1.48 0-.56.187-1.03.56-1.4.4-.4.893-.6 1.48-.6s1.067.2 1.44.6c.373.4.56.87.56 1.4 0 .59-.2 1.08-.6 1.48-.373.37-.84.56-1.4.56Zm-.12 18.04c-.587 0-1.08-.2-1.48-.6-.373-.37-.56-.85-.56-1.44s.2-1.07.6-1.44c.4-.37.88-.56 1.44-.56.56 0 1.027.2 1.4.6.4.37.6.84.6 1.4 0 .56-.2 1.04-.6 1.44-.373.4-.84.6-1.4.6Zm19.733-.64c-1.974 0-3.654-.63-5.04-1.88-1.387-1.25-2.454-3.05-3.2-5.4-.72-2.35-1.08-5.15-1.08-8.4 0-3.23.36-6.01 1.08-8.36.746-2.35 1.813-4.15 3.2-5.4 1.386-1.28 3.066-1.92 5.04-1.92 2 0 3.693.64 5.08 1.92 1.386 1.28 2.44 3.09 3.16 5.44.72 2.32 1.08 5.09 1.08 8.32 0 3.23-.36 6.01-1.08 8.36-.72 2.35-1.774 4.16-3.16 5.44-1.387 1.25-3.08 1.88-5.08 1.88Zm0-2.4c1.573 0 2.866-.57 3.88-1.72 1.013-1.15 1.76-2.72 2.24-4.72.506-2 .76-4.28.76-6.84 0-2.56-.254-4.84-.76-6.84-.507-2-1.267-3.56-2.28-4.68-1.014-1.15-2.294-1.72-3.84-1.72-1.547 0-2.827.57-3.84 1.72-1.014 1.12-1.774 2.68-2.28 4.68-.507 1.97-.76 4.25-.76 6.84 0 2.56.24 4.84.72 6.84.506 2 1.266 3.57 2.28 4.72 1.04 1.15 2.333 1.72 3.88 1.72Zm26.656 2.4c-1.974 0-3.654-.63-5.04-1.88-1.387-1.25-2.454-3.05-3.2-5.4-.72-2.35-1.08-5.15-1.08-8.4 0-3.23.36-6.01 1.08-8.36.746-2.35 1.813-4.15 3.2-5.4 1.386-1.28 3.066-1.92 5.04-1.92 2 0 3.693.64 5.08 1.92 1.386 1.28 2.44 3.09 3.16 5.44.72 2.32 1.08 5.09 1.08 8.32 0 3.23-.36 6.01-1.08 8.36-.72 2.35-1.774 4.16-3.16 5.44-1.387 1.25-3.08 1.88-5.08 1.88Zm0-2.4c1.573 0 2.866-.57 3.88-1.72 1.013-1.15 1.76-2.72 2.24-4.72.506-2 .76-4.28.76-6.84 0-2.56-.254-4.84-.76-6.84-.507-2-1.267-3.56-2.28-4.68-1.014-1.15-2.294-1.72-3.84-1.72-1.547 0-2.827.57-3.84 1.72-1.014 1.12-1.774 2.68-2.28 4.68-.507 1.97-.76 4.25-.76 6.84 0 2.56.24 4.84.72 6.84.506 2 1.266 3.57 2.28 4.72 1.04 1.15 2.333 1.72 3.88 1.72ZM582.134 1071.25v-11.76h-30.413v11.76H538V1146.51h100V1071.25h-55.866Zm-27.442-8.79h24.472v8.79h-24.472v-8.79Zm80.338 32.72h-21.556v2.97h21.556v45.39h-94.06v-45.39h13.779a23.346 23.346 0 0 0-2.6 10.73c0 12.95 10.534 23.48 23.482 23.48 12.948 0 23.482-10.53 23.482-23.48 0-3.86-.939-7.51-2.6-10.73h13v-2.97h-14.824c-4.268-5.92-11.22-9.78-19.058-9.78-7.838 0-14.79 3.86-19.058 9.78H540.97v-20.96h94.06v20.96Zm-79.91 13.7c0-11.31 9.201-20.51 20.511-20.51 11.31 0 20.511 9.2 20.511 20.51 0 11.31-9.201 20.51-20.511 20.51-11.31 0-20.511-9.2-20.511-20.51Z" fill="#445B89"/><path d="M603.667 1079.29v10.82h22.572v-10.82h-22.572Zm19.602 7.84h-16.632v-4.87h16.632v4.87ZM575.631 1091.08c-9.817 0-17.803 7.98-17.803 17.8s7.986 17.8 17.803 17.8c9.816 0 17.802-7.98 17.802-17.8s-7.986-17.8-17.802-17.8Zm0 32.63c-8.179 0-14.833-6.65-14.833-14.83s6.654-14.83 14.833-14.83c8.178 0 14.832 6.65 14.832 14.83s-6.654 14.83-14.832 14.83Z" fill="#445B89"/><path d="M563.769 1108.88h2.97c0-4.9 3.989-8.89 8.892-8.89v-2.97c-6.541 0-11.862 5.32-11.862 11.86ZM236.645 1115c-.347 0-.64-.11-.88-.32-.24-.24-.36-.53-.36-.88v-27.16l-4.76 1.56a1.293 1.293 0 0 1-1.4-.2c-.213-.24-.32-.53-.32-.88 0-.24.053-.47.16-.68.133-.21.333-.37.6-.48l6.12-2.04c.133-.05.28-.09.44-.12.16-.05.293-.08.4-.08.347 0 .627.12.84.36.24.21.36.49.36.84v28.88c0 .35-.12.64-.36.88-.213.21-.493.32-.84.32Zm21.247.28c-1.787 0-3.4-.41-4.84-1.24a9.151 9.151 0 0 1-3.36-3.4c-.827-1.44-1.24-3.07-1.24-4.88 0-1.76.413-3.32 1.24-4.68a8.98 8.98 0 0 1 3.36-3.28c1.44-.8 3.053-1.2 4.84-1.2 1.813 0 3.426.4 4.84 1.2a8.994 8.994 0 0 1 3.36 3.28c.826 1.36 1.226 2.92 1.2 4.68 0 1.81-.414 3.44-1.24 4.88a9.166 9.166 0 0 1-3.36 3.4c-1.414.83-3.014 1.24-4.8 1.24Zm0-2.16c1.306 0 2.48-.32 3.52-.96 1.04-.64 1.853-1.52 2.44-2.64.613-1.12.92-2.37.92-3.76.026-1.33-.267-2.52-.88-3.56a6.475 6.475 0 0 0-2.44-2.52c-1.04-.61-2.227-.92-3.56-.92-1.307 0-2.494.31-3.56.92a6.763 6.763 0 0 0-2.48 2.52c-.587 1.04-.88 2.23-.88 3.56 0 1.39.293 2.64.88 3.76.586 1.12 1.4 2 2.44 2.64 1.066.64 2.266.96 3.6.96Zm0-14.36c-1.44 0-2.734-.33-3.88-1a7.386 7.386 0 0 1-2.72-2.72c-.667-1.17-1-2.49-1-3.96 0-1.39.333-2.63 1-3.72a7.3 7.3 0 0 1 2.72-2.6c1.146-.67 2.44-1 3.88-1 1.466-.03 2.76.28 3.88.92a7.19 7.19 0 0 1 2.72 2.64c.666 1.09.986 2.35.96 3.76 0 1.47-.334 2.79-1 3.96a7.4 7.4 0 0 1-2.72 2.72c-1.12.67-2.4 1-3.84 1Zm0-2.24c.986 0 1.866-.24 2.64-.72.8-.48 1.44-1.12 1.92-1.92.48-.83.72-1.76.72-2.8.026-.96-.2-1.83-.68-2.6a4.748 4.748 0 0 0-1.88-1.8c-.8-.45-1.707-.68-2.72-.68-1.494 0-2.747.49-3.76 1.48-1.014.96-1.534 2.16-1.56 3.6-.027 1.55.466 2.84 1.48 3.88 1.013 1.04 2.293 1.56 3.84 1.56Zm19.503 1.08c-.56 0-1.04-.19-1.44-.56-.4-.4-.6-.89-.6-1.48 0-.56.187-1.03.56-1.4.4-.4.893-.6 1.48-.6s1.067.2 1.44.6c.373.4.56.87.56 1.4 0 .59-.2 1.08-.6 1.48-.373.37-.84.56-1.4.56Zm-.12 18.04c-.587 0-1.08-.2-1.48-.6-.373-.37-.56-.85-.56-1.44s.2-1.07.6-1.44c.4-.37.88-.56 1.44-.56.56 0 1.027.2 1.4.6.4.37.6.84.6 1.4 0 .56-.2 1.04-.6 1.44-.373.4-.84.6-1.4.6Zm19.733-.64c-1.974 0-3.654-.63-5.04-1.88-1.387-1.25-2.454-3.05-3.2-5.4-.72-2.35-1.08-5.15-1.08-8.4 0-3.23.36-6.01 1.08-8.36.746-2.35 1.813-4.15 3.2-5.4 1.386-1.28 3.066-1.92 5.04-1.92 2 0 3.693.64 5.08 1.92 1.386 1.28 2.44 3.09 3.16 5.44.72 2.32 1.08 5.09 1.08 8.32 0 3.23-.36 6.01-1.08 8.36-.72 2.35-1.774 4.16-3.16 5.44-1.387 1.25-3.08 1.88-5.08 1.88Zm0-2.4c1.573 0 2.866-.57 3.88-1.72 1.013-1.15 1.76-2.72 2.24-4.72.506-2 .76-4.28.76-6.84 0-2.56-.254-4.84-.76-6.84-.507-2-1.267-3.56-2.28-4.68-1.014-1.15-2.294-1.72-3.84-1.72-1.547 0-2.827.57-3.84 1.72-1.014 1.12-1.774 2.68-2.28 4.68-.507 1.97-.76 4.25-.76 6.84 0 2.56.24 4.84.72 6.84.506 2 1.266 3.57 2.28 4.72 1.04 1.15 2.333 1.72 3.88 1.72Zm26.656 2.4c-1.974 0-3.654-.63-5.04-1.88-1.387-1.25-2.454-3.05-3.2-5.4-.72-2.35-1.08-5.15-1.08-8.4 0-3.23.36-6.01 1.08-8.36.746-2.35 1.813-4.15 3.2-5.4 1.386-1.28 3.066-1.92 5.04-1.92 2 0 3.693.64 5.08 1.92 1.386 1.28 2.44 3.09 3.16 5.44.72 2.32 1.08 5.09 1.08 8.32 0 3.23-.36 6.01-1.08 8.36-.72 2.35-1.774 4.16-3.16 5.44-1.387 1.25-3.08 1.88-5.08 1.88Zm0-2.4c1.573 0 2.866-.57 3.88-1.72 1.013-1.15 1.76-2.72 2.24-4.72.506-2 .76-4.28.76-6.84 0-2.56-.254-4.84-.76-6.84-.507-2-1.267-3.56-2.28-4.68-1.014-1.15-2.294-1.72-3.84-1.72-1.547 0-2.827.57-3.84 1.72-1.014 1.12-1.774 2.68-2.28 4.68-.507 1.97-.76 4.25-.76 6.84 0 2.56.24 4.84.72 6.84.506 2 1.266 3.57 2.28 4.72 1.04 1.15 2.333 1.72 3.88 1.72Z" fill="#445B89"/><g clip-path="url(#a)" fill="#445B89"><path d="M609.885 920.218h-43.77v3.082h43.77v-3.082ZM595.816 912.401h-15.631v3.082h15.631v-3.082ZM595.816 906.148h-15.631v3.082h15.631v-3.082ZM595.816 899.895h-15.631v3.082h15.631v-3.082ZM619.265 857.689h-62.529v3.083h62.529v-3.083ZM605.195 881.137c-5.159 0-9.357 4.198-9.357 9.358h3.082a6.282 6.282 0 0 1 6.275-6.275 6.282 6.282 0 0 1 6.275 6.275h3.082c0-5.16-4.197-9.358-9.357-9.358ZM541.082 923.299h18.781v-3.082H538v12.462h4.689v15.631h17.151v-15.631h15.654v-3.083h-34.412v-6.297Zm4.69 9.38h10.986v12.549h-10.986v-12.549ZM616.138 920.217v3.082h18.78v6.297h-34.412v3.083h15.654v15.632h17.151v-15.632H638v-12.462h-21.862Zm14.091 25.011h-10.987v-12.549h10.987v12.549ZM577.036 899.896h-28.094v15.587h28.094v-15.587Zm-20.278 12.505h-4.733v-9.423h4.733v9.423Zm17.195 0H559.84v-9.423h14.113v9.423ZM627.058 899.896h-28.093v15.587h28.093v-15.587Zm-10.898 12.505h-14.113v-9.423h14.113v9.423Zm7.816 0h-4.734v-9.423h4.734v9.423Z"/><path d="M544.231 887.346c1.826 0 3.472-.79 4.612-2.046l2.543 6.78h-8.697v26.552h3.083v-23.47h84.456v23.47h3.083V892.08h-8.697l2.543-6.78a6.216 6.216 0 0 0 4.613 2.046 6.238 6.238 0 0 0 6.23-6.231 6.237 6.237 0 0 0-6.23-6.23 6.238 6.238 0 0 0-5.772 3.887l-.001-.001-.008.025c-.069.17-.131.343-.184.521l-2.841 8.051-3.946-24.989h-62.036l-3.945 24.99-2.837-8.039a6.34 6.34 0 0 0-.197-.557l-.001-.002a6.239 6.239 0 0 0-5.771-3.886 6.238 6.238 0 0 0-6.231 6.23 6.238 6.238 0 0 0 6.231 6.231Zm87.538-9.379a3.152 3.152 0 0 1 3.149 3.148 3.153 3.153 0 0 1-3.149 3.149 3.152 3.152 0 0 1-3.148-3.149 3.151 3.151 0 0 1 3.148-3.148Zm-72.153-12.505h26.843v3.17h-3.149v3.083h9.38v-3.083h-3.149v-3.17h26.843l4.203 26.618h-65.174l4.203-26.618Zm-15.385 12.505a3.151 3.151 0 0 1 3.148 3.148 3.152 3.152 0 0 1-3.148 3.149 3.152 3.152 0 0 1-3.149-3.149 3.152 3.152 0 0 1 3.149-3.148Z"/><path d="m571.113 875.17-2.179-2.18-7.034 7.034 2.179 2.18 7.034-7.034ZM563.462 886.278l2.18 2.18 14.068-14.068-2.18-2.18-14.068 14.068ZM572.843 884.716l2.179 2.179 3.127-3.126-2.18-2.179-3.126 3.126ZM564.531 918.631h-3.083v6.253h3.083v-6.253ZM614.553 918.631h-3.082v6.253h3.082v-6.253ZM577.079 938.931h21.841V926.47h-21.841v12.461Zm3.083-9.379h15.676v6.297h-15.676v-6.297Z"/><path d="M584.873 931.16h-3.126v3.083h3.126v-3.083ZM589.562 931.16h-3.126v3.083h3.126v-3.083ZM594.253 931.16h-3.126v3.083h3.126v-3.083Z"/></g><path d="M237.348 915c-.347 0-.64-.107-.88-.32-.24-.24-.36-.533-.36-.88v-27.16l-4.76 1.56c-.187.08-.36.12-.52.12-.347 0-.64-.107-.88-.32a1.278 1.278 0 0 1-.32-.88c0-.24.053-.467.16-.68.133-.213.333-.373.6-.48l6.12-2.04c.133-.053.28-.093.44-.12.16-.053.293-.08.4-.08.347 0 .627.12.84.36.24.213.36.493.36.84v28.88c0 .347-.12.64-.36.88-.213.213-.493.32-.84.32Zm16.247 0c-.347 0-.64-.107-.88-.32-.24-.24-.36-.533-.36-.88 0-.133.026-.253.08-.36.053-.133.12-.293.2-.48l12.28-26.8h-14.92c-.347 0-.64-.12-.88-.36s-.36-.533-.36-.88.12-.627.36-.84c.24-.24.533-.36.88-.36h17c.346 0 .626.12.84.36.24.213.36.493.36.84a.987.987 0 0 1-.08.36 1.603 1.603 0 0 1-.12.32l-13.28 28.68c-.214.48-.587.72-1.12.72Zm23.8-17.4c-.56 0-1.04-.187-1.44-.56-.4-.4-.6-.893-.6-1.48 0-.56.187-1.027.56-1.4.4-.4.893-.6 1.48-.6s1.067.2 1.44.6c.373.4.56.867.56 1.4 0 .587-.2 1.08-.6 1.48-.373.373-.84.56-1.4.56Zm-.12 18.04c-.587 0-1.08-.2-1.48-.6-.373-.373-.56-.853-.56-1.44s.2-1.067.6-1.44c.4-.373.88-.56 1.44-.56.56 0 1.027.2 1.4.6.4.373.6.84.6 1.4 0 .56-.2 1.04-.6 1.44-.373.4-.84.6-1.4.6Zm19.733-.64c-1.974 0-3.654-.627-5.04-1.88-1.387-1.253-2.454-3.053-3.2-5.4-.72-2.347-1.08-5.147-1.08-8.4 0-3.227.36-6.013 1.08-8.36.746-2.347 1.813-4.147 3.2-5.4 1.386-1.28 3.066-1.92 5.04-1.92 2 0 3.693.64 5.08 1.92 1.386 1.28 2.44 3.093 3.16 5.44.72 2.32 1.08 5.093 1.08 8.32 0 3.227-.36 6.013-1.08 8.36-.72 2.347-1.774 4.16-3.16 5.44-1.387 1.253-3.08 1.88-5.08 1.88Zm0-2.4c1.573 0 2.866-.573 3.88-1.72 1.013-1.147 1.76-2.72 2.24-4.72.506-2 .76-4.28.76-6.84 0-2.56-.254-4.84-.76-6.84-.507-2-1.267-3.56-2.28-4.68-1.014-1.147-2.294-1.72-3.84-1.72-1.547 0-2.827.573-3.84 1.72-1.014 1.12-1.774 2.68-2.28 4.68-.507 1.973-.76 4.253-.76 6.84 0 2.56.24 4.84.72 6.84.506 2 1.266 3.573 2.28 4.72 1.04 1.147 2.333 1.72 3.88 1.72Zm26.656 2.4c-1.974 0-3.654-.627-5.04-1.88-1.387-1.253-2.454-3.053-3.2-5.4-.72-2.347-1.08-5.147-1.08-8.4 0-3.227.36-6.013 1.08-8.36.746-2.347 1.813-4.147 3.2-5.4 1.386-1.28 3.066-1.92 5.04-1.92 2 0 3.693.64 5.08 1.92 1.386 1.28 2.44 3.093 3.16 5.44.72 2.32 1.08 5.093 1.08 8.32 0 3.227-.36 6.013-1.08 8.36-.72 2.347-1.774 4.16-3.16 5.44-1.387 1.253-3.08 1.88-5.08 1.88Zm0-2.4c1.573 0 2.866-.573 3.88-1.72 1.013-1.147 1.76-2.72 2.24-4.72.506-2 .76-4.28.76-6.84 0-2.56-.254-4.84-.76-6.84-.507-2-1.267-3.56-2.28-4.68-1.014-1.147-2.294-1.72-3.84-1.72-1.547 0-2.827.573-3.84 1.72-1.014 1.12-1.774 2.68-2.28 4.68-.507 1.973-.76 4.253-.76 6.84 0 2.56.24 4.84.72 6.84.506 2 1.266 3.573 2.28 4.72 1.04 1.147 2.333 1.72 3.88 1.72Z" fill="#445B89"/><defs><clipPath id="a"><path fill="#fff" transform="translate(538 853)" d="M0 0h100v100H0z"/></clipPath></defs></svg>
