<svg width="877" height="2481" fill="none" xmlns="http://www.w3.org/2000/svg"><path fill="#F1F1E6" d="M0 0h877v2481H0z"/><path d="M224.678 1901.32c-1.728 0-3.349-.32-4.864-.96a12.645 12.645 0 0 1-3.936-2.72c-1.109-1.17-1.984-2.54-2.624-4.1-.619-1.55-.928-3.24-.928-5.05 0-1.79.309-3.46.928-4.99.64-1.56 1.515-2.92 2.624-4.07a12.405 12.405 0 0 1 3.936-2.75c1.493-.66 3.115-.99 4.864-.99 1.643 0 3.051.21 4.224.64 1.195.42 2.389 1.13 3.584 2.11.171.13.299.27.384.42a.77.77 0 0 1 .192.41c.043.13.064.29.064.48 0 .41-.149.75-.448 1.03-.277.25-.619.4-1.024.44-.405.03-.8-.11-1.184-.41-.789-.68-1.611-1.21-2.464-1.57-.832-.36-1.941-.54-3.328-.54-1.259 0-2.443.25-3.552.76a9.666 9.666 0 0 0-2.944 2.12 9.803 9.803 0 0 0-1.952 3.13 10.102 10.102 0 0 0-.704 3.78c0 1.36.235 2.64.704 3.84a9.887 9.887 0 0 0 1.952 3.1 9.47 9.47 0 0 0 2.944 2.11c1.109.49 2.293.74 3.552.74 1.088 0 2.112-.18 3.072-.54.981-.39 1.92-.91 2.816-1.57.384-.28.757-.4 1.12-.35.384.02.704.17.96.44.256.26.384.62.384 1.09 0 .22-.043.43-.128.64-.085.19-.213.38-.384.55-1.152.91-2.389 1.61-3.712 2.08-1.301.47-2.677.7-4.128.7Zm28.427 0c-1.877 0-3.595-.31-5.152-.93-1.557-.64-2.901-1.52-4.032-2.65a12.471 12.471 0 0 1-2.592-4.07c-.619-1.58-.928-3.3-.928-5.18s.309-3.6.928-5.15c.619-1.56 1.483-2.91 2.592-4.04 1.131-1.15 2.475-2.03 4.032-2.65 1.557-.64 3.275-.96 5.152-.96 1.877 0 3.584.32 5.12.96 1.557.62 2.901 1.5 4.032 2.65 1.131 1.13 2.005 2.48 2.624 4.04.619 1.55.928 3.27.928 5.15 0 1.88-.309 3.6-.928 5.18a12.2 12.2 0 0 1-2.624 4.07c-1.131 1.13-2.475 2.01-4.032 2.65-1.536.62-3.243.93-5.12.93Zm0-3.01c1.387 0 2.656-.24 3.808-.73 1.173-.52 2.187-1.21 3.04-2.08a9.26 9.26 0 0 0 1.952-3.14c.469-1.19.704-2.49.704-3.87 0-1.39-.235-2.68-.704-3.87a8.853 8.853 0 0 0-1.952-3.11 8.949 8.949 0 0 0-3.04-2.08c-1.152-.49-2.421-.73-3.808-.73s-2.667.24-3.84.73a9.027 9.027 0 0 0-3.008 2.08 9.498 9.498 0 0 0-1.952 3.11c-.469 1.19-.704 2.48-.704 3.87 0 1.38.235 2.68.704 3.87a9.961 9.961 0 0 0 1.952 3.14 9.82 9.82 0 0 0 3.008 2.08c1.173.49 2.453.73 3.84.73Zm22.749 2.69a1.61 1.61 0 0 1-1.184-.48c-.299-.32-.448-.71-.448-1.18v-21.67c0-.49.149-.88.448-1.18.32-.32.715-.48 1.184-.48.512 0 .939.2 1.28.61l13.952 18.56v-17.51c0-.49.16-.88.48-1.18.32-.32.715-.48 1.184-.48.491 0 .885.16 1.184.48.299.3.448.69.448 1.18v21.67c0 .47-.149.86-.448 1.18-.299.32-.693.48-1.184.48-.213 0-.448-.04-.704-.13-.235-.1-.427-.25-.576-.45l-13.952-18.56v17.48c0 .47-.16.86-.48 1.18-.299.32-.693.48-1.184.48Zm27.778 0a1.61 1.61 0 0 1-1.184-.48c-.32-.32-.48-.71-.48-1.18v-21.67c0-.49.16-.88.48-1.18.32-.32.715-.48 1.184-.48h14.464c.491 0 .886.15 1.184.45.299.27.448.65.448 1.12 0 .44-.149.81-.448 1.08-.298.28-.693.42-1.184.42h-12.8v7.78h9.184c.491 0 .886.15 1.184.44.299.28.448.64.448 1.09 0 .45-.149.82-.448 1.12-.298.28-.693.42-1.184.42h-9.184v9.41c0 .47-.16.86-.48 1.18-.32.32-.714.48-1.184.48Zm25.216 0a1.61 1.61 0 0 1-1.184-.48c-.32-.32-.48-.71-.48-1.18v-21.67c0-.49.16-.88.48-1.18.32-.32.715-.48 1.184-.48.491 0 .886.16 1.184.48.32.3.48.69.48 1.18v21.67c0 .47-.16.86-.48 1.18-.298.32-.693.48-1.184.48Zm12.919 0a1.61 1.61 0 0 1-1.184-.48c-.32-.32-.48-.71-.48-1.18v-21.67c0-.49.16-.88.48-1.18.32-.32.715-.48 1.184-.48h5.76c1.6 0 3.019.34 4.256 1.02 1.237.66 2.197 1.58 2.88 2.75.704 1.18 1.056 2.54 1.056 4.1 0 1.45-.352 2.74-1.056 3.87-.683 1.13-1.643 2.02-2.88 2.66-1.237.64-2.656.96-4.256.96h-4.096v7.97c0 .47-.16.86-.48 1.18-.299.32-.693.48-1.184.48Zm13.28 0c-.299 0-.576-.06-.832-.19a1.659 1.659 0 0 1-.608-.61l-5.76-9.28 3.232-.93 5.248 8.45c.384.62.437 1.21.16 1.76-.277.53-.757.8-1.44.8Zm-11.616-12.7h4.096c.981 0 1.845-.19 2.592-.55.747-.38 1.333-.9 1.76-1.57.427-.68.64-1.45.64-2.3 0-.94-.213-1.77-.64-2.5a4.471 4.471 0 0 0-1.76-1.69c-.747-.41-1.611-.61-2.592-.61h-4.096v9.22Zm21.755 12.7a1.61 1.61 0 0 1-1.184-.48c-.32-.32-.48-.71-.48-1.18v-21.67c0-.49.16-.88.48-1.18.32-.32.715-.48 1.184-.48.64 0 1.131.3 1.472.89l10.016 20.07h-1.024l9.76-20.07c.341-.59.832-.89 1.472-.89.469 0 .864.16 1.184.48.32.3.48.69.48 1.18v21.67c0 .47-.171.86-.512 1.18-.32.32-.704.48-1.152.48a1.61 1.61 0 0 1-1.184-.48c-.32-.32-.48-.71-.48-1.18v-17.06l.64-.16-8.384 17.09c-.363.55-.843.83-1.44.83-.704 0-1.216-.33-1.536-.99l-8.288-16.61.64-.16v17.06c0 .47-.16.86-.48 1.18-.32.32-.715.48-1.184.48Zm31.981 0c-.597 0-1.056-.26-1.376-.77-.32-.51-.352-1.05-.096-1.63l8.992-21.47c.32-.75.843-1.12 1.568-1.12.768 0 1.291.37 1.568 1.12l9.024 21.53c.235.6.192 1.15-.128 1.64-.298.47-.757.7-1.376.7-.32 0-.629-.09-.928-.26-.277-.19-.48-.44-.608-.76l-7.936-19.72h.896l-8.064 19.72c-.149.34-.373.59-.672.76-.277.17-.565.26-.864.26Zm1.696-5.5 1.28-2.76h12.544l1.28 2.76h-15.104Zm29.826 5.5a1.61 1.61 0 0 1-1.184-.48c-.32-.32-.48-.71-.48-1.18v-23.33h3.328v23.33c0 .47-.16.86-.48 1.18-.32.32-.715.48-1.184.48Zm-8.576-21.92c-.448 0-.821-.14-1.12-.42-.277-.29-.416-.67-.416-1.12 0-.44.139-.81.416-1.08.299-.3.672-.45 1.12-.45h17.12c.448 0 .811.15 1.088.45.299.27.448.64.448 1.08 0 .45-.149.83-.448 1.12-.277.28-.64.42-1.088.42h-17.12Zm8.544 29.41c-1.28 0-2.336-.27-3.168-.8-.811-.54-1.216-1.16-1.216-1.89 0-.43.149-.79.448-1.09.299-.3.651-.45 1.056-.45.256 0 .469.06.64.16.192.13.341.35.448.64.149.39.384.67.704.84.341.19.715.28 1.12.28.427 0 .779-.1 1.056-.32a.908.908 0 0 0 .416-.8c0-.38-.107-.69-.32-.92-.213-.24-.587-.4-1.12-.48-.661-.11-1.131-.33-1.408-.68-.256-.32-.267-.82-.032-1.5l.32-.9c.149-.42.373-.74.672-.96.299-.23.683-.35 1.152-.35.533 0 .928.17 1.184.51.277.35.299.76.064 1.25l-.48 1.09c1.109.23 1.92.6 2.432 1.09.512.49.768 1.14.768 1.95 0 .55-.192 1.09-.576 1.6-.384.51-.928.93-1.632 1.25-.704.32-1.547.48-2.528.48Zm18.66-7.49a1.61 1.61 0 0 1-1.184-.48c-.32-.32-.48-.71-.48-1.18v-21.67c0-.49.16-.88.48-1.18.32-.32.715-.48 1.184-.48.491 0 .885.16 1.184.48.32.3.48.69.48 1.18v21.67c0 .47-.16.86-.48 1.18-.299.32-.693.48-1.184.48Zm25.494 0a1.61 1.61 0 0 1-1.184-.48c-.32-.32-.48-.71-.48-1.18v-21.67c0-.49.16-.88.48-1.18.32-.32.715-.48 1.184-.48h6.4c1.6 0 3.019.35 4.256 1.05a7.404 7.404 0 0 1 2.88 2.95c.704 1.24 1.056 2.66 1.056 4.29 0 1.55-.352 2.94-1.056 4.16a7.26 7.26 0 0 1-2.88 2.84c-1.237.69-2.656 1.03-4.256 1.03h-4.736v7.01c0 .47-.16.86-.48 1.18-.299.32-.693.48-1.184.48Zm1.664-11.74h4.736c.981 0 1.845-.22 2.592-.64a4.72 4.72 0 0 0 1.76-1.76c.427-.75.64-1.6.64-2.56 0-1.03-.213-1.92-.64-2.69a4.776 4.776 0 0 0-1.76-1.86c-.747-.45-1.611-.67-2.592-.67h-4.736v10.18Zm21.473 11.74a1.61 1.61 0 0 1-1.184-.48c-.32-.32-.48-.71-.48-1.18v-21.67c0-.49.16-.88.48-1.18.32-.32.715-.48 1.184-.48h5.76c1.6 0 3.019.34 4.256 1.02 1.238.66 2.198 1.58 2.88 2.75.704 1.18 1.056 2.54 1.056 4.1 0 1.45-.352 2.74-1.056 3.87-.682 1.13-1.642 2.02-2.88 2.66-1.237.64-2.656.96-4.256.96h-4.096v7.97c0 .47-.16.86-.48 1.18-.298.32-.693.48-1.184.48Zm13.28 0a1.81 1.81 0 0 1-.832-.19 1.666 1.666 0 0 1-.608-.61l-5.76-9.28 3.232-.93 5.248 8.45c.384.62.438 1.21.16 1.76-.277.53-.757.8-1.44.8Zm-11.616-12.7h4.096c.982 0 1.846-.19 2.592-.55.747-.38 1.334-.9 1.76-1.57.427-.68.64-1.45.64-2.3 0-.94-.213-1.77-.64-2.5a4.464 4.464 0 0 0-1.76-1.69c-.746-.41-1.61-.61-2.592-.61h-4.096v9.22Zm21.755 12.7a1.61 1.61 0 0 1-1.184-.48c-.32-.32-.48-.71-.48-1.18v-21.67c0-.49.16-.88.48-1.18.32-.32.715-.48 1.184-.48h14.464c.491 0 .885.15 1.184.45.299.27.448.65.448 1.12 0 .44-.149.81-.448 1.08-.299.28-.693.42-1.184.42h-12.8v7.78h9.184c.491 0 .885.15 1.184.44.299.28.448.64.448 1.09 0 .45-.149.82-.448 1.12-.299.28-.693.42-1.184.42h-9.184v8h12.8c.491 0 .885.14 1.184.41.299.28.448.64.448 1.09 0 .47-.149.86-.448 1.15-.299.28-.693.42-1.184.42h-14.464Zm24.134 0c-.49 0-.885-.16-1.184-.48a1.935 1.935 0 0 1-.48-1.09c-.021-.42.096-.8.352-1.12l15.648-19.36h-14.016c-.533 0-.938-.13-1.216-.38-.256-.28-.373-.62-.352-1.03-.021-.44.128-.81.448-1.08.32-.3.715-.45 1.184-.45h16.512c.491 0 .886.15 1.184.45.299.29.47.66.512 1.08.043.41-.074.77-.352 1.09l-15.712 19.43h14.368c.491 0 .886.15 1.184.44.299.28.448.61.448 1 0 .47-.149.84-.448 1.12-.298.25-.693.38-1.184.38h-16.896Zm28.422 0a1.61 1.61 0 0 1-1.184-.48c-.32-.32-.48-.71-.48-1.18v-21.67c0-.49.16-.88.48-1.18.32-.32.715-.48 1.184-.48h14.464c.491 0 .886.15 1.184.45.299.27.448.65.448 1.12 0 .44-.149.81-.448 1.08-.298.28-.693.42-1.184.42h-12.8v7.78h9.184c.491 0 .886.15 1.184.44.299.28.448.64.448 1.09 0 .45-.149.82-.448 1.12-.298.28-.693.42-1.184.42h-9.184v8h12.8c.491 0 .886.14 1.184.41.299.28.448.64.448 1.09 0 .47-.149.86-.448 1.15-.298.28-.693.42-1.184.42h-14.464Zm25.575 0c-.47 0-.864-.16-1.184-.48-.299-.32-.448-.71-.448-1.18v-21.67c0-.49.149-.88.448-1.18.32-.32.714-.48 1.184-.48.512 0 .938.2 1.28.61l13.952 18.56v-17.51c0-.49.16-.88.48-1.18.32-.32.714-.48 1.184-.48.49 0 .885.16 1.184.48.298.3.448.69.448 1.18v21.67c0 .47-.15.86-.448 1.18-.299.32-.694.48-1.184.48a2.12 2.12 0 0 1-.704-.13c-.235-.1-.427-.25-.576-.45l-13.952-18.56v17.48c0 .47-.16.86-.48 1.18-.299.32-.694.48-1.184.48Zm35.522 0a1.61 1.61 0 0 1-1.184-.48c-.32-.32-.48-.71-.48-1.18v-23.33h3.328v23.33c0 .47-.16.86-.48 1.18-.32.32-.715.48-1.184.48Zm-8.576-21.92c-.448 0-.821-.14-1.12-.42-.277-.29-.416-.67-.416-1.12 0-.44.139-.81.416-1.08.299-.3.672-.45 1.12-.45h17.12c.448 0 .811.15 1.088.45.299.27.448.64.448 1.08 0 .45-.149.83-.448 1.12-.277.28-.64.42-1.088.42h-17.12Zm8.544 29.41c-1.28 0-2.336-.27-3.168-.8-.811-.54-1.216-1.16-1.216-1.89 0-.43.149-.79.448-1.09.299-.3.651-.45 1.056-.45.256 0 .469.06.64.16.192.13.341.35.448.64.149.39.384.67.704.84.341.19.715.28 1.12.28.427 0 .779-.1 1.056-.32a.908.908 0 0 0 .416-.8c0-.38-.107-.69-.32-.92-.213-.24-.587-.4-1.12-.48-.661-.11-1.131-.33-1.408-.68-.256-.32-.267-.82-.032-1.5l.32-.9c.149-.42.373-.74.672-.96.299-.23.683-.35 1.152-.35.533 0 .928.17 1.184.51.277.35.299.76.064 1.25l-.48 1.09c1.109.23 1.92.6 2.432 1.09.512.49.768 1.14.768 1.95 0 .55-.192 1.09-.576 1.6-.384.51-.928.93-1.632 1.25-.704.32-1.547.48-2.528.48Zm13.442-7.49c-.597 0-1.056-.26-1.376-.77-.32-.51-.352-1.05-.096-1.63l8.992-21.47c.32-.75.843-1.12 1.568-1.12.768 0 1.291.37 1.568 1.12l9.024 21.53c.235.6.192 1.15-.128 1.64-.299.47-.757.7-1.376.7-.32 0-.629-.09-.928-.26-.277-.19-.48-.44-.608-.76l-7.936-19.72h.896l-8.064 19.72c-.149.34-.373.59-.672.76-.277.17-.565.26-.864.26Zm1.696-5.5 1.28-2.76h12.544l1.28 2.76h-15.104Z" fill="#445B89"/><g clip-path="url(#a)"><path d="M526.43 1765.43h-72.462v-8.04h.238c4.061 0 7.365-3.29 7.365-7.33v-38.32c4.348-.88 7.859-4.3 8.724-8.78l9.208-47.66c2.33-12.07-.841-24.42-8.701-33.89-7.861-9.48-19.448-14.91-31.812-14.91-12.343 0-23.93 5.43-31.791 14.91-7.861 9.47-11.032 21.82-8.701 33.89l9.208 47.66c.865 4.48 4.376 7.9 8.724 8.78v38.32c0 4.04 3.304 7.33 7.365 7.33h.238v8.04h-72.462c-6.158 0-11.167 4.99-11.167 11.11v22.71c0 6.13 5.009 11.11 11.167 11.11h.237v7.81c0 4.04 3.304 7.33 7.365 7.33h159.655c4.061 0 7.365-3.29 7.365-7.33v-7.81h.237c6.157 0 11.167-4.98 11.167-11.11v-22.71c0-6.12-5.01-11.11-11.167-11.11Zm-71.987-45.41h-30.885v-8.04h30.885v8.04Zm-39.738-18.4-9.208-47.66c-1.928-9.98.695-20.2 7.197-28.04 6.502-7.83 16.087-12.32 26.316-12.32 10.21 0 19.795 4.49 26.297 12.32 6.502 7.84 9.125 18.06 7.197 28.04l-9.208 47.66a4.038 4.038 0 0 1-3.967 3.26h-40.658a4.038 4.038 0 0 1-3.966-3.26Zm9.09 48.67a.232.232 0 0 1-.237-.23v-22.94h30.885v22.94c0 .13-.106.23-.237.23h-30.411Zm23.046 7.1v8.04H431.16v-8.04h15.681Zm72.224 60.78c0 .13-.106.23-.237.23H359.173a.232.232 0 0 1-.237-.23v-7.81h160.129v7.81Zm11.404-18.92c0 2.22-1.812 4.02-4.039 4.02H351.571c-2.227 0-4.039-1.8-4.039-4.02v-22.71c0-2.21 1.812-4.02 4.039-4.02H526.43c2.227 0 4.039 1.81 4.039 4.02v22.71Z" fill="#445B89"/></g><path d="M224.945 883.32c-1.365 0-2.666-.213-3.904-.64-1.237-.427-2.314-1.024-3.232-1.792-.917-.768-1.589-1.653-2.016-2.656-.213-.448-.213-.864 0-1.248.235-.384.619-.629 1.152-.736a1.502 1.502 0 0 1 1.12.192c.384.192.672.491.864.896.256.533.672 1.024 1.248 1.472.598.448 1.312.811 2.144 1.088a8.254 8.254 0 0 0 2.624.416c1.024 0 1.963-.16 2.816-.48.875-.32 1.579-.779 2.112-1.376.534-.619.8-1.376.8-2.272 0-1.131-.448-2.144-1.344-3.04-.874-.896-2.325-1.451-4.352-1.664-2.645-.256-4.725-1.035-6.24-2.336-1.514-1.301-2.272-2.912-2.272-4.832 0-1.408.395-2.603 1.184-3.584.79-.981 1.856-1.728 3.2-2.24 1.366-.512 2.88-.768 4.544-.768 1.302 0 2.432.181 3.392.544a8.03 8.03 0 0 1 2.56 1.504 9.795 9.795 0 0 1 1.888 2.272c.299.469.416.917.352 1.344-.042.405-.245.725-.608.96a1.497 1.497 0 0 1-1.312.16 1.806 1.806 0 0 1-1.056-.832 5.692 5.692 0 0 0-1.248-1.568 5.294 5.294 0 0 0-1.728-.992c-.661-.256-1.44-.384-2.336-.384-1.578-.021-2.901.277-3.968.896-1.066.597-1.6 1.525-1.6 2.784 0 .64.16 1.259.48 1.856.342.576.95 1.077 1.824 1.504.896.427 2.176.725 3.84.896 2.539.256 4.512 1.035 5.92 2.336 1.43 1.28 2.144 2.976 2.144 5.088 0 1.216-.256 2.272-.768 3.168a6.828 6.828 0 0 1-2.016 2.272c-.832.597-1.792 1.045-2.88 1.344a12.268 12.268 0 0 1-3.328.448Zm16.304-.32c-.598 0-1.056-.256-1.376-.768-.32-.512-.352-1.056-.096-1.632l8.992-21.472c.32-.747.842-1.12 1.568-1.12.768 0 1.29.373 1.568 1.12l9.024 21.536c.234.597.192 1.141-.128 1.632-.299.469-.758.704-1.376.704-.32 0-.63-.085-.928-.256a1.66 1.66 0 0 1-.608-.768l-7.936-19.712h.896l-8.064 19.712c-.15.341-.374.597-.672.768a1.627 1.627 0 0 1-.864.256Zm1.696-5.504 1.28-2.752h12.544l1.28 2.752h-15.104Zm35.571 5.824c-1.728 0-3.35-.32-4.864-.96a12.605 12.605 0 0 1-3.936-2.72 13.194 13.194 0 0 1-2.624-4.096c-.619-1.557-.928-3.243-.928-5.056 0-1.792.309-3.456.928-4.992.64-1.557 1.514-2.912 2.624-4.064a12.357 12.357 0 0 1 3.936-2.752c1.493-.661 3.114-.992 4.864-.992 1.642 0 3.05.213 4.224.64 1.194.427 2.389 1.131 3.584 2.112.17.128.298.267.384.416.106.128.17.267.192.416.042.128.064.288.064.48 0 .405-.15.747-.448 1.024a1.738 1.738 0 0 1-1.024.448c-.406.021-.8-.117-1.184-.416-.79-.683-1.611-1.205-2.464-1.568-.832-.363-1.942-.544-3.328-.544a8.372 8.372 0 0 0-3.552.768 9.562 9.562 0 0 0-2.944 2.112 9.842 9.842 0 0 0-1.952 3.136c-.47 1.173-.704 2.432-.704 3.776 0 1.365.234 2.645.704 3.84a9.94 9.94 0 0 0 1.952 3.104 9.562 9.562 0 0 0 2.944 2.112 8.675 8.675 0 0 0 3.552.736 8.613 8.613 0 0 0 3.072-.544c.981-.384 1.92-.907 2.816-1.568.384-.277.757-.395 1.12-.352.384.021.704.171.96.448.256.256.384.619.384 1.088 0 .213-.043.427-.128.64a1.844 1.844 0 0 1-.384.544 12.821 12.821 0 0 1-3.712 2.08 12.087 12.087 0 0 1-4.128.704Zm15.883-.32c-.598 0-1.056-.256-1.376-.768-.32-.512-.352-1.056-.096-1.632l8.992-21.472c.32-.747.842-1.12 1.568-1.12.768 0 1.29.373 1.568 1.12l9.024 21.536c.234.597.192 1.141-.128 1.632-.299.469-.758.704-1.376.704-.32 0-.63-.085-.928-.256a1.66 1.66 0 0 1-.608-.768l-7.936-19.712h.896l-8.064 19.712c-.15.341-.374.597-.672.768a1.627 1.627 0 0 1-.864.256Zm1.696-5.504 1.28-2.752h12.544l1.28 2.752h-15.104ZM322.723 883c-.47 0-.864-.16-1.184-.48-.299-.32-.448-.715-.448-1.184v-21.664c0-.469.16-.864.48-1.184.32-.32.704-.48 1.152-.48.469 0 .864.16 1.184.48.32.32.48.715.48 1.184v20h11.584c.469 0 .864.16 1.184.48.32.32.48.715.48 1.184s-.16.864-.48 1.184c-.32.32-.715.48-1.184.48h-13.248Zm21.107 0c-.597 0-1.056-.256-1.376-.768-.32-.512-.352-1.056-.096-1.632l8.992-21.472c.32-.747.843-1.12 1.568-1.12.768 0 1.291.373 1.568 1.12l9.024 21.536c.235.597.192 1.141-.128 1.632-.299.469-.757.704-1.376.704-.32 0-.629-.085-.928-.256a1.666 1.666 0 0 1-.608-.768l-7.936-19.712h.896l-8.064 19.712a1.585 1.585 0 0 1-.672.768 1.621 1.621 0 0 1-.864.256Zm1.696-5.504 1.28-2.752h12.544l1.28 2.752h-15.104Zm32.932 5.824c-1.365 0-2.667-.213-3.904-.64-1.237-.427-2.315-1.024-3.232-1.792-.917-.768-1.589-1.653-2.016-2.656-.213-.448-.213-.864 0-1.248.235-.384.619-.629 1.152-.736a1.503 1.503 0 0 1 1.12.192c.384.192.672.491.864.896.256.533.672 1.024 1.248 1.472.597.448 1.312.811 2.144 1.088a8.254 8.254 0 0 0 2.624.416c1.024 0 1.963-.16 2.816-.48.875-.32 1.579-.779 2.112-1.376.533-.619.8-1.376.8-2.272 0-1.131-.448-2.144-1.344-3.04-.875-.896-2.325-1.451-4.352-1.664-2.645-.256-4.725-1.035-6.24-2.336-1.515-1.301-2.272-2.912-2.272-4.832 0-1.408.395-2.603 1.184-3.584.789-.981 1.856-1.728 3.2-2.24 1.365-.512 2.88-.768 4.544-.768 1.301 0 2.432.181 3.392.544a8.04 8.04 0 0 1 2.56 1.504 9.82 9.82 0 0 1 1.888 2.272c.299.469.416.917.352 1.344-.043.405-.245.725-.608.96a1.498 1.498 0 0 1-1.312.16 1.806 1.806 0 0 1-1.056-.832 5.692 5.692 0 0 0-1.248-1.568 5.314 5.314 0 0 0-1.728-.992c-.661-.256-1.44-.384-2.336-.384-1.579-.021-2.901.277-3.968.896-1.067.597-1.6 1.525-1.6 2.784 0 .64.16 1.259.48 1.856.341.576.949 1.077 1.824 1.504.896.427 2.176.725 3.84.896 2.539.256 4.512 1.035 5.92 2.336 1.429 1.28 2.144 2.976 2.144 5.088 0 1.216-.256 2.272-.768 3.168a6.85 6.85 0 0 1-2.016 2.272c-.832.597-1.792 1.045-2.88 1.344a12.273 12.273 0 0 1-3.328.448Zm16.303-.32c-.597 0-1.056-.256-1.376-.768-.32-.512-.352-1.056-.096-1.632l8.992-21.472c.32-.747.843-1.12 1.568-1.12.768 0 1.291.373 1.568 1.12l9.024 21.536c.235.597.192 1.141-.128 1.632-.299.469-.757.704-1.376.704-.32 0-.629-.085-.928-.256a1.666 1.666 0 0 1-.608-.768l-7.936-19.712h.896l-8.064 19.712a1.585 1.585 0 0 1-.672.768 1.621 1.621 0 0 1-.864.256Zm1.696-5.504 1.28-2.752h12.544l1.28 2.752h-15.104Zm7.36-21.344c-.96 0-1.835-.171-2.624-.512-.789-.363-1.419-.843-1.888-1.44a3.313 3.313 0 0 1-.704-2.048c0-.469.139-.853.416-1.152.277-.32.651-.48 1.12-.48.384 0 .736.117 1.056.352.32.235.48.555.48.96 0 .491.224.896.672 1.216.469.32.96.48 1.472.48.661 0 1.173-.16 1.536-.48.384-.32.576-.725.576-1.216 0-.405.16-.725.48-.96.32-.235.683-.352 1.088-.352.469 0 .832.16 1.088.48.277.299.416.683.416 1.152 0 .747-.235 1.429-.704 2.048-.469.597-1.099 1.077-1.888 1.44-.768.341-1.632.512-2.592.512Zm27.131 27.36c-2.048 0-3.861-.373-5.44-1.12-1.578-.768-2.816-1.824-3.712-3.168-.874-1.344-1.312-2.88-1.312-4.608v-14.944c0-.491.16-.885.48-1.184.32-.32.715-.48 1.184-.48.491 0 .886.16 1.184.48.32.299.48.693.48 1.184v14.944c0 1.152.299 2.176.896 3.072.619.875 1.462 1.568 2.528 2.08 1.088.491 2.326.736 3.712.736 1.344 0 2.528-.245 3.552-.736 1.046-.512 1.856-1.205 2.432-2.08.598-.896.896-1.92.896-3.072v-14.944c0-.491.16-.885.48-1.184.32-.32.715-.48 1.184-.48.491 0 .886.16 1.184.48.299.299.448.693.448 1.184v14.944c0 1.728-.437 3.264-1.312 4.608-.853 1.344-2.048 2.4-3.584 3.168-1.536.747-3.296 1.12-5.28 1.12Zm33.975-.512c-.47 0-.864-.16-1.184-.48-.299-.32-.448-.715-.448-1.184v-21.664c0-.491.149-.885.448-1.184.32-.32.714-.48 1.184-.48.512 0 .938.203 1.28.608l13.952 18.56v-17.504c0-.491.16-.885.48-1.184.32-.32.714-.48 1.184-.48.49 0 .885.16 1.184.48.298.299.448.693.448 1.184v21.664c0 .469-.15.864-.448 1.184-.299.32-.694.48-1.184.48-.214 0-.448-.043-.704-.128a1.503 1.503 0 0 1-.576-.448l-13.952-18.56v17.472c0 .469-.16.864-.48 1.184-.299.32-.694.48-1.184.48Zm39.682.32c-1.877 0-3.595-.309-5.152-.928-1.557-.64-2.901-1.525-4.032-2.656-1.109-1.152-1.973-2.507-2.592-4.064-.619-1.579-.928-3.307-.928-5.184 0-1.877.309-3.595.928-5.152s1.483-2.901 2.592-4.032a11.563 11.563 0 0 1 4.032-2.656c1.557-.64 3.275-.96 5.152-.96 1.877 0 3.584.32 5.12.96a11.563 11.563 0 0 1 4.032 2.656c1.131 1.131 2.005 2.475 2.624 4.032.619 1.557.928 3.275.928 5.152 0 1.877-.309 3.605-.928 5.184a12.125 12.125 0 0 1-2.624 4.064c-1.131 1.131-2.475 2.016-4.032 2.656-1.536.619-3.243.928-5.12.928Zm0-3.008c1.387 0 2.656-.245 3.808-.736a9.505 9.505 0 0 0 3.04-2.08 9.157 9.157 0 0 0 1.952-3.136c.469-1.195.704-2.485.704-3.872s-.235-2.677-.704-3.872a8.828 8.828 0 0 0-1.952-3.104 8.879 8.879 0 0 0-3.04-2.08c-1.152-.491-2.421-.736-3.808-.736s-2.667.245-3.84.736a8.954 8.954 0 0 0-3.008 2.08 9.47 9.47 0 0 0-1.952 3.104c-.469 1.195-.704 2.485-.704 3.872s.235 2.677.704 3.872a9.842 9.842 0 0 0 1.952 3.136 9.6 9.6 0 0 0 3.008 2.08c1.173.491 2.453.736 3.84.736Zm31.581 3.2c-2.048 0-3.861-.373-5.44-1.12-1.579-.768-2.816-1.824-3.712-3.168-.875-1.344-1.312-2.88-1.312-4.608v-14.944c0-.491.16-.885.48-1.184.32-.32.715-.48 1.184-.48.491 0 .885.16 1.184.48.32.299.48.693.48 1.184v14.944c0 1.152.299 2.176.896 3.072.619.875 1.461 1.568 2.528 2.08 1.088.491 2.325.736 3.712.736 1.344 0 2.528-.245 3.552-.736 1.045-.512 1.856-1.205 2.432-2.08.597-.896.896-1.92.896-3.072v-14.944c0-.491.16-.885.48-1.184.32-.32.715-.48 1.184-.48.491 0 .885.16 1.184.48.299.299.448.693.448 1.184v14.944c0 1.728-.437 3.264-1.312 4.608-.853 1.344-2.048 2.4-3.584 3.168-1.536.747-3.296 1.12-5.28 1.12Zm43.606-.512c-.427 0-.789-.16-1.088-.48a1.628 1.628 0 0 1-.448-1.152v-4.032H567.6c-.491 0-.875-.149-1.152-.448a1.766 1.766 0 0 1-.48-1.024 1.64 1.64 0 0 1 .32-1.088l12.256-16.064c.171-.213.363-.384.576-.512a1.58 1.58 0 0 1 .768-.192c.448 0 .811.16 1.088.48.277.32.416.715.416 1.184v14.72h1.92c.448 0 .832.107 1.152.32.32.213.48.597.48 1.152 0 .405-.16.757-.48 1.056-.32.277-.704.416-1.152.416h-1.92v4.032c0 .448-.149.832-.448 1.152-.299.32-.683.48-1.152.48Zm-10.272-7.712-.864-.896h9.6v-13.184l.992 1.28-9.728 12.8ZM593.146 883a1.61 1.61 0 0 1-1.184-.48 1.632 1.632 0 0 1-.448-1.152c0-.469.15-.853.448-1.152l9.088-10.624c.64-.747 1.131-1.451 1.472-2.112.363-.661.544-1.291.544-1.888 0-.939-.16-1.749-.48-2.432-.32-.683-.778-1.205-1.376-1.568-.597-.384-1.312-.576-2.144-.576-.81 0-1.546.213-2.208.64-.64.405-1.152.96-1.536 1.664a4.775 4.775 0 0 0-.544 2.272c0 .427-.16.8-.48 1.12-.298.32-.682.48-1.152.48-.448 0-.832-.16-1.152-.48-.32-.32-.48-.693-.48-1.12 0-1.451.331-2.741.992-3.872a7.317 7.317 0 0 1 2.688-2.72c1.152-.661 2.443-.992 3.872-.992 1.451 0 2.71.309 3.776.928 1.067.619 1.888 1.493 2.464 2.624.598 1.131.896 2.475.896 4.032 0 .683-.149 1.376-.448 2.08a9.705 9.705 0 0 1-1.088 2.016c-.426.64-.864 1.216-1.312 1.728l-7.328 8.32h8.96c.47 0 .864.171 1.184.512.32.32.48.693.48 1.12 0 .448-.16.832-.48 1.152-.32.32-.714.48-1.184.48h-11.84Zm21.117 2.368c-.597 0-1.056-.245-1.376-.736-.299-.469-.331-.992-.096-1.568l9.632-24.096c.128-.299.331-.533.608-.704.277-.171.576-.256.896-.256.555 0 .992.235 1.312.704.341.448.395.981.16 1.6l-9.632 24.096c-.128.341-.341.587-.64.736a1.801 1.801 0 0 1-.864.224ZM631.855 883c-.597 0-1.056-.256-1.376-.768-.32-.512-.352-1.056-.096-1.632l8.992-21.472c.32-.747.843-1.12 1.568-1.12.768 0 1.291.373 1.568 1.12l9.024 21.536c.235.597.192 1.141-.128 1.632-.299.469-.757.704-1.376.704-.32 0-.629-.085-.928-.256a1.666 1.666 0 0 1-.608-.768l-7.936-19.712h.896l-8.064 19.712a1.585 1.585 0 0 1-.672.768 1.621 1.621 0 0 1-.864.256Zm1.696-5.504 1.28-2.752h12.544l1.28 2.752h-15.104Zm24.388 11.04c-.256 0-.459-.085-.608-.256a.937.937 0 0 1-.192-.576c0-.427.117-.8.352-1.12.256-.299.501-.629.736-.992.256-.363.384-.8.384-1.312 0-.363-.085-.661-.256-.896a4.131 4.131 0 0 0-.576-.64 4.628 4.628 0 0 1-.576-.704c-.171-.256-.256-.576-.256-.96 0-.576.192-1.056.576-1.44.384-.384.907-.576 1.568-.576.811 0 1.419.277 1.824.832.427.555.651 1.301.672 2.24 0 .683-.117 1.397-.352 2.144a8.612 8.612 0 0 1-.896 2.08c-.363.64-.757 1.163-1.184 1.568-.427.405-.832.608-1.216.608ZM376.858 931c-.47 0-.864-.16-1.184-.48a1.61 1.61 0 0 1-.48-1.184v-23.328h3.328v23.328c0 .469-.16.864-.48 1.184-.32.32-.715.48-1.184.48Zm-8.576-21.92c-.448 0-.822-.139-1.12-.416-.278-.299-.416-.672-.416-1.12 0-.448.138-.811.416-1.088.298-.299.672-.448 1.12-.448h17.12c.448 0 .81.149 1.088.448.298.277.448.64.448 1.088 0 .448-.15.821-.448 1.12-.278.277-.64.416-1.088.416h-17.12ZM390.267 931c-.597 0-1.056-.256-1.376-.768-.32-.512-.352-1.056-.096-1.632l8.992-21.472c.32-.747.843-1.12 1.568-1.12.768 0 1.291.373 1.568 1.12l9.024 21.536c.235.597.192 1.141-.128 1.632-.298.469-.757.704-1.376.704-.32 0-.629-.085-.928-.256a1.666 1.666 0 0 1-.608-.768l-7.936-19.712h.896l-8.064 19.712a1.585 1.585 0 0 1-.672.768 1.621 1.621 0 0 1-.864.256Zm1.696-5.504 1.28-2.752h12.544l1.28 2.752h-15.104Zm26.66 5.504a1.61 1.61 0 0 1-1.184-.48 1.61 1.61 0 0 1-.48-1.184v-21.664c0-.491.16-.885.48-1.184.32-.32.715-.48 1.184-.48h7.648c1.451 0 2.72.288 3.808.864 1.11.555 1.974 1.333 2.592 2.336.64 1.003.96 2.155.96 3.456a4.978 4.978 0 0 1-.864 2.848c-.554.832-1.322 1.493-2.304 1.984 1.408.341 2.539 1.013 3.392 2.016.854 1.003 1.28 2.315 1.28 3.936 0 1.472-.352 2.773-1.056 3.904-.682 1.131-1.642 2.027-2.88 2.688-1.237.64-2.656.96-4.256.96h-8.32Zm1.664-3.072h6.656c.982 0 1.846-.171 2.592-.512a4.038 4.038 0 0 0 1.76-1.504c.427-.661.64-1.483.64-2.464 0-.917-.213-1.675-.64-2.272-.426-.597-1.013-1.045-1.76-1.344-.746-.32-1.61-.48-2.592-.48h-6.656v8.576Zm0-11.648h5.984c1.216 0 2.208-.299 2.976-.896.79-.597 1.184-1.504 1.184-2.72 0-1.216-.394-2.112-1.184-2.688-.768-.597-1.76-.896-2.976-.896h-5.984v7.2ZM441.324 931c-.598 0-1.056-.256-1.376-.768-.32-.512-.352-1.056-.096-1.632l8.992-21.472c.32-.747.842-1.12 1.568-1.12.768 0 1.29.373 1.568 1.12l9.024 21.536c.234.597.192 1.141-.128 1.632-.299.469-.758.704-1.376.704-.32 0-.63-.085-.928-.256a1.66 1.66 0 0 1-.608-.768l-7.936-19.712h.896l-8.064 19.712c-.15.341-.374.597-.672.768a1.627 1.627 0 0 1-.864.256Zm1.696-5.504 1.28-2.752h12.544l1.28 2.752H443.02Zm7.36-21.344c-.96 0-1.835-.171-2.624-.512-.79-.363-1.419-.843-1.888-1.44a3.307 3.307 0 0 1-.704-2.048c0-.469.138-.853.416-1.152.277-.32.65-.48 1.12-.48.384 0 .736.117 1.056.352.32.235.48.555.48.96 0 .491.224.896.672 1.216.469.32.96.48 1.472.48.661 0 1.173-.16 1.536-.48.384-.32.576-.725.576-1.216 0-.405.16-.725.48-.96a1.79 1.79 0 0 1 1.088-.352c.469 0 .832.16 1.088.48.277.299.416.683.416 1.152 0 .747-.235 1.429-.704 2.048-.47.597-1.099 1.077-1.888 1.44-.768.341-1.632.512-2.592.512ZM469.68 931c-.47 0-.864-.16-1.184-.48a1.61 1.61 0 0 1-.48-1.184v-21.664c0-.491.16-.885.48-1.184.32-.32.714-.48 1.184-.48h5.76c1.6 0 3.018.341 4.256 1.024 1.237.661 2.197 1.579 2.88 2.752.704 1.173 1.056 2.539 1.056 4.096 0 1.451-.352 2.741-1.056 3.872-.683 1.131-1.643 2.016-2.88 2.656-1.238.64-2.656.96-4.256.96h-4.096v7.968c0 .469-.16.864-.48 1.184-.299.32-.694.48-1.184.48Zm13.28 0c-.299 0-.576-.064-.832-.192a1.653 1.653 0 0 1-.608-.608l-5.76-9.28 3.232-.928 5.248 8.448c.384.619.437 1.205.16 1.76-.278.533-.758.8-1.44.8Zm-11.616-12.704h4.096c.981 0 1.845-.181 2.592-.544a4.497 4.497 0 0 0 1.76-1.568c.426-.683.64-1.451.64-2.304 0-.939-.214-1.771-.64-2.496a4.492 4.492 0 0 0-1.76-1.696c-.747-.405-1.611-.608-2.592-.608h-4.096v9.216ZM490.442 931c-.597 0-1.056-.256-1.376-.768-.32-.512-.352-1.056-.096-1.632l8.992-21.472c.32-.747.843-1.12 1.568-1.12.768 0 1.291.373 1.568 1.12l9.024 21.536c.235.597.192 1.141-.128 1.632-.298.469-.757.704-1.376.704-.32 0-.629-.085-.928-.256a1.666 1.666 0 0 1-.608-.768l-7.936-19.712h.896l-8.064 19.712a1.585 1.585 0 0 1-.672.768 1.621 1.621 0 0 1-.864.256Zm1.696-5.504 1.28-2.752h12.544l1.28 2.752h-15.104Zm7.36-21.344c-.96 0-1.834-.171-2.624-.512-.789-.363-1.418-.843-1.888-1.44a3.313 3.313 0 0 1-.704-2.048c0-.469.139-.853.416-1.152.278-.32.651-.48 1.12-.48.384 0 .736.117 1.056.352.32.235.48.555.48.96 0 .491.224.896.672 1.216.47.32.96.48 1.472.48.662 0 1.174-.16 1.536-.48.384-.32.576-.725.576-1.216 0-.405.16-.725.48-.96.32-.235.683-.352 1.088-.352.47 0 .832.16 1.088.48.278.299.416.683.416 1.152 0 .747-.234 1.429-.704 2.048-.469.597-1.098 1.077-1.888 1.44-.768.341-1.632.512-2.592.512ZM554.22 615.079l-34.612-40.63a9.048 9.048 0 0 0-6.871-3.174h-59.818v-15.246c0-4.984-4.045-9.029-9.029-9.029h-27.462c-4.984 0-9.028 4.045-9.028 9.029v15.246h-76.747c-4.984 0-9.029 4.044-9.029 9.029v81.261a9.03 9.03 0 0 0 9.029 9.029h76.557v117.377a9.03 9.03 0 0 0 9.029 9.029h27.462a9.03 9.03 0 0 0 9.029-9.029V670.594h60.007a9.004 9.004 0 0 0 6.871-3.174l34.612-40.631a9.025 9.025 0 0 0 0-11.71ZM434.671 778.942h-9.404V672.757h9.404v106.185Zm-9.214-213.884h9.404v6.217h-9.404v-6.217Zm83.112 87.478H339.682v-63.204h168.887l26.916 31.602-26.916 31.602Z" fill="#445B89"/><path d="M368.881 631.028c-.261 0-.457-.177-.588-.532-.28-.616-.42-1.736-.42-3.36 0-1.568.028-3.369.084-5.404.019-.653.028-1.661.028-3.024l-.084-.112h-3.108c-.243 0-.439-.131-.588-.392-.131-.28-.233-.663-.308-1.148-.093-.56-.14-1.363-.14-2.408v-.392c0-.187.009-.336.028-.448V613.136c0-.112.056-.205.168-.28a.973.973 0 0 1 .392-.196c.187-.056.467-.084.84-.084h2.128c.467 0 .821.009 1.064.028l1.036.028h10.08c.728 0 1.204.009 1.428.028.093.019.224.037.392.056.168.019.289.056.364.112.131.056.205.131.224.224.037.075.056.196.056.364v4.62c0 .205-.084.345-.252.42a1.466 1.466 0 0 1-.448.056h-1.82c-.429 0-.756-.019-.98-.056h-.84c-.168 0-.261.037-.28.112a.206.206 0 0 1-.028.084c-.019.019-.028.047-.028.084V620.108c0 .28-.009.495-.028.644 0 .541-.037 1.727-.112 3.556l-.056.84a33.572 33.572 0 0 1-.112 1.708v2.66c0 .635-.131 1.036-.392 1.204a3.91 3.91 0 0 1-.504.168l-.7.028c-.728 0-1.241.019-1.54.056l-2.94.028c-.373.019-1.045.028-2.016.028Zm18.89 0c-.242 0-.41-.187-.504-.56a1.006 1.006 0 0 1-.028-.28c0-.187.038-.467.112-.84.038-.243.066-.429.084-.56l.084-.336c.56-2.632 1.111-4.947 1.652-6.944l1.96-8.848c0-.037.028-.093.084-.168a.355.355 0 0 1 .196-.14h.14c0 .019.028.028.084.028.224 0 .476-.028.756-.084.28-.056.532-.084.756-.084.411 0 .794.028 1.148.084.168 0 .355.009.56.028.206.019.42.028.644.028a.692.692 0 0 0 .252-.056H396.899l.672-.028c.131-.019.29-.028.476-.028.15 0 .224-.009.224-.028H400.847c1.046 0 1.736.019 2.072.056.056 0 .131.009.224.028.112 0 .178.019.196.056.131 0 .262-.009.392-.028a2.54 2.54 0 0 1 .364-.028c.262-.056.514-.084.756-.084.112 0 .224.028.336.084a.805.805 0 0 0 .364.084l.14-.028h.084a.7.7 0 0 1 .168.168c.075.056.112.103.112.14l1.96 8.848a100.006 100.006 0 0 1 1.624 6.944.75.75 0 0 0 .112.364c.019.131.047.308.084.532.038.224.056.411.056.56.019.075.028.177.028.308 0 .261-.056.476-.168.644-.074.112-.186.168-.336.168h-.364c-.28 0-.494-.009-.644-.028h-1.988c-.149 0-.224-.009-.224-.028h-1.764v-.056a.626.626 0 0 0-.28-.056l-.028.028-.028.028c0 .037-.018.056-.056.056h-.308c-.093-.037-.28-.056-.56-.056-.56-.037-.998-.056-1.316-.056-.112-.168-.233-.504-.364-1.008a190.89 190.89 0 0 1-.364-1.68 3.618 3.618 0 0 0-.112-.616c-.392.075-.905.112-1.54.112H397.795l-.196.896c-.242 1.232-.438 1.997-.588 2.296a.935.935 0 0 0-.28.056l-.112.056h-.14a.461.461 0 0 1-.252-.056.19.19 0 0 0-.14-.056l-1.26.056h-.868a.626.626 0 0 1-.28.056H390.739a17.34 17.34 0 0 1-1.26.028h-.728a5.49 5.49 0 0 1-.644.028h-.336Zm12.936-6.86-.196-1.372a55.746 55.746 0 0 1-.28-1.484c-.037-.187-.13-.691-.28-1.512l-.224-1.344c-.056-.373-.112-.7-.168-.98l-.028-.364a.5.5 0 0 1-.084-.252l-.028-.168a.398.398 0 0 0-.028.168c0 .075-.018.121-.056.14v.112l-.056.364c-.018.131-.046.28-.084.448a6.435 6.435 0 0 1-.084.504l-.14.784a138.97 138.97 0 0 1-.364 2.044c-.018.205-.065.513-.14.924a4.99 4.99 0 0 0-.112.588l-.224 1.288h1.428l.196-.056h.056c.224 0 .392.019.504.056.075 0 .14.019.196.056.075.019.14.037.196.056Zm21.755 7.504c-1.325 0-2.389-.037-3.192-.112-.784-.056-1.409-.168-1.876-.336-.485-.205-.84-.485-1.064-.84-.224-.355-.336-.831-.336-1.428v-.7c.019-.187.028-.467.028-.84.019-.187.028-.467.028-.84.019-.187.028-.383.028-.588 0-.709-.018-1.773-.056-3.192l-.028-1.68c-.093-1.325-.14-2.931-.14-4.816V614.48c0-.653.028-1.129.084-1.428a.672.672 0 0 0 .056-.252.752.752 0 0 0 .028-.168c.019-.336.159-.588.42-.756.15-.056.355-.084.616-.084.168 0 .346-.009.532-.028.206-.019.42-.028.644-.028.299 0 .766-.019 1.4-.056.168-.019.364-.037.588-.056.243-.019.514-.028.812-.028a23.936 23.936 0 0 1 1.26-.056c1.531 0 3.323.149 5.376.448 1.438.168 2.558.345 3.36.532 1.363.336 2.399.775 3.108 1.316.915.784 1.372 1.783 1.372 2.996 0 1.568-.644 2.753-1.932 3.556a3.508 3.508 0 0 1-.252.14 1.159 1.159 0 0 0-.224.084 3.378 3.378 0 0 0-.868.364.617.617 0 0 0-.14.112.423.423 0 0 0-.14.168v.028c.019 0 .028.009.028.028l.056.056c1.288.523 2.334 1.167 3.136 1.932.598.672.896 1.372.896 2.1 0 1.027-.625 2.063-1.876 3.108-1.232.971-2.753 1.708-4.564 2.212a25.783 25.783 0 0 1-3.976.784c-.989.112-2.053.168-3.192.168Zm3.332-13.076a.695.695 0 0 0 .308-.084 8.232 8.232 0 0 0 1.372-.616c.262-.112.514-.224.756-.336.262-.131.439-.215.532-.252l.252-.112.224-.056c.075 0 .112-.047.112-.14 0-.317-.345-.532-1.036-.644-.41-.093-.924-.14-1.54-.14-.56 0-.914.215-1.064.644-.093.224-.14.504-.14.84v.756c0 .093.075.14.224.14Zm-.42 8.092c.019 0 .028-.009.028-.028a167.533 167.533 0 0 1 4.452-2.072c.075-.075.122-.112.14-.112l.14-.084a11.68 11.68 0 0 0-2.324-.476 65.507 65.507 0 0 0-2.408-.056c-.205 0-.308.131-.308.392v2.24c0 .131.075.196.224.196h.056Zm26.889 4.984c-2.221 0-3.976-.177-5.264-.532-1.792-.467-3.154-1.335-4.088-2.604-1.082-1.512-1.624-3.612-1.624-6.3 0-1.923.215-3.556.644-4.9.43-1.344 1.092-2.445 1.988-3.304.896-.859 2.044-1.484 3.444-1.876 1.419-.411 3.146-.616 5.18-.616 1.587 0 3.08.243 4.48.728 1.718.616 3.052 1.559 4.004 2.828 1.176 1.512 1.764 3.5 1.764 5.964 0 2.875-.429 5.115-1.288 6.72-.858 1.475-2.1 2.52-3.724 3.136-1.325.504-3.164.756-5.516.756Zm-.224-2.716c.224 0 .402-.14.532-.42.28-.597.476-1.54.588-2.828.112-1.176.168-2.287.168-3.332v-1.82c0-.821-.056-1.82-.168-2.996-.112-1.269-.308-2.231-.588-2.884-.149-.317-.326-.476-.532-.476-.41 0-.709.392-.896 1.176-.186 1.083-.28 2.063-.28 2.94-.056.747-.084 1.913-.084 3.5 0 1.064.028 1.941.084 2.632 0 .877.094 1.895.28 3.052.187.971.486 1.456.896 1.456Zm31.483 2.996a.61.61 0 0 1-.196-.028 3.068 3.068 0 0 1-.7-.56c-.056-.093-.094-.14-.112-.14-.019-.037-.047-.056-.084-.056l-.056-.028-.112-.112-2.38-3.528a4.642 4.642 0 0 0-.476-.784 2.364 2.364 0 0 1-.336-.42c-.075-.112-.15-.168-.224-.168-.056 0-.103.028-.14.084a1.765 1.765 0 0 0-.056.224c-.056.504-.084 1.185-.084 2.044 0 .821-.047 1.484-.14 1.988-.056.243-.14.364-.252.364h-.168a.247.247 0 0 0-.112-.028l-.028-.028c-.654.056-1.634.121-2.94.196-1.27.075-2.24.112-2.912.112-.187 0-.336-.019-.448-.056h-1.372l-1.008-.336-.084-.224a.49.49 0 0 0-.028-.112v-.224c0-.112-.019-.317-.056-.616a113.836 113.836 0 0 0-.112-1.344l-.196-2.52-.084-1.036c0-.336-.01-.635-.028-.896a29.241 29.241 0 0 0-.056-.672l-.056-.616a29.628 29.628 0 0 1-.084-2.156v-.084a.595.595 0 0 0 .028-.224c.037-.112.056-.289.056-.532l.028-.504.028-.336c0-.392-.019-.961-.056-1.708-.075-.467-.112-1.064-.112-1.792 0-1.045.065-1.811.196-2.296.168-.672.448-1.008.84-1.008 2.109 0 4.256.028 6.44.084.485 0 1.213.019 2.184.056l1.092.028c1.493.037 2.529.056 3.108.056 2.408.112 4.228.719 5.46 1.82.56.467.97 1.027 1.232 1.68.28.653.42 1.353.42 2.1 0 .859-.159 1.652-.476 2.38a5.4 5.4 0 0 1-1.12 1.596c-.467.467-.999.84-1.596 1.12.112.056.261.177.448.364.074.093.205.215.392.364l.392.28c.056.093.121.187.196.28.074.075.149.159.224.252l1.316 1.624c.597.765.98 1.325 1.148 1.68.13.243.196.429.196.56a.697.697 0 0 1-.224.504c-.15.149-.374.336-.672.56a5.132 5.132 0 0 1-.784.476c-.28.149-.495.289-.644.42l-1.036.56a7.875 7.875 0 0 1-1.204.532.206.206 0 0 0-.084.028.307.307 0 0 1-.112.056c-.112.056-.42.159-.924.308-.094.056-.252.103-.476.14a.645.645 0 0 1-.196.084.752.752 0 0 1-.168.028h-.14c-.019.093-.056.14-.112.14h-.168Zm-4.592-9.884c.578 0 1.036-.289 1.372-.868.317-.523.494-1.12.532-1.792.037-.392.056-.859.056-1.4v-.308c0-.429-.075-.877-.224-1.344-.15-.597-.458-1.027-.924-1.288-.206-.168-.476-.252-.812-.252-.094 0-.168.112-.224.336-.168.411-.262 1.064-.28 1.96a6.757 6.757 0 0 0-.112 1.316l-.028.84a78.914 78.914 0 0 0-.056 2.688c0 .019.009.037.028.056.018.019.037.028.056.028l.196.028h.42Z" fill="#445B89"/><defs><clipPath id="a"><path fill="#fff" transform="translate(329 1606.5)" d="M0 0h220v219H0z"/></clipPath></defs></svg>
